<?xml version="1.0" encoding="utf-8"?>
<!-- Generator: Adobe Illustrator 16.0.0, SVG Export Plug-In . SVG Version: 6.00 Build 0)  -->
<!DOCTYPE svg PUBLIC "-//W3C//DTD SVG 1.1//EN" "http://www.w3.org/Graphics/SVG/1.1/DTD/svg11.dtd">
<svg version="1.1" id="图层_1" xmlns="http://www.w3.org/2000/svg" xmlns:xlink="http://www.w3.org/1999/xlink" x="0px" y="0px"
	 width="196.979px" height="187.248px" viewBox="1.581 4.854 196.979 187.248" enable-background="new 1.581 4.854 196.979 187.248"
	 xml:space="preserve">
<linearGradient id="SVGID_1_" gradientUnits="userSpaceOnUse" x1="100.0703" y1="192.1016" x2="100.0703" y2="4.8545">
	<stop  offset="0" style="stop-color:#42A5FF"/>
	<stop  offset="1" style="stop-color:#43D4FF"/>
</linearGradient>
<path fill="url(#SVGID_1_)" d="M148.889,39.649c-0.834,0-1.666-0.319-2.305-0.95c-1.268-1.269-1.268-3.332,0-4.601l28.241-28.292
	c1.269-1.269,3.331-1.269,4.601,0s1.269,3.332,0,4.601l-28.24,28.292C150.555,39.33,149.721,39.649,148.889,39.649z M173.719,53.053
	c-0.846,0-1.686-0.325-2.316-0.976c-1.256-1.275-1.236-3.338,0.039-4.601l9.215-9.051c1.287-1.243,3.357-1.23,4.6,0.052
	c1.256,1.275,1.236,3.338-0.039,4.601l-9.214,9.051C175.365,52.748,174.539,53.053,173.719,53.053z M21.545,152.768
	c-0.833,0-1.672-0.319-2.303-0.957c-1.263-1.269-1.263-3.332,0.013-4.601l12.48-12.429c1.269-1.256,3.332-1.269,4.601,0.014
	c1.262,1.269,1.262,3.332-0.013,4.601l-12.48,12.429C23.205,152.448,22.378,152.768,21.545,152.768z M4.829,169.133
	c-0.833,0-1.672-0.319-2.304-0.957c-1.262-1.269-1.262-3.338,0.013-4.601l7.412-7.372c1.269-1.256,3.332-1.27,4.6,0.013
	c1.263,1.269,1.263,3.339-0.013,4.601l-7.412,7.373C6.488,168.813,5.662,169.133,4.829,169.133z M195.732,89.89
	c2.688-3.065,3.527-7.08,2.225-10.736c-1.307-3.761-4.17-6.345-8.088-7.269l-48.223-10.17c-1.875-0.436-3.195-1.367-4.119-2.889
	l-24.648-42.602c-2.018-3.455-5.447-5.44-9.43-5.44c-4.099,0-7.639,2.069-9.435,5.446L69.19,58.884
	c-0.807,1.49-2.05,2.388-3.878,2.824l-48.34,10.184c-4.008,0.95-6.95,3.638-8.036,7.255c-1.334,3.826-0.482,7.86,2.245,10.756
	l33.063,36.732c1.165,1.152,1.692,2.688,1.47,4.379l-5.095,48.9c-0.553,4.055,1.041,7.725,4.308,10.015
	c3.156,2.395,7.275,2.812,10.971,1.158l45.036-19.905c1.697-0.741,3.253-0.761,4.88-0.006l45.146,19.885
	c1.458,0.684,2.986,1.041,4.555,1.041c2.246,0,4.471-0.734,6.391-2.127c3.162-2.232,4.756-5.856,4.386-9.982l-5.102-49.03
	c-0.202-1.601,0.313-3.208,1.432-4.418L195.732,89.89z"/>
</svg>
