<?xml version="1.0" standalone="no"?><!DOCTYPE svg PUBLIC "-//W3C//DTD SVG 1.1//EN" "http://www.w3.org/Graphics/SVG/1.1/DTD/svg11.dtd"><svg t="1531905000543" class="icon" style="" viewBox="0 0 1024 1024" version="1.1" xmlns="http://www.w3.org/2000/svg" p-id="3212" xmlns:xlink="http://www.w3.org/1999/xlink" width="200" height="200"><defs><style type="text/css"></style></defs><path d="M487.272 195.818l45.454 0L532.726 14l-45.454 0L487.272 195.818zM487.272 468.546l45.454 0 0-181.818-45.454 0L487.272 468.546zM487.272 741.272l45.454 0 0-181.818-45.454 0L487.272 741.272zM487.272 1014l45.454 0 0-181.818-45.454 0L487.272 1014zM828.182 491.272l0 45.454L1010 536.726l0-45.454L828.182 491.272zM555.454 536.728l181.818 0 0-45.454-181.818 0L555.454 536.728zM282.728 536.728l181.818 0 0-45.454-181.818 0L282.728 536.728zM10 536.728l181.818 0 0-45.454L10 491.274 10 536.728z" p-id="3213" fill="#ff9b49"></path></svg>