<?xml version="1.0" standalone="no"?><!DOCTYPE svg PUBLIC "-//W3C//DTD SVG 1.1//EN" "http://www.w3.org/Graphics/SVG/1.1/DTD/svg11.dtd"><svg t="1538889910770" class="icon" style="" viewBox="0 0 1024 1024" version="1.1" xmlns="http://www.w3.org/2000/svg" p-id="2109" xmlns:xlink="http://www.w3.org/1999/xlink" width="128" height="128"><defs><style type="text/css"></style></defs><path d="M256 512a32 32 0 0 1 32-32h448a32 32 0 1 1 0 64h-448A32.64 32.64 0 0 1 256 512z" fill="#656565" p-id="2110"></path><path d="M480 288a32 32 0 1 1 64 0v448a32 32 0 1 1-64 0z" fill="#656565" p-id="2111"></path><path d="M512 0a512 512 0 1 0 512 512 512 512 0 0 0-512-512z m0 960a448 448 0 1 1 448-448 448 448 0 0 1-448 448z" fill="#656565" p-id="2112"></path></svg>