<?xml version="1.0" standalone="no"?><!DOCTYPE svg PUBLIC "-//W3C//DTD SVG 1.1//EN" "http://www.w3.org/Graphics/SVG/1.1/DTD/svg11.dtd"><svg t="1531900500818" class="icon" style="" viewBox="0 0 1024 1024" version="1.1" xmlns="http://www.w3.org/2000/svg" p-id="981" xmlns:xlink="http://www.w3.org/1999/xlink" width="200" height="200"><defs><style type="text/css"></style></defs><path d="M1007.317757 267.60496C991.453732 137.624892 888.705131 34.96299 758.696164 19.245268 596.496753-0.359438 431.397456-0.359438 269.168243 19.245268 139.159275 34.96299 36.410675 137.595089 20.576452 267.60496 10.658501 348.689764 5.669723 430.529568 5.669723 512.48497s4.987875 163.794303 14.905826 244.88001c15.834223 129.980068 118.582823 232.612167 248.591791 248.359691 162.229213 19.604706 327.32851 19.604706 489.52792 0 130.008968-15.747524 232.757568-118.379624 248.621594-248.359691 9.889052-81.085707 14.876927-162.924608 14.876927-244.88001s-4.986972-163.795206-14.876024-244.88001z m-30.740952 474.475791c-14.876927 121.918008-111.216157 218.17054-233.134165 232.903871-152.10716 18.385508-306.911908 18.385508-459.019067 0C162.504662 960.25129 66.165431 863.998758 51.287602 742.110553a1896.23241 1896.23241 0 0 1-13.949433-229.625583c0-76.851026 4.669077-153.586453 13.949433-229.625583C66.165431 160.970279 162.504662 64.717746 284.422669 49.956418c152.10716-18.386411 306.911908-18.386411 459.019068 0 121.918008 14.761329 218.258141 111.013861 233.134165 232.902969a1896.060819 1896.060819 0 0 1 13.949433 229.625583 1895.01863 1895.01863 0 0 1-13.94853 229.595781z" p-id="982" fill="#656565"></path><path d="M397.756619 294.662128h-58.088018c-31.929445 0-58.088018 26.129674-58.088018 58.088018v58.059118c0 31.958344 26.158573 58.088018 58.088018 58.088018h58.088018c31.958344 0 58.088018-26.129674 58.088018-58.088018v-58.059118c0-31.958344-26.129674-58.088018-58.088018-58.088018zM397.756619 556.042855h-58.088018c-31.929445 0-58.088018 26.129674-58.088018 58.088018v58.088018c0 31.928541 26.158573 58.087115 58.088018 58.087115h58.088018c31.958344 0 58.088018-26.158573 58.088018-58.087115v-58.088018c0-31.958344-26.129674-58.088018-58.088018-58.088018zM688.195805 556.042855H630.108691c-31.959247 0-58.088018 26.129674-58.088018 58.088018v58.088018c0 31.928541 26.129674 58.087115 58.088018 58.087115h58.087114c31.959247 0 58.088018-26.158573 58.088018-58.087115v-58.088018c0.000903-31.958344-26.128771-58.088018-58.088018-58.088018zM688.195805 294.662128H630.108691c-31.959247 0-58.088018 26.129674-58.088018 58.088018v58.059118c0 31.958344 26.129674 58.088018 58.088018 58.088018h58.087114c31.959247 0 58.088018-26.129674 58.088018-58.088018v-58.059118c0.000903-31.958344-26.128771-58.088018-58.088018-58.088018z" p-id="983" fill="#656565"></path></svg>