<?xml version="1.0" standalone="no"?><!DOCTYPE svg PUBLIC "-//W3C//DTD SVG 1.1//EN" "http://www.w3.org/Graphics/SVG/1.1/DTD/svg11.dtd"><svg t="1545975670100" class="icon" style="" viewBox="0 0 1024 1024" version="1.1" xmlns="http://www.w3.org/2000/svg" p-id="5517" xmlns:xlink="http://www.w3.org/1999/xlink" width="200" height="200"><defs><style type="text/css"></style></defs><path d="M104.2432 239.8208h68.4032c18.8416 0 34.2016-15.36 34.2016-34.2016s-15.36-34.2016-34.2016-34.2016H104.2432c-18.8416 0-34.2016 15.36-34.2016 34.2016s15.36 34.2016 34.2016 34.2016zM104.2432 513.4336h68.4032c18.8416 0 34.2016-15.36 34.2016-34.2016s-15.36-34.2016-34.2016-34.2016H104.2432c-18.8416 0-34.2016 15.36-34.2016 34.2016s15.36 34.2016 34.2016 34.2016zM206.848 752.64c0-18.8416-15.36-34.2016-34.2016-34.2016H104.2432c-18.8416 0-34.2016 15.36-34.2016 34.2016s15.36 34.2016 34.2016 34.2016h68.4032c18.8416 0 34.2016-15.36 34.2016-34.2016z" fill="#ff4975" p-id="5518"></path><path d="M853.8112 69.632l-68.1984-2.048c0-18.8416-15.36-34.2016-34.2016-34.2016H170.1888c-18.8416 0-34.2016 15.36-34.2016 34.2016v66.1504h34.2016S237.568 140.0832 237.568 202.1376c0 0 1.4336 68.4032-69.0176 68.4032l-32.5632 2.048 2.048 134.5536H169.984s68.1984 0 68.1984 72.704c0 0-4.5056 66.3552-68.608 66.3552H137.4208l-0.6144 134.7584h33.9968s66.1504 2.048 66.1504 70.4512c0 0 2.048 70.4512-68.608 70.4512l-32.1536-2.048-0.4096 68.4032s40.5504 102.6048 100.352 102.6048H856.064s32.1536-6.3488 32.1536-32.1536V103.8336c-0.2048 0-6.5536-34.2016-34.4064-34.2016zM410.4192 356.352l229.9904 129.8432c18.2272 10.24 18.432 36.4544 0.4096 47.104l-227.328 134.3488c-18.0224 10.6496-40.7552-2.2528-40.96-23.1424l-2.6624-263.9872c-0.2048-21.2992 22.3232-34.6112 40.5504-24.1664z m375.1936 565.8624H238.3872s-35.2256-11.6736-35.2256-35.2256l548.0448 1.024c18.8416 0 34.2016-15.36 34.2016-34.2016V98.5088l35.2256 11.6736v779.8784c0.2048 0.2048 1.2288 32.1536-35.0208 32.1536z" fill="#ff4975" p-id="5519"></path></svg>