<?xml version="1.0" standalone="no"?><!DOCTYPE svg PUBLIC "-//W3C//DTD SVG 1.1//EN" "http://www.w3.org/Graphics/SVG/1.1/DTD/svg11.dtd"><svg t="1532412346211" class="icon" style="" viewBox="0 0 1024 1024" version="1.1" xmlns="http://www.w3.org/2000/svg" p-id="3761" xmlns:xlink="http://www.w3.org/1999/xlink" width="200" height="200"><defs><style type="text/css"></style></defs><path d="M149.778464 149.792699a511.426081 511.426081 0 1 0 723.295287 0 511.462648 511.462648 0 0 0-723.295287 0z m675.026845 674.990278a443.192056 443.192056 0 1 1 0-626.758404 443.192056 443.192056 0 0 1 0 626.758404zM674.149263 324.582965l-150.656045 150.656046-150.656046-150.656046a25.596901 25.596901 0 0 0-36.201331 0l-12.06711 12.030544a25.779736 25.779736 0 0 0 0 36.164764l150.656045 150.656045-150.656045 150.692613a25.596901 25.596901 0 0 0 0 36.128197l12.06711 12.067111a25.596901 25.596901 0 0 0 36.201331 0l150.656046-150.656046 150.656045 150.656046a25.596901 25.596901 0 0 0 36.201332 0l12.06711-12.067111a25.596901 25.596901 0 0 0 0-36.128197l-150.656045-150.692613 150.656045-150.656045a25.779736 25.779736 0 0 0 0-36.164764l-12.06711-12.030544a25.596901 25.596901 0 0 0-36.201332 0z" p-id="3762" fill="#656565"></path></svg>