<?xml version="1.0" encoding="utf-8"?>
<!-- Generator: Adobe Illustrator 16.0.0, SVG Export Plug-In . SVG Version: 6.00 Build 0)  -->
<!DOCTYPE svg PUBLIC "-//W3C//DTD SVG 1.1//EN" "http://www.w3.org/Graphics/SVG/1.1/DTD/svg11.dtd">
<svg version="1.1" id="图层_1" xmlns="http://www.w3.org/2000/svg" xmlns:xlink="http://www.w3.org/1999/xlink" x="0px" y="0px"
	 width="200px" height="200px" viewBox="0 0 200 200" enable-background="new 0 0 200 200" xml:space="preserve">
<path fill="#FFFFFF" d="M174.316,30.985l19.138-26.794L190.386,2l-18.621,26.072c-1.141-1.242-2.307-2.448-3.506-3.612
	C152.587,9.246,132.963,1.534,111.424,2.167C63.106,3.589,25.583,29.171,8.477,72.355c-12.336,31.141-11.067,66.426,2.889,80.334
	c5.891,5.87,13.379,7.229,21.641,3.917c44.309-17.725,62.562,1.287,80.208,19.673c10.876,11.331,21.181,22.07,36.725,22.07
	c1.036,0,2.097-0.047,3.182-0.146c43.587-3.961,46.955-40.777,46.955-92.359C200.075,77.584,190.563,50.281,174.316,30.985z
	 M152.779,194.449c-15.535,1.431-25.415-8.871-36.845-20.78c-12.761-13.296-26.75-27.873-51.165-27.873
	c-9.352,0-20.234,2.14-33.163,7.311c-6.867,2.742-12.774,1.702-17.583-3.087C2.902,138.935-1.041,106.62,11.981,73.744
	C19.8,54.007,45.152,7.89,111.533,5.938c20.471-0.615,39.177,6.739,54.097,21.229c1.336,1.296,2.629,2.65,3.89,4.048l-35.685,49.957
	l3.066,2.19l35.15-49.209c15.313,18.576,24.254,44.663,24.254,71.691C196.306,156.978,193.275,190.77,152.779,194.449z"/>
<path fill="#FFFFFF" d="M48.108,111.29c6.507,0.396,12.089-4.763,12.469-11.518c0.38-6.756-4.586-12.554-11.092-12.948
	s-12.088,4.762-12.47,11.518C36.636,105.1,41.602,110.896,48.108,111.29z"/>
<path fill="#FFFFFF" d="M63.175,70.043c3.855,0.233,7.164-2.822,7.389-6.826s-2.717-7.439-6.573-7.673
	c-3.856-0.234-7.164,2.822-7.389,6.826C56.376,66.374,59.319,69.809,63.175,70.043z"/>
<path fill="#FFFFFF" d="M87.244,44.965c1.854,0.112,3.443-1.357,3.552-3.282s-1.307-3.577-3.161-3.69
	c-1.853-0.112-3.444,1.357-3.552,3.282C83.975,43.201,85.39,44.853,87.244,44.965z"/>
</svg>
