<?xml version="1.0" standalone="no"?><!DOCTYPE svg PUBLIC "-//W3C//DTD SVG 1.1//EN" "http://www.w3.org/Graphics/SVG/1.1/DTD/svg11.dtd"><svg t="1532085194626" class="icon" style="" viewBox="0 0 1024 1024" version="1.1" xmlns="http://www.w3.org/2000/svg" p-id="5582" xmlns:xlink="http://www.w3.org/1999/xlink" width="200" height="200"><defs><style type="text/css"></style></defs><path d="M341.333 796.444v56.89h284.445v-56.89H341.333z m-142.222 56.89C91.022 853.333 0 762.31 0 654.221c0-102.4 73.956-182.044 170.667-199.11 11.377-159.29 147.91-284.445 312.889-284.445S779.378 295.822 796.444 455.11c96.712 11.378 170.667 96.711 170.667 199.111 0 108.09-91.022 199.111-199.111 199.111H199.111zM768 796.443c79.644 0 142.222-62.577 142.222-142.222 0-73.955-51.2-130.844-125.155-142.222l-45.511-5.689V460.8c-11.378-130.844-125.156-233.244-256-233.244s-244.623 102.4-256 233.244l-5.69 45.511L182.045 512C108.09 523.378 56.89 580.267 56.89 654.222c0 79.645 62.578 142.222 142.222 142.222H768z" fill="#ff9b49" p-id="5583"></path><path d="M484.409 395.378L685.568 596.48l-40.22 40.22-201.16-201.102z" fill="#ff9b49" p-id="5584"></path><path d="M282.738 599.324L483.84 398.222l40.22 40.22-201.102 201.16z" fill="#ff9b49" p-id="5585"></path><path d="M455.111 455.111H512v455.111h-56.889z" fill="#ff9b49" p-id="5586"></path></svg>