<?xml version="1.0" standalone="no"?><!DOCTYPE svg PUBLIC "-//W3C//DTD SVG 1.1//EN" "http://www.w3.org/Graphics/SVG/1.1/DTD/svg11.dtd"><svg t="1531126624845" class="icon" style="" viewBox="0 0 1024 1024" version="1.1" xmlns="http://www.w3.org/2000/svg" p-id="2067" xmlns:xlink="http://www.w3.org/1999/xlink" width="200" height="200"><defs><style type="text/css"></style></defs><path d="M768 985.6c-12.8 0-32-6.4-44.8-12.8l-204.8-108.8c-6.4-6.4-19.2-6.4-25.6 0l-204.8 108.8c-38.4 19.2-89.6 12.8-115.2-25.6-19.2-19.2-25.6-51.2-19.2-76.8l38.4-224c0-6.4 0-19.2-6.4-25.6L25.6 460.8C0 441.6-6.4 403.2 6.4 371.2c12.8-32 38.4-57.6 76.8-64l224-32c6.4 0 19.2-6.4 19.2-12.8l102.4-204.8C441.6 19.2 473.6 0 512 0c38.4 0 70.4 19.2 83.2 51.2L697.6 256c6.4 6.4 12.8 12.8 19.2 12.8l224 32c32 6.4 64 32 76.8 64 12.8 32 0 70.4-25.6 96L832 620.8c-6.4 6.4-12.8 12.8-6.4 25.6l38.4 224c6.4 25.6 0 51.2-19.2 76.8C825.6 972.8 800 985.6 768 985.6z" p-id="2068" fill="#ff9b01"></path></svg>