<?xml version="1.0" standalone="no"?><!DOCTYPE svg PUBLIC "-//W3C//DTD SVG 1.1//EN" "http://www.w3.org/Graphics/SVG/1.1/DTD/svg11.dtd"><svg t="1546500870315" class="icon" style="" viewBox="0 0 1030 1024" version="1.1" xmlns="http://www.w3.org/2000/svg" p-id="2758" xmlns:xlink="http://www.w3.org/1999/xlink" width="32.1875" height="32"><defs><style type="text/css"></style></defs><path d="M-2.3e-05 602.977038 8.210986 606.682429-2.3e-05 602.977038Z" p-id="2759" fill="#282828"></path><path d="M857.686113 798.222837 571.46123 511.998977 857.68509 225.77614c7.416923-7.417947 11.124362-17.137309 11.124362-26.858718 0-9.721409-3.707438-19.440771-11.124362-26.857694-14.832823-14.832823-38.882566-14.832823-53.716412 0L517.745841 458.282564 231.523004 172.059728c-14.833847-14.832823-38.881542-14.832823-53.715389 0-14.833847 14.833847-14.833847 38.882566 0 53.716412l286.22386 286.222837L177.805568 798.222837c-14.832823 14.833847-14.832823 38.882566 0 53.716412 14.833847 14.8318 38.882566 14.8318 53.715389 0l286.224884-286.224884 286.224884 286.224884c7.416923 7.416923 17.136286 11.124362 26.857694 11.124362s19.440771-3.707438 26.857694-11.124362C872.51996 837.106426 872.51996 813.056684 857.686113 798.222837z" p-id="2760" fill="#282828"></path></svg>