<?xml version="1.0" standalone="no"?><!DOCTYPE svg PUBLIC "-//W3C//DTD SVG 1.1//EN" "http://www.w3.org/Graphics/SVG/1.1/DTD/svg11.dtd"><svg t="1532159412086" class="icon" style="" viewBox="0 0 1024 1024" version="1.1" xmlns="http://www.w3.org/2000/svg" p-id="9152" xmlns:xlink="http://www.w3.org/1999/xlink" width="200" height="200"><defs><style type="text/css"></style></defs><path d="M476.021657 589.036606c-16.438303-6.049616-29.106424-16.837818-35.494788-28.728889 0.200404 14.29204 12.975838 30.25196 32.338747 37.370828 19.17802 7.065859 38.781414 3.202586 48.230142-7.333494-12.466424 4.725657-28.851717 4.663596-45.074101-1.308445z m95.900444-114.747475c-7.566222 20.716606-37.818182 28.621576-67.578828 17.67693-17.263192-6.349576-30.554505-17.662707-37.202748-30.083879 4.717899 15.522909 19.978343 30.545455 41.06602 38.30303 30.26101 11.136 61.021091 3.086222 68.717899-17.970424 4.147717-11.375192 0.707232-24.219152-8.105373-35.386182 4.910545 9.04404 6.30303 18.703515 3.10303 27.460525z m-4.773495 38.434909c-10.441697 28.582788-46.682505 41.527596-80.954182 28.921536-22.133657-8.150626-38.018586-24.966465-43.682909-43.558788 1.07701 23.364525 18.848323 46.376081 46.006303 56.37301 34.338909 12.637091 70.657293-0.338747 81.117091-28.982303 3.823192-10.467556 3.646061-21.580283 0.230142-32.085333 0.433131 6.494384-0.413737 13.035313-2.716445 19.331878zM512 118.30303c-182.803394 0-330.989899 148.186505-330.989899 330.989899 0 182.795636 148.186505 330.989899 330.989899 330.989899 182.795636 0 330.989899-148.194263 330.989899-330.989899 0-182.803394-148.194263-330.989899-330.989899-330.989899z m206.068364 315.212283c-0.592162 1.793293-1.185616 3.578828-1.678223 5.364364-15.861657 58.035717-31.729778 116.178747-47.599192 174.214464-2.06998 7.572687-4.53301 9.574141-11.728161 9.574142H383.092364c-7.689051 0-10.051232-1.894141-12.121212-9.574142-12.913778-47.100121-25.720242-94.306263-38.634021-141.406383-3.448242-12.728889-6.99604-25.443556-10.543838-38.272-12.121212 0-21.286788-5.156202-27.005414-16.29996-1.37697-2.73196-2.262626-5.780687-3.347394-8.719515-0.099556-3.687434-0.099556-7.157657-0.099556-10.627879l1.477818-4.410182c3.748202-11.990626 13.59903-20.086949 25.628445-20.92606 10.935596-0.839111 21.872485 5.995313 26.997656 16.71499 5.22602 10.935596 3.748202 23.864889-3.84 33.43903-0.885657 1.047273-1.777778 2.10101-2.762989 3.362909 21.187232 13.875717 42.282667 27.544566 63.269495 41.319434 7.98901 5.255758 15.96897 10.512808 23.950222 15.561697 4.53301 2.839273 8.080808 2.001455 10.543838-2.739717a140192.413737 140192.413737 0 0 0 72.635475-141.299071c-10.543838-5.679838-17.347232-14.407111-17.939394-27.336404-0.393051-9.050505 2.562586-16.823596 8.573414-23.134384 11.929859-12.405657 31.538424-11.251071 41.990465 2.523798 12.020364 15.769859 7.686465 34.170828-11.437253 48.046546 6.211232 12.198788 12.514263 24.388525 18.825051 36.58602 17.538586 34.06998 34.986667 68.024889 52.525252 102.087111 4.040404 7.888162 6.610747 8.626424 13.799435 4.001616 27.10497-17.662707 54.202182-35.432727 81.308444-53.094141 1.277414-0.846869 2.461737-1.68598 3.940849-2.632404-5.619071-5.995313-9.166869-12.721131-9.55992-21.025616-0.783515-15.569455 9.266424-29.229253 23.356768-31.754344 14.677333-2.73196 28.282828 6.203475 32.616727 21.341091 0.29996 1.154586 0.792566 2.424242 1.185616 3.578829v10.512808c-4.63903 15.773737-14.096808 24.923798-30.357979 25.023353z" p-id="9153" fill="#3faeef"></path></svg>