<?xml version="1.0" encoding="utf-8"?>
<!-- Generator: Adobe Illustrator 16.0.0, SVG Export Plug-In . SVG Version: 6.00 Build 0)  -->
<!DOCTYPE svg PUBLIC "-//W3C//DTD SVG 1.1//EN" "http://www.w3.org/Graphics/SVG/1.1/DTD/svg11.dtd">
<svg version="1.1" id="图层_1" xmlns="http://www.w3.org/2000/svg" xmlns:xlink="http://www.w3.org/1999/xlink" x="0px" y="0px"
	 width="464px" height="512px" viewBox="0 0 464 512" enable-background="new 0 0 464 512" xml:space="preserve">
<g>
	<path fill-rule="evenodd" clip-rule="evenodd" fill="none" d="M1,261C1,175.667,1.026,90.333,0.904,5
		C0.899,1.576,1.576,0.898,5,0.903C80,1.03,155,1,230,1c-0.346,0.323-0.639,0.813-1.047,0.946
		c-14.324,4.661-19.843,12.197-19.845,27.185c-0.005,24.486-0.002,48.973-0.001,73.458c0,45.641-0.027,91.281,0.014,136.922
		c0.015,16.709,12.932,28.228,28.383,25.466c12.549-2.243,19.717-11.859,19.721-26.558c0.019-68.962,0.029-137.924,0.026-206.886
		c-0.001-18.455-3.851-23.914-21.05-30.088C236.094,1.407,236.064,1.153,236,1c75,0,150,0.03,225-0.097
		c3.424-0.005,4.101,0.673,4.096,4.097C464.974,89,465,173,465,257c-0.453-1.311-1.153-2.589-1.322-3.935
		c-4.688-37.178-17.354-71.372-38.553-102.286c-25.716-37.503-59.518-65.255-101.381-83.097c-10.21-4.352-20.507-2.512-27.691,4.725
		c-11.931,12.019-8.055,31.507,7.435,39.334c11.714,5.919,23.774,11.536,34.474,19.016c75.87,53.035,101.186,151.01,58.797,233.608
		c-31.865,62.094-84.416,95.988-154.063,100.258c-56.13,3.44-104.1-16.834-143.161-57.436
		c-52.327-54.391-65.052-139.506-31.027-207.006c20.017-39.711,50.41-68.639,90.9-87.05c4.027-1.831,8.189-4.03,11.307-7.067
		c8.171-7.962,8.987-21.09,2.544-30.31c-6.89-9.859-19.037-13.329-30.592-8.031C61.751,104.824,14.732,167.246,2.634,255.67
		C2.386,257.487,1.558,259.226,1,261z"/>
	<path fill-rule="evenodd" clip-rule="evenodd" fill="#FE9A01" d="M1,261c0.558-1.774,1.386-3.513,1.634-5.33
		c12.098-88.424,59.117-150.846,140.032-187.946c11.555-5.298,23.702-1.828,30.592,8.031c6.443,9.22,5.627,22.348-2.544,30.31
		c-3.117,3.037-7.28,5.236-11.307,7.067c-40.49,18.411-70.883,47.339-90.9,87.05c-34.025,67.5-21.3,152.615,31.027,207.006
		c39.061,40.602,87.03,60.876,143.161,57.436c69.646-4.27,122.197-38.164,154.063-100.258
		c42.389-82.599,17.073-180.573-58.797-233.608c-10.699-7.479-22.76-13.097-34.474-19.016c-15.489-7.827-19.365-27.315-7.435-39.334
		c7.185-7.236,17.481-9.076,27.691-4.725c41.863,17.842,75.665,45.594,101.381,83.097c21.198,30.914,33.865,65.108,38.553,102.286
		c0.169,1.346,0.869,2.624,1.322,3.935c0,1.667,0,3.333,0,5c0,0.667,0,1.333,0,2c0,2,0,4,0,6c0,2.667,0,5.333,0,8c0,2,0,4,0,6
		c0,2.667,0,5.333,0,8c0,2.333,0,4.667,0,7c0,0.667,0,1.333,0,2c0,2,0,4,0,6c-0.638,2.104-1.413,4.176-1.891,6.314
		c-2.821,12.638-4.322,25.727-8.55,37.869c-30.465,87.509-91.147,140.774-182.222,159.029c-4.453,0.893-8.893,1.856-13.338,2.787
		c-1,0-2,0-3,0s-2,0-3,0c-12,0-24,0-36,0c-1.352-0.302-2.705-0.603-4.057-0.904c-0.648,0.301-1.295,0.603-1.943,0.904
		c-1.667,0-3.333,0-5,0c-1.275-0.523-2.51-1.347-3.832-1.526c-38.521-5.239-73.742-18.95-104.98-42.073
		c-53.972-39.951-85.558-93.296-94.27-160.028C2.549,306.546,1.651,303.789,1,301c0-2.333,0-4.667,0-7s0-4.667,0-7
		C1,278.333,1,269.667,1,261z"/>
	<path fill-rule="evenodd" clip-rule="evenodd" fill="#FE9A01" d="M236,1c0.064,0.153,0.094,0.407,0.201,0.445
		c17.199,6.174,21.049,11.633,21.05,30.088c0.003,68.962-0.008,137.924-0.026,206.886c-0.004,14.698-7.172,24.314-19.721,26.558
		c-15.451,2.762-28.369-8.757-28.383-25.466c-0.041-45.641-0.014-91.281-0.014-136.922c0-24.485-0.003-48.972,0.001-73.458
		c0.002-14.987,5.521-22.523,19.845-27.185C229.361,1.813,229.654,1.323,230,1C232,1,234,1,236,1z"/>
	<path fill-rule="evenodd" clip-rule="evenodd" fill="none" d="M1,301c0.651,2.789,1.549,5.546,1.917,8.372
		c8.712,66.732,40.298,120.077,94.27,160.028c31.239,23.123,66.459,36.834,104.98,42.073c1.322,0.18,2.557,1.003,3.832,1.526
		c-67,0-134-0.033-201,0.097c-3.424,0.007-4.103-0.672-4.097-4.097C1.032,439.667,1,370.333,1,301z"/>
	<path fill-rule="evenodd" clip-rule="evenodd" fill="none" d="M259,513c4.445-0.931,8.885-1.895,13.338-2.787
		c91.074-18.255,151.757-71.521,182.222-159.029c4.228-12.143,5.729-25.231,8.55-37.869c0.478-2.139,1.253-4.211,1.891-6.314
		c0,67.333-0.033,134.667,0.097,202c0.007,3.425-0.672,4.104-4.097,4.097C393.667,512.967,326.333,513,259,513z"/>
	<path fill-rule="evenodd" clip-rule="evenodd" fill="#FEA41B" d="M465,278c0-2.667,0-5.333,0-8C465,272.667,465,275.333,465,278z"
		/>
	<path fill-rule="evenodd" clip-rule="evenodd" fill="#FEA318" d="M465,292c0-2.667,0-5.333,0-8C465,286.667,465,289.333,465,292z"
		/>
	<path fill-rule="evenodd" clip-rule="evenodd" fill="#FEA214" d="M1,287c0,2.333,0,4.667,0,7C1,291.667,1,289.333,1,287z"/>
	<path fill-rule="evenodd" clip-rule="evenodd" fill="#FEB94E" d="M212.943,512.096c1.352,0.302,2.705,0.603,4.057,0.904
		c-1.333,0-2.667,0-4,0C213.008,512.697,212.989,512.396,212.943,512.096z"/>
	<path fill-rule="evenodd" clip-rule="evenodd" fill="#FECD83" d="M253,513c1,0,2,0,3,0C255,513,254,513,253,513z"/>
	<path fill-rule="evenodd" clip-rule="evenodd" fill="#FEC978" d="M465,264c0-0.667,0-1.333,0-2C465,262.667,465,263.333,465,264z"
		/>
	<path fill-rule="evenodd" clip-rule="evenodd" fill="#FECD81" d="M465,301c0-0.667,0-1.333,0-2C465,299.667,465,300.333,465,301z"
		/>
	<path fill-rule="evenodd" clip-rule="evenodd" fill="#FECD81" d="M212.943,512.096c0.046,0.3,0.064,0.602,0.057,0.904
		c-0.667,0-1.333,0-2,0C211.648,512.698,212.295,512.396,212.943,512.096z"/>
</g>
</svg>
