<?xml version="1.0" standalone="no"?><!DOCTYPE svg PUBLIC "-//W3C//DTD SVG 1.1//EN" "http://www.w3.org/Graphics/SVG/1.1/DTD/svg11.dtd"><svg t="1533629228614" class="icon" style="" viewBox="0 0 1024 1024" version="1.1" xmlns="http://www.w3.org/2000/svg" p-id="2231" xmlns:xlink="http://www.w3.org/1999/xlink" width="200" height="200"><defs><style type="text/css"></style></defs><path d="M512 249.719467A174.08 174.08 0 0 0 338.4832 423.253333a174.199467 174.199467 0 0 0 148.3776 171.690667v-18.568533a25.0368 25.0368 0 0 1 7.304533-17.834667 24.763733 24.763733 0 0 1 17.629867-7.287467h0.4096a24.763733 24.763733 0 0 1 17.629867 7.304534 25.053867 25.053867 0 0 1 7.304533 17.8688v18.517333A174.199467 174.199467 0 0 0 685.5168 423.253333 174.08 174.08 0 0 0 512 249.719467z" fill="#ff6b91" p-id="2232"></path><path d="M884.7872 27.835733H139.2128a111.377067 111.377067 0 0 0-111.377067 111.377067v745.5744a111.377067 111.377067 0 0 0 111.377067 111.377067h745.5744a111.377067 111.377067 0 0 0 111.377067-111.377067V139.2128a111.377067 111.377067 0 0 0-111.377067-111.377067z m-208.64 544.426667a221.986133 221.986133 0 0 1-139.008 71.594667v66.286933H624.64a24.746667 24.746667 0 0 1 17.6128 7.304533 25.2416 25.2416 0 0 1-18.176 43.008h-87.04v39.509334c-1.604267 14.574933-11.946667 24.7808-25.122133 24.797866h-0.238934a24.763733 24.763733 0 0 1-17.527466-7.2704 25.070933 25.070933 0 0 1-7.304534-17.885866v-39.099734h-85.8624a24.763733 24.763733 0 0 1-17.629866-7.304533 25.429333 25.429333 0 0 1 0-35.669333 24.746667 24.746667 0 0 1 17.6128-7.304534h85.879466v-66.286933a222.890667 222.890667 0 1 1 189.2864-71.594667z" fill="#ff6b91" p-id="2233"></path></svg>