<?xml version="1.0" standalone="no"?><!DOCTYPE svg PUBLIC "-//W3C//DTD SVG 1.1//EN" "http://www.w3.org/Graphics/SVG/1.1/DTD/svg11.dtd"><svg t="1545982123378" class="icon" style="" viewBox="0 0 1024 1024" version="1.1" xmlns="http://www.w3.org/2000/svg" p-id="13543" xmlns:xlink="http://www.w3.org/1999/xlink" width="200" height="200"><defs><style type="text/css"></style></defs><path d="M774.921 397.653c-19.982-22.016-42.273-42.09-60.785-65.23-10.884-13.605-19.24-30.743-23.728-47.622-7.976-30.002-11.443-61.168-18.057-91.574-15.36-70.622-75.316-102.287-141.893-75.245-15.717 6.384-31.958 12.416-46.144 21.458-46.738 29.787-96.198 37.822-149.931 24.405-13.554-3.385-28.151-2.587-42.268-3.703-80.29-5.085-124.672 42.157-115.269 122.771 3.118 26.708 5.649 53.515 9.817 80.062 3.671 23.378-0.3 44.347-11.42 65.286-13.922 26.217-26.317 53.312-38.186 80.545-31.358 71.94-0.14 131.565 76.034 146.058 18.066 3.437 36.132 7.548 54.392 9.17 43.98 3.901 81.392 19.316 110.63 53.957 12.679 15.021 28.71 27.292 43.653 40.313 60.526 52.746 125.993 45.09 161.06-27.012 36.882-75.834 87.938-129.783 164.718-166.685 76.095-36.573 83.746-104.848 27.377-166.954zM717.95 500.219c-32.674 19.737-66.295 37.99-100.153 55.651-18.294 9.543-31.579 22.033-41.028 40.789-16.537 32.821-34.789 64.829-53.422 96.531-18.301 31.133-29.19 33.055-55.833 9.825-25.596-22.315-50.792-45.196-74.784-69.207-17.741-17.759-36.873-28.585-62.615-31.281-33.67-3.529-67.023-10.66-100.282-17.385-34.239-6.922-40.598-18.557-26.637-50.464 15.301-34.975 33.598-68.674 48.069-103.965 6.054-14.765 8.523-32.371 7.539-48.373-2.251-36.663-8.738-73.054-11.422-109.706-2.598-35.497 5.957-43.43 43.672-42.625 32.945 3.678 69.699 6.51 105.972 12.344 19.382 3.117 35.78 0.126 52.905-8.499 32.834-16.54 66.095-32.313 99.715-47.195 33.537-14.847 46.81-8.19 54.264 27.122 7.009 33.192 13.351 66.593 18.112 100.167 3.145 22.164 12.213 39.614 28.046 55.298 26.131 25.887 51.568 52.572 75.876 80.169 19.918 22.613 18.042 35.076-7.994 50.804zM837.181 769.43c-31.355-32.354-62.768-64.704-95.405-95.745-17.842-16.967-38.989-16.594-52.64-2.455-13.488 13.968-13.071 34.594 4.059 52.682 30.005 31.684 61.089 62.374 92.439 92.738 6.703 6.494 35.265 19.08 53.96 0.386 12.417-12.416 9.44-35.375-2.413-47.606z" p-id="13544" fill="#989898"></path></svg>