<?xml version="1.0" standalone="no"?><!DOCTYPE svg PUBLIC "-//W3C//DTD SVG 1.1//EN" "http://www.w3.org/Graphics/SVG/1.1/DTD/svg11.dtd"><svg t="1540446469223" class="icon" style="" viewBox="0 0 1024 1024" version="1.1" xmlns="http://www.w3.org/2000/svg" p-id="19170" xmlns:xlink="http://www.w3.org/1999/xlink" width="200" height="200"><defs><style type="text/css"></style></defs><path d="M921.216567 331.817268c0 0-83.000366-220.352617-336.931752-263.036765 0 0-239.914138-53.743018-418.34497 156.969031 0 0-160.408363 175.893033-79.091336 425.14791 0 0 56.559157 204.937532 281.236266 282.500049 0 0 63.700811 25.622564 156.520823 23.370267 0 0 266.748297 5.403057 394.324904-263.818571C918.930501 692.949188 1005.233076 524.801561 921.216567 331.817268zM730.879568 542.354332 509.077949 790.828426c0 0-219.545228-245.211794-221.652216-247.747547l-0.543376-0.691755c-19.312858-23.542182-30.902824-53.441143-30.902824-85.990466 0-75.996858 63.008033-137.620357 140.749628-137.620357 45.786813 0 86.450954 21.403472 112.134917 54.511521 25.700335-33.108049 66.3655-54.511521 112.151289-54.511521 77.728292 0 140.733255 61.623499 140.733255 137.620357C761.747599 488.946958 750.190379 518.795776 730.879568 542.354332z" p-id="19171" fill="#42aaff"></path></svg>