<?xml version="1.0" encoding="utf-8"?>
<!-- Generator: Adobe Illustrator 16.0.0, SVG Export Plug-In . SVG Version: 6.00 Build 0)  -->
<!DOCTYPE svg PUBLIC "-//W3C//DTD SVG 1.1//EN" "http://www.w3.org/Graphics/SVG/1.1/DTD/svg11.dtd">
<svg version="1.1" id="图层_1" xmlns="http://www.w3.org/2000/svg" xmlns:xlink="http://www.w3.org/1999/xlink" x="0px" y="0px"
	 width="468px" height="468px" viewBox="0 0 468 468" enable-background="new 0 0 468 468" xml:space="preserve">
<g>
	<path fill-rule="evenodd" clip-rule="evenodd" fill="none" d="M234.928,469c-76.5,0-153-0.016-229.5,0.056
		c-3.13,0.003-4.563-0.029-4.559-4.128c0.156-153.333,0.148-306.667,0.028-460c-0.003-3.57,0.907-4.014,4.175-4.012
		c153.333,0.097,306.666,0.101,460-0.02c3.57-0.003,4.014,0.907,4.012,4.176c-0.097,153.333-0.101,306.666,0.02,460
		c0.003,3.57-0.907,4.018-4.176,4.013C388.261,468.976,311.595,469,234.928,469z M381.06,197.176
		c-10.406-6.535-20.068-12.673-29.798-18.701c-84.73-52.501-169.431-105.05-254.269-157.376
		c-9.997-6.166-20.311-12.36-31.285-16.277C47.15-1.804,31.051,6.49,25.054,25.19c-2.428,7.57-2.945,16.007-2.972,24.054
		c-0.221,67.824-0.125,135.65-0.125,203.477c0,57.496-0.002,114.992,0.006,172.489c0,2.498-0.115,5.021,0.17,7.492
		c1.565,13.593,5.534,25.93,19.234,32.131c9.59,4.342,19.624,3.377,28.504-1.335c12.892-6.84,25.285-14.679,37.568-22.593
		c88.413-56.961,176.745-114.046,265.095-171.105c2.693-1.739,5.294-3.622,8.526-5.843c0,3.126,0,5.282,0,7.439
		c-0.002,55.663-0.005,111.326,0,166.989c0,2.165-0.046,4.343,0.152,6.494c0.917,9.964,8.454,18.528,18.038,19.124
		c10.285,0.639,20.641,0.203,30.965,0.166c8.76-0.031,19.208-11.735,19.188-21.263c-0.308-138.49-0.317-276.981-0.006-415.472
		c0.024-10.755-11.567-22.356-21.468-21.71c-7.135,0.467-14.326,0.07-21.492,0.086c-17.606,0.037-25.378,7.753-25.38,25.214
		c-0.006,41.33,0.001,82.661,0.003,123.992C381.061,168.833,381.06,182.649,381.06,197.176z"/>
	<path fill-rule="evenodd" clip-rule="evenodd" fill="#FE9A01" d="M381.06,197.176c0-14.526,0.001-28.343,0-42.158
		c-0.002-41.331-0.009-82.662-0.003-123.992c0.002-17.461,7.773-25.177,25.38-25.214c7.166-0.016,14.357,0.381,21.492-0.086
		c9.9-0.646,21.492,10.955,21.468,21.71c-0.312,138.49-0.302,276.981,0.006,415.472c0.021,9.527-10.428,21.231-19.188,21.263
		c-10.324,0.037-20.68,0.473-30.965-0.166c-9.584-0.596-17.121-9.16-18.038-19.124c-0.198-2.151-0.152-4.329-0.152-6.494
		c-0.005-55.663-0.002-111.326,0-166.989c0-2.157,0-4.313,0-7.439c-3.232,2.221-5.833,4.104-8.526,5.843
		c-88.35,57.06-176.682,114.145-265.095,171.105c-12.283,7.914-24.677,15.753-37.568,22.593c-8.88,4.712-18.914,5.677-28.504,1.335
		c-13.7-6.201-17.668-18.538-19.234-32.131c-0.285-2.472-0.169-4.994-0.17-7.492c-0.008-57.497-0.006-114.993-0.006-172.489
		c0-67.826-0.095-135.652,0.125-203.477c0.026-8.047,0.544-16.483,2.972-24.054C31.051,6.49,47.15-1.804,65.708,4.821
		c10.974,3.917,21.288,10.111,31.285,16.277c84.838,52.326,169.539,104.875,254.269,157.376
		C360.991,184.503,370.653,190.641,381.06,197.176z"/>
</g>
</svg>
