<?xml version="1.0" encoding="utf-8"?>
<!-- Generator: Adobe Illustrator 16.0.0, SVG Export Plug-In . SVG Version: 6.00 Build 0)  -->
<!DOCTYPE svg PUBLIC "-//W3C//DTD SVG 1.1//EN" "http://www.w3.org/Graphics/SVG/1.1/DTD/svg11.dtd">
<svg version="1.1" id="图层_1" xmlns="http://www.w3.org/2000/svg" xmlns:xlink="http://www.w3.org/1999/xlink" x="0px" y="0px"
	 width="650px" height="650px" viewBox="0 0 650 650" enable-background="new 0 0 650 650" xml:space="preserve">
<g>
	<path fill-rule="evenodd" clip-rule="evenodd" fill="none" d="M651,541c0,35.5-0.047,71,0.084,106.5
		c0.012,2.983-0.603,3.582-3.584,3.581c-214.333-0.089-428.667-0.089-643,0c-2.981,0.001-3.595-0.598-3.584-3.581
		C1.046,612,1,576.5,1,541c0.78,0.98,1.734,1.868,2.313,2.955c5.559,10.429,16.568,15.545,27.649,12.777
		c10.994-2.746,18.214-12.035,18.229-23.793c0.045-34.973,0.059-69.946-0.028-104.92c-0.028-11.286-7.797-20.728-18.532-23.034
		c-11.195-2.406-22.185,2.756-27.224,12.754C2.675,419.194,1.806,420.581,1,422C1,283.213,1.014,144.427,0.922,5.64
		C0.92,2.146,1.298,0.885,5.357,0.888c213.762,0.127,427.523,0.127,641.285,0c4.06-0.003,4.438,1.259,4.436,4.752
		C650.986,144.093,651,282.547,651,421c-0.366-0.529-0.793-1.026-1.088-1.593c-6.194-11.873-17.133-17.297-28.688-14.208
		c-11.341,3.031-17.899,12.837-17.859,26.179c0.087,29.802,0.028,59.605,0.063,89.408c0.006,5.154-0.148,10.341,0.342,15.457
		c0.973,10.147,8.397,18.285,18.278,20.611c9.447,2.225,20.513-2.229,25.719-10.389C648.903,544.683,649.925,542.824,651,541z
		 M61.771,347.716c-0.126-0.015-0.253-0.03-0.379-0.045c0.841-8.436,1.495-16.894,2.555-25.302
		c6.956-55.191,29.448-103.424,66.893-144.274c43.391-47.337,97.229-75.495,161.048-84.239c28.789-3.944,57.438-3.075,85.862,2.63
		c54.248,10.887,100.927,36.088,139.239,76.013c45.926,47.857,70.833,105.065,74.118,171.474c0.245,4.961-0.357,10.002,0.269,14.898
		c1.207,9.453,9.809,16.386,18.83,15.796c10.25-0.671,17.691-8.289,17.654-18.664c-0.189-53.007-13.163-102.623-39.621-148.656
		c-29.84-51.918-71.465-91.498-124.58-119.001c-32.684-16.924-67.438-27.246-103.989-31.226
		c-23.558-2.565-47.128-2.249-70.717,0.638c-33.178,4.06-64.765,13.392-94.636,28.166c-50.539,24.997-91.226,61.23-121.681,108.776
		c-22.817,35.621-37.633,74.337-43.642,116.216c-2.027,14.131-2.328,28.502-3.734,42.732c-1.114,11.27,6.159,20.231,17.57,21.019
		c9.872,0.681,18.687-7.894,18.932-18.456C61.826,353.38,61.771,350.547,61.771,347.716z M67.007,480.344c0.009,0,0.018,0,0.027,0
		c0,22.645-0.046,45.289,0.016,67.934c0.044,15.854,6.357,28.865,19.057,38.228c15.189,11.197,31.955,12.93,48.963,4.849
		c16.461-7.82,26.449-21.491,26.716-39.694c0.69-47.123,0.558-94.267,0.097-141.395c-0.269-27.475-28.511-49.362-55.353-43.895
		c-24.095,4.907-39.39,23.414-39.501,48.04C66.928,436.388,67.007,458.365,67.007,480.344z M588.072,481.026
		c0.087,0,0.174,0,0.261,0c0-21.982-0.157-43.967,0.05-65.947c0.167-17.72-6.685-31.903-21.413-41.521
		c-15.604-10.19-32.456-10.854-48.775-1.975c-16.729,9.103-24.825,23.952-24.828,43.06c-0.006,43.802,0.041,87.604,0.027,131.405
		c-0.008,26.356,14.849,44.5,40.621,49.492c25.484,4.935,53.131-16.161,53.903-42.086
		C588.638,529.331,588.072,505.17,588.072,481.026z"/>
	<path fill-rule="evenodd" clip-rule="evenodd" fill="#FE9A01" d="M1,422c0.806-1.419,1.675-2.806,2.409-4.261
		c5.039-9.998,16.029-15.16,27.224-12.754c10.735,2.307,18.504,11.748,18.532,23.034c0.087,34.974,0.073,69.947,0.028,104.92
		c-0.015,11.758-7.235,21.047-18.229,23.793c-11.082,2.768-22.09-2.349-27.649-12.777C2.734,542.868,1.78,541.98,1,541
		C1,501.333,1,461.667,1,422z"/>
	<path fill-rule="evenodd" clip-rule="evenodd" fill="#FE9A01" d="M651,541c-1.075,1.824-2.097,3.683-3.234,5.466
		c-5.206,8.16-16.271,12.613-25.719,10.389c-9.881-2.326-17.306-10.464-18.278-20.611c-0.49-5.116-0.336-10.303-0.342-15.457
		c-0.034-29.803,0.024-59.606-0.063-89.408c-0.04-13.342,6.519-23.147,17.859-26.179c11.556-3.089,22.494,2.335,28.688,14.208
		c0.295,0.566,0.722,1.063,1.088,1.593C651,461,651,501,651,541z"/>
	<path fill-rule="evenodd" clip-rule="evenodd" fill="#FE9A01" d="M61.771,347.716c0,2.831,0.056,5.664-0.01,8.494
		c-0.245,10.563-9.06,19.137-18.932,18.456c-11.411-0.787-18.684-9.749-17.57-21.019c1.406-14.23,1.707-28.602,3.734-42.732
		c6.009-41.879,20.825-80.595,43.642-116.216c30.455-47.546,71.142-83.779,121.681-108.776
		c29.871-14.774,61.458-24.106,94.636-28.166c23.589-2.887,47.159-3.203,70.717-0.638c36.551,3.979,71.306,14.302,103.989,31.226
		c53.115,27.503,94.74,67.083,124.58,119.001c26.458,46.033,39.432,95.649,39.621,148.656c0.037,10.375-7.404,17.993-17.654,18.664
		c-9.021,0.59-17.623-6.343-18.83-15.796c-0.626-4.896-0.023-9.938-0.269-14.898c-3.285-66.408-28.192-123.616-74.118-171.474
		c-38.313-39.925-84.991-65.126-139.239-76.013c-28.424-5.705-57.073-6.574-85.862-2.63
		c-63.819,8.744-117.657,36.902-161.048,84.239c-37.445,40.851-59.937,89.083-66.893,144.274c-1.06,8.408-1.713,16.866-2.555,25.302
		C61.518,347.686,61.644,347.701,61.771,347.716z"/>
	<path fill-rule="evenodd" clip-rule="evenodd" fill="#FE9A01" d="M67.007,480.344c0-21.979-0.079-43.956,0.021-65.934
		c0.111-24.626,15.407-43.133,39.501-48.04c26.842-5.468,55.084,16.42,55.353,43.895c0.461,47.128,0.593,94.271-0.097,141.395
		c-0.267,18.203-10.255,31.874-26.716,39.694c-17.009,8.081-33.774,6.349-48.963-4.849c-12.7-9.362-19.013-22.374-19.057-38.228
		c-0.062-22.645-0.016-45.289-0.016-67.934C67.024,480.344,67.016,480.344,67.007,480.344z"/>
	<path fill-rule="evenodd" clip-rule="evenodd" fill="#FE9A01" d="M588.072,481.026c0,24.144,0.565,48.305-0.154,72.428
		c-0.772,25.925-28.419,47.021-53.903,42.086c-25.772-4.992-40.629-23.136-40.621-49.492c0.014-43.802-0.033-87.604-0.027-131.405
		c0.003-19.107,8.099-33.957,24.828-43.06c16.319-8.879,33.171-8.216,48.775,1.975c14.729,9.618,21.58,23.802,21.413,41.521
		c-0.207,21.98-0.05,43.965-0.05,65.947C588.246,481.026,588.159,481.026,588.072,481.026z"/>
</g>
</svg>
