<?xml version="1.0" encoding="utf-8"?>
<!-- Generator: Adobe Illustrator 16.0.0, SVG Export Plug-In . SVG Version: 6.00 Build 0)  -->
<!DOCTYPE svg PUBLIC "-//W3C//DTD SVG 1.1//EN" "http://www.w3.org/Graphics/SVG/1.1/DTD/svg11.dtd">
<svg version="1.1" id="图层_1" xmlns="http://www.w3.org/2000/svg" xmlns:xlink="http://www.w3.org/1999/xlink" x="0px" y="0px"
	 width="650px" height="666px" viewBox="0 0 650 666" enable-background="new 0 0 650 666" xml:space="preserve">
<g>
	<path fill-rule="evenodd" clip-rule="evenodd" fill="none" d="M295,667c-96.667,0-193.333-0.023-290,0.096
		C1.576,667.1,0.902,666.424,0.905,663C1.016,524.333,1,385.667,1,247c0.438,0.856,0.939,1.688,1.305,2.574
		c4.574,11.096,16.301,14.1,25.802,6.627c37.167-29.235,74.345-58.454,111.509-87.692c2.382-1.874,4.678-3.857,7.271-6.002
		c-18.241-8.431-35.875-16.582-55.099-25.468c6.803-6.321,12.964-12.127,19.211-17.839c62.012-56.697,134.78-85.062,219.04-82.705
		c37.339,1.044,73.042,9.919,107.151,24.836c51.049,22.325,92.285,56.905,125.355,101.592
		c31.813,42.988,49.41,91.184,53.375,144.356c1.938,25.998,0.164,51.855-4.812,77.49c-13.797,71.073-48.017,130.151-103.915,176.32
		c-44.127,36.447-94.815,58.551-151.364,66.786c-30.986,4.513-62.026,3.867-92.957-1.663
		c-60.203-10.763-112.221-37.354-155.914-80.118c-20.464-20.029-37.396-42.828-52.145-67.334
		c-5.387-8.95-17.712-12.044-25.751-7.066c-8.609,5.331-11.271,17.699-5.831,26.854c30.109,50.671,70.079,91.487,121.114,121.256
		c40.422,23.578,83.849,38.286,130.266,44.216C281.423,664.891,288.205,666.001,295,667z M342.974,275.287
		c0-34.485,0.027-68.971-0.021-103.456c-0.012-8.072-5.03-14.503-12.924-16.985c-5.92-1.863-13.196,0.658-17.11,7.168
		c-2.097,3.486-3.276,8.077-3.294,12.177c-0.232,56.642-0.25,113.284-0.11,169.925c0.012,4.679-0.943,6.11-5.911,6.092
		c-54.809-0.198-109.62-0.125-164.43-0.123c-2.166,0-4.338-0.08-6.496,0.062c-8.661,0.566-14.116,6.019-14.729,14.621
		c-0.792,11.116,7.435,19.044,19.976,19.049c66.639,0.029,133.277-0.022,199.916,0.111c4.118,0.008,5.252-1.012,5.23-5.184
		C342.898,344.259,342.974,309.773,342.974,275.287z M580.859,331.282c0-1.331-0.004-2.663,0-3.995
		c0.018-6.019-3.454-10.225-8.469-10.26c-5.195-0.036-8.185,3.759-8.402,10.174c-0.259,7.647-0.479,15.313-1.213,22.924
		c-3.338,34.604-12.696,67.497-28.716,98.402c-24.783,47.811-60.396,85.261-107.437,111.649
		c-37.13,20.828-77.121,31.02-119.602,31.818c-5.879,0.11-9.901,3.563-9.924,8.283c-0.024,4.874,4.322,8.477,10.336,8.425
		c3.157-0.027,6.312-0.311,9.469-0.42c38.992-1.355,76.225-10.43,110.451-28.941C525.744,526.125,574.11,441.49,580.859,331.282z"/>
	<path fill-rule="evenodd" clip-rule="evenodd" fill="#FE9A01" d="M295,667c-6.795-0.999-13.577-2.109-20.388-2.979
		c-46.417-5.93-89.844-20.638-130.266-44.216C93.311,590.036,53.341,549.22,23.232,498.549c-5.44-9.155-2.778-21.523,5.831-26.854
		c8.039-4.978,20.364-1.884,25.751,7.066c14.749,24.506,31.681,47.305,52.145,67.334c43.693,42.765,95.711,69.355,155.914,80.118
		c30.931,5.53,61.971,6.176,92.957,1.663c56.549-8.235,107.237-30.339,151.364-66.786c55.898-46.169,90.118-105.247,103.915-176.32
		c4.976-25.635,6.75-51.492,4.812-77.49c-3.965-53.173-21.562-101.368-53.375-144.356c-33.07-44.687-74.307-79.267-125.355-101.592
		c-34.109-14.917-69.813-23.792-107.151-24.836c-84.26-2.356-157.028,26.008-219.04,82.705
		c-6.247,5.712-12.408,11.518-19.211,17.839c19.223,8.886,36.858,17.037,55.099,25.468c-2.592,2.145-4.889,4.128-7.271,6.002
		c-37.164,29.238-74.342,58.457-111.509,87.692c-9.501,7.473-21.229,4.469-25.802-6.627C1.939,248.688,1.438,247.856,1,247
		c0-13,0-26,0-39c0.35-1.008,0.979-2.008,1.009-3.025c0.594-20.293,1.116-40.588,1.657-60.882c0.46-17.24,0.925-34.48,1.405-52.332
		c2.161,1.083,3.765,1.838,5.323,2.676c14.921,8.024,29.902,15.942,44.699,24.189c3.334,1.857,5.031,1.388,7.428-1.399
		c21.178-24.635,45.315-45.918,72.748-63.387c44.75-28.497,93.473-45.583,146.294-50.919C285.731,2.5,289.855,1.65,294,1
		c14,0,28,0,42,0c0.666,0.351,1.303,0.928,2.003,1.019c13.178,1.719,26.478,2.762,39.525,5.171
		c36.657,6.77,71.703,18.328,104.117,37.113c56.57,32.785,100.136,78.296,131.252,135.597
		c17.798,32.775,29.604,67.763,35.13,104.762c0.866,5.798,1.976,11.561,2.973,17.339c0,20.333,0,40.667,0,61
		c-0.354,0.667-0.901,1.298-1.032,2.007c-3.052,16.46-5.372,33.09-9.203,49.364c-11.208,47.619-32.394,90.507-63.354,128.403
		c-33.943,41.547-75.576,73.208-124.538,95.118c-32.183,14.4-65.78,23.742-100.938,27.246c-3.67,0.365-7.29,1.229-10.934,1.861
		C325.667,667,310.333,667,295,667z"/>
	<path fill-rule="evenodd" clip-rule="evenodd" fill="none" d="M651,302c-0.997-5.778-2.106-11.541-2.973-17.339
		c-5.525-36.999-17.332-71.986-35.13-104.762c-31.116-57.301-74.682-102.812-131.252-135.597
		c-32.414-18.785-67.46-30.344-104.117-37.113c-13.048-2.409-26.348-3.452-39.525-5.171C337.303,1.928,336.666,1.351,336,1
		c103.667,0,207.333,0.021,311-0.096c3.424-0.004,4.1,0.672,4.096,4.096C650.978,104,651,203,651,302z"/>
	<path fill-rule="evenodd" clip-rule="evenodd" fill="none" d="M341,667c3.644-0.633,7.264-1.496,10.934-1.861
		c35.158-3.504,68.756-12.846,100.938-27.246c48.962-21.91,90.595-53.571,124.538-95.118
		c30.961-37.896,52.146-80.784,63.354-128.403c3.831-16.274,6.151-32.904,9.203-49.364c0.131-0.709,0.679-1.34,1.032-2.007
		c0,99.919-0.024,199.837,0.098,299.756c0.005,3.61-0.75,4.346-4.347,4.341C544.834,666.977,442.917,667,341,667z"/>
	<path fill-rule="evenodd" clip-rule="evenodd" fill="none" d="M294,1c-4.145,0.65-8.269,1.5-12.437,1.921
		C228.742,8.257,180.019,25.343,135.27,53.84c-27.433,17.469-51.57,38.752-72.748,63.387c-2.396,2.787-4.094,3.257-7.428,1.399
		c-14.797-8.247-29.778-16.165-44.699-24.189c-1.559-0.838-3.163-1.593-5.323-2.676c-0.479,17.852-0.945,35.092-1.405,52.332
		c-0.541,20.294-1.063,40.589-1.657,60.882C1.979,205.992,1.35,206.992,1,208C1,140.333,1.033,72.667,0.903,5
		C0.897,1.575,1.576,0.9,5,0.904C101.333,1.023,197.667,1,294,1z"/>
	<path fill-rule="evenodd" clip-rule="evenodd" fill="#FE9A01" d="M342.974,275.287c0,34.486-0.075,68.972,0.098,103.456
		c0.021,4.172-1.112,5.191-5.23,5.184c-66.638-0.134-133.277-0.082-199.916-0.111c-12.541-0.005-20.768-7.933-19.976-19.049
		c0.612-8.603,6.067-14.055,14.729-14.621c2.157-0.142,4.33-0.062,6.496-0.062c54.81-0.002,109.621-0.075,164.43,0.123
		c4.968,0.019,5.923-1.413,5.911-6.092c-0.14-56.641-0.122-113.283,0.11-169.925c0.018-4.1,1.197-8.69,3.294-12.177
		c3.914-6.51,11.19-9.031,17.11-7.168c7.894,2.482,12.912,8.913,12.924,16.985C343.001,206.316,342.974,240.802,342.974,275.287z"/>
	<path fill-rule="evenodd" clip-rule="evenodd" fill="#FE9A01" d="M580.859,331.282c-6.749,110.208-55.115,194.843-153.506,248.06
		c-34.227,18.512-71.459,27.586-110.451,28.941c-3.157,0.109-6.312,0.393-9.469,0.42c-6.015,0.052-10.36-3.551-10.336-8.425
		c0.023-4.721,4.045-8.173,9.924-8.283c42.48-0.799,82.472-10.99,119.602-31.818c47.041-26.389,82.653-63.839,107.437-111.649
		c16.02-30.905,25.378-63.798,28.716-98.402c0.733-7.61,0.954-15.276,1.213-22.924c0.218-6.415,3.207-10.21,8.402-10.174
		c5.015,0.035,8.486,4.241,8.469,10.26C580.855,328.619,580.859,329.951,580.859,331.282z"/>
</g>
</svg>
