<?xml version="1.0" encoding="utf-8"?>
<!-- Generator: Adobe Illustrator 16.0.0, SVG Export Plug-In . SVG Version: 6.00 Build 0)  -->
<!DOCTYPE svg PUBLIC "-//W3C//DTD SVG 1.1//EN" "http://www.w3.org/Graphics/SVG/1.1/DTD/svg11.dtd">
<svg version="1.1" id="图层_1" xmlns="http://www.w3.org/2000/svg" xmlns:xlink="http://www.w3.org/1999/xlink" x="0px" y="0px"
	 width="200px" height="200px" viewBox="0 0 200 200" enable-background="new 0 0 200 200" xml:space="preserve">
<g>
	<path fill-rule="evenodd" clip-rule="evenodd" fill="#FE4A75" d="M87,1c9.333,0,18.666,0,28,0c4.436,0.991,8.852,2.077,13.31,2.956
		c15.985,3.152,31.179,8.265,43.833,18.94c15.25,12.866,21.947,30.389,25.867,49.285c1.023,4.934,1.994,9.879,2.99,14.818
		c0,11,0,22,0,33c-1.008,4.264-2.016,8.528-3.021,12.792c-5.393,22.862-15.587,42.756-37.438,53.728
		c-10.243,5.143-21.694,7.964-32.736,11.391c-5.098,1.582-10.526,2.093-15.805,3.09c-8.334,0-16.667,0-25,0
		c-0.854-0.356-1.68-0.904-2.567-1.039c-14.681-2.243-29.112-5.424-42.313-12.525C20.28,175.688,9.33,156.21,4.006,132.87
		C2.954,128.258,2,123.624,1,119c0-11.333,0-22.667,0-34c1.331-5.893,2.543-11.814,4.015-17.672
		C11.146,42.93,22.63,22.407,47.166,12.297c8.675-3.575,17.957-5.703,27.013-8.313C78.39,2.77,82.723,1.981,87,1z M163.899,90.169
		c0.095-4.862-2.325-7.232-7.136-8.066c-9.346-1.62-18.674-3.375-28.063-4.693c-4.188-0.587-6.366-2.62-7.949-6.389
		c-3.668-8.736-7.482-17.433-11.756-25.883c-1.252-2.475-3.957-5.121-6.508-5.82c-3.807-1.045-5.674,2.534-7.186,5.607
		c-4.258,8.655-8.624,17.26-12.72,25.991c-1.593,3.396-3.837,4.977-7.59,5.384c-9.263,1.004-18.53,2.139-27.697,3.768
		c-2.759,0.49-6.071,2.181-7.579,4.384c-2.252,3.289,0.599,6.124,2.958,8.612c6.873,7.248,13.857,14.404,20.401,21.941
		c1.57,1.809,2.515,5.086,2.175,7.464c-1.484,10.37-3.792,20.624-5.225,31c-0.345,2.499,0.763,6.238,2.577,7.682
		c1.559,1.24,5.451,0.803,7.663-0.252c8.854-4.223,17.51-8.877,26.123-13.584c2.993-1.635,5.426-1.542,8.339,0.209
		c8.271,4.971,16.584,9.898,25.133,14.361c2.303,1.201,5.842,1.605,8.209,0.734c3.434-1.266,3.243-4.948,2.742-8.245
		c-1.522-10.036-2.877-20.1-4.521-30.115c-0.539-3.284,0.157-5.679,2.588-8.014c7.443-7.15,14.744-14.451,21.994-21.799
		C162.314,92.983,163.285,91.056,163.899,90.169z"/>
	<path fill-rule="evenodd" clip-rule="evenodd" fill="none" d="M87,1c-4.277,0.981-8.61,1.77-12.821,2.983
		c-9.056,2.61-18.338,4.738-27.013,8.313C22.63,22.407,11.146,42.93,5.015,67.328C3.543,73.186,2.331,79.107,1,85
		C1,57.082,1,29.164,1,1C29.666,1,58.333,1,87,1z"/>
	<path fill-rule="evenodd" clip-rule="evenodd" fill="none" d="M201,87c-0.996-4.939-1.967-9.885-2.99-14.818
		c-3.92-18.896-10.617-36.419-25.867-49.285c-12.654-10.676-27.848-15.788-43.833-18.94C123.852,3.077,119.436,1.991,115,1
		c28.666,0,57.334,0,86,0C201,29.667,201,58.333,201,87z"/>
	<path fill-rule="evenodd" clip-rule="evenodd" fill="none" d="M112,201c5.278-0.997,10.707-1.508,15.805-3.09
		c11.042-3.427,22.493-6.248,32.736-11.391c21.851-10.972,32.045-30.865,37.438-53.728c1.006-4.264,2.014-8.528,3.021-12.792
		c0,27,0,54,0,81C171.334,201,141.666,201,112,201z"/>
	<path fill-rule="evenodd" clip-rule="evenodd" fill="none" d="M1,119c1,4.624,1.954,9.258,3.006,13.87
		c5.324,23.34,16.274,42.817,38.113,54.565c13.202,7.102,27.633,10.282,42.313,12.525c0.888,0.135,1.713,0.683,2.567,1.039
		c-28.582,0-57.163,0-86,0C1,173.667,1,146.334,1,119z"/>
	<path fill-rule="evenodd" clip-rule="evenodd" fill="none" d="M163.899,90.169c-0.614,0.887-1.585,2.814-3.028,4.277
		c-7.25,7.348-14.551,14.648-21.994,21.799c-2.431,2.335-3.127,4.729-2.588,8.014c1.645,10.016,2.999,20.079,4.521,30.115
		c0.501,3.297,0.691,6.979-2.742,8.245c-2.367,0.871-5.906,0.467-8.209-0.734c-8.549-4.463-16.862-9.391-25.133-14.361
		c-2.913-1.751-5.347-1.844-8.339-0.209c-8.613,4.707-17.269,9.361-26.123,13.584c-2.212,1.055-6.104,1.492-7.663,0.252
		c-1.813-1.443-2.922-5.183-2.577-7.682c1.434-10.376,3.741-20.63,5.225-31c0.34-2.378-0.605-5.655-2.175-7.464
		c-6.543-7.537-13.528-14.693-20.401-21.941c-2.359-2.488-5.21-5.323-2.958-8.612c1.508-2.203,4.82-3.894,7.579-4.384
		c9.167-1.629,18.434-2.764,27.697-3.768c3.753-0.407,5.997-1.988,7.59-5.384c4.096-8.731,8.462-17.336,12.72-25.991
		c1.512-3.073,3.379-6.652,7.186-5.607c2.551,0.699,5.256,3.346,6.508,5.82c4.273,8.45,8.088,17.146,11.756,25.883
		c1.583,3.769,3.762,5.802,7.949,6.389c9.389,1.318,18.717,3.073,28.063,4.693C161.574,82.937,163.994,85.307,163.899,90.169z"/>
</g>
</svg>
