<?xml version="1.0" standalone="no"?><!DOCTYPE svg PUBLIC "-//W3C//DTD SVG 1.1//EN" "http://www.w3.org/Graphics/SVG/1.1/DTD/svg11.dtd"><svg t="1537330967424" class="icon" style="" viewBox="0 0 1024 1024" version="1.1" xmlns="http://www.w3.org/2000/svg" p-id="3905" xmlns:xlink="http://www.w3.org/1999/xlink" width="200" height="200"><defs><style type="text/css"></style></defs><path d="M1024.296602 515.38359h-0.071668c-0.767869-71.667795-10.309924-266.225382-128.336544-385.961791C767.254936-1.085255 512.772835 0.255956 512.772835 0.255956S257.451196-0.757631 128.817742 129.749424C10.801361 249.496071 0.911205 443.715795 0.081906 515.38359H0l0.020477 5.057699-0.020477 5.180558h0.081906c0.860014 81.906051 10.913981 249.352735 128.735836 368.894617 128.633454 130.507055 383.944854 129.483229 383.944855 129.483229s254.49234 0.542628 383.115555-129.964427c117.821855-119.541882 127.527722-286.507368 128.326306-368.413419h0.081906l-0.010238-5.180558 0.020476-5.057699zM609.401499 832.339533c64.982214-126.544849 16.760026-297.288252-96.086037-376.153541 7.535357 33.909105-1.883839 122.439309-51.805577 178.012564 11.292797-57.457095-16.964791-94.181721-16.964791-94.181721s-9.27586 52.010343-45.222379 104.553075c-32.813612 47.955993-55.563018 98.870842-12.879726 187.708193l0.061429 0.040953-0.040953 0.020477-0.030714-0.06143c-135.923092-76.602635-171.69556-149.130443-151.229286-248.165097 15.101428-73.152342 70.889687-132.657088 75.640238-205.666096 21.131761 38.454891 23.629896 66.190328 25.994933 106.375485 67.203915-82.346296 136.916203-192.550889 121.835252-293.346523 0 0 127.445816 40.052059 178.97496 235.490136 30.438336-27.080188 27.592101-82.888924 12.51115-115.85611 45.232617 32.987662 304.936229 325.637984-40.758499 521.229635z" p-id="3906" fill="#ff4375"></path></svg>