<?xml version="1.0" standalone="no"?><!DOCTYPE svg PUBLIC "-//W3C//DTD SVG 1.1//EN" "http://www.w3.org/Graphics/SVG/1.1/DTD/svg11.dtd"><svg t="1547104894961" class="icon" style="" viewBox="0 0 1024 1024" version="1.1" xmlns="http://www.w3.org/2000/svg" p-id="2143" xmlns:xlink="http://www.w3.org/1999/xlink" width="32" height="32"><defs><style type="text/css"></style></defs><path d="M512 256.00000001a42.666667 42.666667 0 0 0 42.66666701-42.66666701l0-170.666666a42.666667 42.666667 0 0 0-85.33333402 0l0 170.666666a42.666667 42.666667 0 0 0 42.66666701 42.66666701z" fill="#D5D5D5" p-id="2144"></path><path d="M512 1024a42.666667 42.666667 0 0 0 42.66666701-42.666667l0-170.666666a42.666667 42.666667 0 0 0-85.33333402 0L469.33333299 981.333333a42.666667 42.666667 0 0 0 42.66666701 42.666667z" fill="#999999" p-id="2145"></path><path d="M767.99999999 512a42.666667 42.666667 0 0 0 42.66666701 42.66666701L981.333333 554.66666701a42.666667 42.666667 0 0 0 0-85.33333402l-170.666666 0a42.666667 42.666667 0 0 0-42.66666701 42.66666701z" fill="#BBBBBB" p-id="2146"></path><path d="M42.666667 554.66666701l170.666666 0a42.666667 42.666667 0 0 0 0-85.33333402l-170.666666 0a42.666667 42.666667 0 0 0 0 85.33333402z" fill="#E5E5E5" p-id="2147"></path><path d="M813.696 874.026667a42.624 42.624 0 1 0 60.330667-60.330667l-120.661334-120.661333a42.624 42.624 0 1 0-60.330666 60.330666L813.696 874.026667z" fill="#AAAAAA" p-id="2148"></path><path d="M270.634667 330.965333a42.624 42.624 0 1 0 60.330666-60.330666l-120.661333-120.661334a42.624 42.624 0 1 0-60.330667 60.330667l120.661334 120.661333z" fill="#DDDDDD" p-id="2149"></path><path d="M270.634667 693.034667l-120.661334 120.661333a42.624 42.624 0 1 0 60.330667 60.330667l120.661333-120.661334a42.624 42.624 0 1 0-60.330666-60.330666z" fill="#EEEEEE" p-id="2150"></path><path d="M753.365333 330.965333l120.661334-120.661333a42.624 42.624 0 1 0-60.330667-60.330667l-120.661333 120.661334a42.624 42.624 0 1 0 60.330666 60.330666z" fill="#CCCCCC" p-id="2151"></path></svg>