<?xml version="1.0" standalone="no"?><!DOCTYPE svg PUBLIC "-//W3C//DTD SVG 1.1//EN" "http://www.w3.org/Graphics/SVG/1.1/DTD/svg11.dtd"><svg t="1532409435635" class="icon" style="" viewBox="0 0 1024 1024" version="1.1" xmlns="http://www.w3.org/2000/svg" p-id="574" xmlns:xlink="http://www.w3.org/1999/xlink" width="200" height="200"><defs><style type="text/css"></style></defs><path d="M962.56 120.32H61.44C28.16 120.32 0 148.48 0 184.32v573.44C0 791.04 28.16 819.2 61.44 819.2H435.2v102.4h-125.44v25.6h399.36v-25.6h-125.44v-99.84h373.76c33.28 0 61.44-28.16 61.44-61.44V184.32c5.12-35.84-23.04-64-56.32-64zM563.2 921.6h-102.4v-99.84h102.4V921.6z m435.2-163.84c0 20.48-17.92 38.4-38.4 38.4H61.44c-20.48 0-38.4-17.92-38.4-38.4v-87.04h972.8v87.04z m0-112.64H25.6v-460.8c0-20.48 17.92-38.4 38.4-38.4h898.56c20.48 0 38.4 17.92 38.4 38.4v460.8z" fill="#ff9b49" p-id="575"></path><path d="M524.8 506.88v-248.32h-25.6v248.32l-104.96-81.92-15.36 17.92 133.12 107.52 133.12-107.52-15.36-17.92z" fill="#ff9b49" p-id="576"></path></svg>