<?xml version="1.0" standalone="no"?><!DOCTYPE svg PUBLIC "-//W3C//DTD SVG 1.1//EN" "http://www.w3.org/Graphics/SVG/1.1/DTD/svg11.dtd"><svg t="1533629510728" class="icon" style="" viewBox="0 0 1024 1024" version="1.1" xmlns="http://www.w3.org/2000/svg" p-id="3025" xmlns:xlink="http://www.w3.org/1999/xlink" width="200" height="200"><defs><style type="text/css"></style></defs><path d="M464.896 346.624c-117.248 0-212.48 95.232-212.48 212.48s95.232 212.48 212.48 212.48 212.48-95.232 212.48-212.48-95.232-212.48-212.48-212.48z" fill="#42a6ff" p-id="3026"></path><path d="M896 51.2H128c-42.496 0-76.8 34.304-76.8 76.8v768c0 42.496 34.304 76.8 76.8 76.8h768c42.496 0 76.8-34.304 76.8-76.8V128c0-42.496-34.304-76.8-76.8-76.8z m-76.8 318.976c0 12.8-10.752 23.552-23.552 23.552s-23.552-10.752-23.552-23.552V280.576l-116.224 102.4c43.008 46.592 69.12 108.032 69.12 176.128 0 143.36-116.736 260.096-260.096 260.096s-259.584-116.224-259.584-259.584 116.736-260.096 260.096-260.096c58.368 0 112.128 19.456 155.648 52.224l112.64-99.328h-102.912c-12.8 0-23.552-10.752-23.552-23.552s10.24-23.552 23.552-23.552h165.376c3.584 0 6.656 0.512 9.728 2.048 1.024 0.512 2.048 1.536 3.072 2.048 1.536 1.024 3.072 2.048 4.096 3.072l0.512 0.512 1.536 3.072c1.024 1.024 2.048 2.56 2.56 4.096 0.512 1.024 0.512 2.048 0.512 3.072 0.512 1.536 1.024 3.072 1.024 5.12v141.824z" fill="#42a6ff" p-id="3027"></path></svg>