<?xml version="1.0" standalone="no"?><!DOCTYPE svg PUBLIC "-//W3C//DTD SVG 1.1//EN" "http://www.w3.org/Graphics/SVG/1.1/DTD/svg11.dtd"><svg t="1531125685785" class="icon" style="" viewBox="0 0 1024 1024" version="1.1" xmlns="http://www.w3.org/2000/svg" p-id="7984" xmlns:xlink="http://www.w3.org/1999/xlink" width="200" height="200"><defs><style type="text/css"></style></defs><path d="M36.8 259.2c-15.2 0-27.2-11.2-27.2-24 0-13.6 12-24 27.2-24h97.6c15.2 0 27.2 11.2 27.2 24 0 13.6-12 24-27.2 24H36.8zM36.8 536c-15.2 0-27.2-11.2-27.2-24s12-24 27.2-24h97.6c15.2 0 27.2 11.2 27.2 24s-12 24-27.2 24H36.8zM36.8 813.6c-15.2 0-27.2-11.2-27.2-24 0-13.6 12-24 27.2-24h97.6c15.2 0 27.2 11.2 27.2 24 0 13.6-12 24-27.2 24H36.8zM280 259.2c-15.2 0-27.2-11.2-27.2-24 0-13.6 12-24 27.2-24h707.2c15.2 0 27.2 11.2 27.2 24 0 13.6-12 24-27.2 24H280zM286.4 536c-15.2 0-27.2-11.2-27.2-24 0-13.6 12-24 27.2-24h707.2c15.2 0 27.2 11.2 27.2 24 0 13.6-12 24-27.2 24H286.4zM289.6 813.6c-15.2 0-27.2-11.2-27.2-24 0-13.6 12-24 27.2-24h707.2c15.2 0 27.2 11.2 27.2 24 0 13.6-12 24-27.2 24H289.6z" fill="#ff9b01" p-id="7985"></path></svg>