<?xml version="1.0" standalone="no"?><!DOCTYPE svg PUBLIC "-//W3C//DTD SVG 1.1//EN" "http://www.w3.org/Graphics/SVG/1.1/DTD/svg11.dtd"><svg t="1540447147517" class="icon" style="" viewBox="0 0 1024 1024" version="1.1" xmlns="http://www.w3.org/2000/svg" p-id="28035" xmlns:xlink="http://www.w3.org/1999/xlink" width="200" height="200"><defs><style type="text/css"></style></defs><path d="M19.964472 295.552717c13.309648-13.821558 29.690754-20.476382 48.631407-20.476382h68.595879v319.943466H68.595879c-18.940653 0-34.809849-6.654824-48.631407-20.476382-13.309648-13.821558-19.964472-30.202663-19.964472-50.167135V345.719852c0-19.964472 6.654824-36.345578 19.964472-50.167135zM846.698388 0.692818c25.595477-3.071457 48.119497 4.095276 67.57206 20.988292 19.452563 16.893015 36.345578 41.976583 50.167136 75.250703 13.821558 32.762211 25.083568 69.619698 33.78603 110.572462 8.702462 40.440854 15.357286 82.929346 19.452563 127.465477 4.607186 44.53613 6.654824 86.512713 6.654824 126.953567s-2.559548 80.369799-8.190553 120.810653c-5.631005 40.440854-13.309648 77.810251-24.059749 113.132009-10.7501 35.321759-23.03593 66.036331-36.857487 92.655628-14.333467 26.619296-29.690754 46.071859-47.095678 59.381507-17.404925 12.797739-35.833668 17.404925-55.798141 13.821558-19.964472-3.583367-40.952764-18.428744-62.452964-44.53613-20.988291-25.595477-49.655226-47.095678-85.488894-64.500603-35.833668-16.893015-75.250703-31.738392-117.739196-43.000402-42.488492-11.77392-85.488894-20.988291-129.001205-28.666935-43.512311-7.166734-83.441256-13.821558-119.786834-19.452562-36.345578-5.631005-66.548241-11.26201-90.607989-16.381106-24.059749-5.119095-37.881306-11.77392-40.952764-19.452562V269.44533c3.071457-10.7501 14.333467-19.452563 34.297939-26.107387 19.964472-6.654824 45.55995-13.309648 76.274523-19.452563 30.714573-6.142915 65.524422-12.797739 104.429547-19.964472 38.905125-7.166734 78.32216-16.893015 118.763015-29.690754 40.440854-12.285829 79.857889-28.666935 118.251105-47.607587 38.393216-19.452563 73.203065-44.024221 104.429547-74.738794 30.202663-30.714573 58.357688-48.119497 83.953165-51.190955zM382.90834 779.307237c4.095276 9.726281 10.238191 21.500201 17.404925 34.29794s15.869196 27.131206 26.107386 41.976583c12.285829 18.428744 25.083568 37.369397 37.369397 57.333869 12.797739 19.964472 22.52402 38.393216 28.666935 54.774321 6.654824 16.381105 8.702462 29.690754 6.142914 40.440854-2.559548 10.7501-12.797739 15.869196-31.226482 15.869196h-61.429145c-14.333467 0-28.155025-3.071457-40.440854-8.702462-12.285829-5.631005-24.059749-14.333467-35.321759-26.107387s-23.03593-26.619296-34.809849-45.04804c-11.77392-18.428744-25.083568-39.928945-38.393216-65.012512-16.893015-28.666935-28.155025-54.262412-34.809849-75.762613-6.654824-21.500201-10.7501-39.417035-13.309648-54.262412-3.071457-16.893015-3.071457-31.226482 0-43.000402 5.631005 0.51191 12.797739 2.047638 20.476381 4.607186 6.654824 1.535729 14.333467 3.583367 24.059749 5.631005 9.214372 2.047638 20.476382 4.607186 32.762211 6.654824 12.285829 3.071457 23.547839 5.631005 33.27412 8.702462 9.726281 2.559548 18.428744 5.631005 26.619297 8.702463 8.702462 3.071457 16.893015 6.142915 24.059748 9.214372 3.583367 9.214372 7.678643 18.940653 12.797739 29.690753z" fill="#42aaff" p-id="28036"></path></svg>