<?xml version="1.0" encoding="utf-8"?>
<!-- Generator: Adobe Illustrator 16.0.0, SVG Export Plug-In . SVG Version: 6.00 Build 0)  -->
<!DOCTYPE svg PUBLIC "-//W3C//DTD SVG 1.1//EN" "http://www.w3.org/Graphics/SVG/1.1/DTD/svg11.dtd">
<svg version="1.1" id="图层_1" xmlns="http://www.w3.org/2000/svg" xmlns:xlink="http://www.w3.org/1999/xlink" x="0px" y="0px"
	 width="512px" height="512px" viewBox="0 0 512 512" enable-background="new 0 0 512 512" xml:space="preserve">
<g>
	<path fill-rule="evenodd" clip-rule="evenodd" fill="none" d="M196,1c104.333,0,208.667,0.021,313-0.096
		c3.424-0.004,4.1,0.672,4.096,4.096C512.979,108.667,513,212.333,513,316c-2.849-2.273-4.328-5.878-8.368-7.105
		c-6.421-1.95-11.536,1.178-16.621,3.714c-16.608,8.284-34.055,14.327-52.156,17.748c-22.077,4.172-44.393,4.387-66.822,1.366
		c-23.182-3.122-45.203-9.719-66.139-19.841c-16.73-8.09-32.137-18.293-46.24-30.563c-13.457-11.707-25.552-24.537-35.867-39.057
		c-7.055-9.931-13.165-20.394-18.535-31.361c-6.284-12.833-11.177-26.109-14.75-39.901c-3.767-14.539-5.911-29.296-6.681-44.326
		c-0.775-15.121-0.044-30.169,2.481-44.985c3.677-21.576,11.526-41.903,21.107-61.54c2.214-4.539,2.108-8.527-0.551-13.07
		C201.891,3.72,198.131,3.597,196,1z"/>
	<path fill-rule="evenodd" clip-rule="evenodd" fill="#FE9A01" d="M196,1c2.131,2.597,5.891,2.72,7.856,6.077
		c2.659,4.543,2.766,8.531,0.551,13.07c-9.581,19.637-17.43,39.964-21.107,61.54c-2.525,14.816-3.256,29.864-2.481,44.985
		c0.771,15.03,2.915,29.787,6.681,44.326c3.574,13.792,8.466,27.068,14.75,39.901c5.371,10.968,11.48,21.431,18.535,31.361
		c10.315,14.52,22.41,27.35,35.867,39.057c14.104,12.271,29.51,22.474,46.24,30.563c20.936,10.122,42.957,16.719,66.139,19.841
		c22.43,3.021,44.745,2.806,66.822-1.366c18.102-3.421,35.548-9.464,52.156-17.748c5.085-2.536,10.2-5.664,16.621-3.714
		c4.04,1.228,5.52,4.832,8.368,7.105c0,3.333,0,6.667,0,10c-3.744,8.376-6.286,17.199-9.718,25.713
		c-9.393,23.303-22.039,44.616-37.709,64.102c-21.065,26.193-46.034,47.859-75.564,64.265
		c-26.308,14.615-53.996,24.807-83.799,29.506c-7.06,1.112-14.364,0.953-21.21,3.415c-14,0-28,0-42,0
		c-5.166-1.858-10.662-1.577-15.989-2.384c-16.265-2.465-32.15-6.173-47.809-11.379c-18.161-6.038-35.212-14.133-51.563-23.942
		c-14.951-8.971-28.654-19.492-41.612-31.175c-21.445-19.336-38.864-41.795-52.881-66.87c-9.696-17.345-17.32-35.665-22.447-54.937
		c-2.89-10.861-5.404-21.771-6.938-32.957C3.016,283.923,3.399,278.187,1,273c0-14.667,0-29.333,0-44
		c0.761-0.215,0.93-0.79,0.983-1.496c2.335-31.124,10.654-60.671,24.14-88.714c8.429-17.529,19.073-33.69,31.306-48.905
		c14.643-18.212,31.279-34.189,50.125-47.908c17.305-12.596,35.718-23.253,55.72-31.007C172.138,7.533,181.088,4.316,190,1
		C192,1,194,1,196,1z M476.656,346.721c-94.603,28.11-179.973,11.691-250.465-58.78c-70.62-70.599-86.983-155.993-58.589-250.594
		c-50.433,22.047-89.512,57.7-115.055,107.03c-25.323,48.905-31.612,100.932-20.58,155.038
		c18.635,91.394,98.96,180.503,219.542,187.452C351.035,492.603,441.254,432.384,476.656,346.721z"/>
	<path fill-rule="evenodd" clip-rule="evenodd" fill="none" d="M1,273c2.399,5.187,2.016,10.923,2.761,16.356
		c1.534,11.186,4.047,22.096,6.938,32.957c5.127,19.271,12.751,37.592,22.447,54.937c14.017,25.075,31.437,47.534,52.881,66.87
		c12.958,11.683,26.662,22.204,41.612,31.175c16.351,9.81,33.402,17.904,51.563,23.942c15.659,5.206,31.543,8.914,47.809,11.379
		c5.327,0.807,10.823,0.525,15.989,2.384c-79.251,0-158.502-0.03-237.753,0.098c-3.601,0.006-4.351-0.736-4.345-4.343
		C1.031,430.17,1,351.585,1,273z"/>
	<path fill-rule="evenodd" clip-rule="evenodd" fill="none" d="M190,1c-8.912,3.316-17.862,6.533-26.727,9.97
		c-20.002,7.754-38.416,18.411-55.72,31.007C88.707,55.695,72.071,71.673,57.428,89.885C45.195,105.1,34.552,121.261,26.123,138.79
		c-13.486,28.043-21.804,57.59-24.14,88.714C1.93,228.21,1.761,228.785,1,229C1,154.423,1.03,79.846,0.907,5.269
		C0.901,1.729,1.554,0.888,5.222,0.896C66.814,1.042,128.407,1,190,1z"/>
	<path fill-rule="evenodd" clip-rule="evenodd" fill="none" d="M285,513c6.846-2.462,14.15-2.303,21.21-3.415
		c29.803-4.699,57.491-14.891,83.799-29.506c29.53-16.405,54.499-38.071,75.564-64.265c15.67-19.485,28.316-40.799,37.709-64.102
		c3.432-8.514,5.974-17.337,9.718-25.713c0,61-0.037,122,0.097,183c0.008,3.425-0.673,4.102-4.097,4.097
		C434.333,512.97,359.667,513,285,513z"/>
	<path fill-rule="evenodd" clip-rule="evenodd" fill="none" d="M476.656,346.721c-35.402,85.663-125.621,145.882-225.146,140.146
		c-120.583-6.949-200.907-96.059-219.542-187.452c-11.032-54.106-4.743-106.133,20.58-155.038
		c25.543-49.33,64.623-84.983,115.055-107.03c-28.394,94.601-12.031,179.995,58.589,250.594
		C296.684,358.412,382.054,374.831,476.656,346.721z"/>
</g>
</svg>
