<?xml version="1.0" encoding="utf-8"?>
<!-- Generator: Adobe Illustrator 16.0.0, SVG Export Plug-In . SVG Version: 6.00 Build 0)  -->
<!DOCTYPE svg PUBLIC "-//W3C//DTD SVG 1.1//EN" "http://www.w3.org/Graphics/SVG/1.1/DTD/svg11.dtd">
<svg version="1.1" id="图层_1" xmlns="http://www.w3.org/2000/svg" xmlns:xlink="http://www.w3.org/1999/xlink" x="0px" y="0px"
	 width="813.84px" height="813.84px" viewBox="0 0 813.84 813.84" enable-background="new 0 0 813.84 813.84" xml:space="preserve">
<g>
	<g>
		<defs>
			<rect id="SVGID_1_" width="813.84" height="813.84"/>
		</defs>
		<clipPath id="SVGID_2_">
			<use xlink:href="#SVGID_1_"  overflow="visible"/>
		</clipPath>
		<path clip-path="url(#SVGID_2_)" fill="#656565" d="M801.32,210.62C788.629,106.636,706.43,24.507,602.422,11.933
			c-129.762-15.684-261.84-15.684-391.625,0C106.793,24.507,24.594,106.613,11.926,210.62C3.992,275.492,0,340.96,0,406.527
			c0,65.562,3.992,131.035,11.926,195.901c12.668,103.984,94.863,186.091,198.871,198.688c129.785,15.683,261.863,15.683,391.625,0
			c104.008-12.598,186.203-94.704,198.895-198.688c7.914-64.866,11.902-130.34,11.902-195.901
			C813.219,340.96,809.23,275.492,801.32,210.62L801.32,210.62z M776.727,590.202c-11.902,97.536-88.973,174.536-186.508,186.325
			c-121.688,14.707-245.531,14.707-367.215,0c-97.535-11.789-174.606-88.789-186.508-186.301
			c-7.434-60.953-11.164-122.298-11.16-183.699c0-61.485,3.734-122.871,11.16-183.703c11.899-97.512,88.973-174.512,186.508-186.321
			c121.684-14.711,245.527-14.711,367.215,0c97.535,11.809,174.605,88.809,186.508,186.324c7.434,60.95,11.16,122.297,11.16,183.7
			C787.887,467.921,784.16,529.261,776.727,590.202L776.727,590.202z"/>
		<path clip-path="url(#SVGID_2_)" d="M776.727,590.202"/>
	</g>
</g>
<g>
	<g>
		<defs>
			<rect id="SVGID_3_" x="98.595" y="97.966" width="611.269" height="612.643"/>
		</defs>
		<clipPath id="SVGID_4_">
			<use xlink:href="#SVGID_3_"  overflow="visible"/>
		</clipPath>
		<path clip-path="url(#SVGID_4_)" fill="#656565" d="M709.875,409.536c0,24.192-25.838,43.951-57.329,43.951H155.925
			c-31.532,0-57.33-19.796-57.33-43.951c0-24.118,25.797-43.875,57.33-43.875h496.621
			C684.037,365.584,709.875,385.381,709.875,409.536L709.875,409.536z M709.875,409.536"/>
	</g>
	<path fill="#656565" d="M409.471,98.354c24.155,0,43.951,25.797,43.951,57.33v496.848c0,31.533-19.796,57.329-43.951,57.329
		s-43.951-25.796-43.951-57.329V155.684C365.52,124.151,385.315,98.354,409.471,98.354L409.471,98.354z M409.471,98.354"/>
</g>
</svg>
