<?xml version="1.0" standalone="no"?><!DOCTYPE svg PUBLIC "-//W3C//DTD SVG 1.1//EN" "http://www.w3.org/Graphics/SVG/1.1/DTD/svg11.dtd"><svg t="1540447051644" class="icon" style="" viewBox="0 0 1024 1024" version="1.1" xmlns="http://www.w3.org/2000/svg" p-id="25015" xmlns:xlink="http://www.w3.org/1999/xlink" width="200" height="200"><defs><style type="text/css"></style></defs><path d="M1004.84788 916.74813c0 15.321696-2.553616 28.089776-7.660848 40.857855-5.107232 12.76808-12.76808 22.982544-20.428928 33.197007-10.214464 10.214464-20.428928 17.875312-33.197007 22.982544-12.76808 5.107232-25.53616 7.660848-40.857855 7.660848L128.957606 1021.446384c-15.321696 0-28.089776-2.553616-40.857855-7.660848-12.76808-5.107232-25.53616-12.76808-35.750623-22.982544C42.134663 983.142145 34.473815 972.927681 26.812968 960.159601c-5.107232-12.76808-7.660848-25.53616-7.660848-40.857855L19.15212 337.077307c0-30.643392 10.214464-53.625935 30.643392-74.054863 20.428928-20.428928 45.965087-30.643392 74.054863-30.643392l773.745636 0c30.643392 0 53.625935 10.214464 74.054863 30.643392 20.428928 20.428928 30.643392 45.965087 30.643392 74.054863l0 158.32419L741.825436 495.401496c-30.643392 0-53.625935 10.214464-74.054863 30.643392-20.428928 20.428928-30.643392 45.965087-30.643392 74.054863 0 20.428928 5.107232 38.304239 12.76808 53.625935 5.107232 12.76808 15.321696 25.53616 30.643392 35.750623 15.321696 10.214464 35.750623 15.321696 61.286783 15.321696l263.022444 0L1004.84788 916.74813 1004.84788 916.74813 1004.84788 916.74813zM846.523691 176.199501 317.925187 176.199501c40.857855-22.982544 81.715711-43.411471 117.466334-63.840399 33.197007-17.875312 63.840399-33.197007 97.037406-51.072319 30.643392-17.875312 56.179551-30.643392 74.054863-40.857855 28.089776-15.321696 51.072319-20.428928 71.501247-20.428928 20.428928 0 38.304239 5.107232 53.625935 10.214464 17.875312 7.660848 30.643392 20.428928 43.411471 33.197007L846.523691 176.199501 846.523691 176.199501zM688.199501 600.099751c0-15.321696 5.107232-28.089776 15.321696-38.304239 10.214464-10.214464 22.982544-15.321696 38.304239-15.321696 15.321696 0 28.089776 5.107232 38.304239 15.321696 10.214464 10.214464 15.321696 22.982544 15.321696 38.304239 0 15.321696-5.107232 28.089776-15.321696 38.304239-10.214464 10.214464-22.982544 15.321696-38.304239 15.321696-15.321696 0-28.089776-5.107232-38.304239-15.321696C693.306733 628.189526 688.199501 615.421446 688.199501 600.099751L688.199501 600.099751 688.199501 600.099751zM688.199501 600.099751" p-id="25016" fill="#ff658d"></path></svg>