<?xml version="1.0" standalone="no"?><!DOCTYPE svg PUBLIC "-//W3C//DTD SVG 1.1//EN" "http://www.w3.org/Graphics/SVG/1.1/DTD/svg11.dtd"><svg t="1532324219456" class="icon" style="" viewBox="0 0 1024 1024" version="1.1" xmlns="http://www.w3.org/2000/svg" p-id="1764" xmlns:xlink="http://www.w3.org/1999/xlink" width="200" height="200"><defs><style type="text/css"></style></defs><path d="M383.590422 421.678902l246.02123 0 3.474125 0c-3.693112-9.732665-7.455809-23.49204-7.455809-39.139415 0-15.644305 3.762697-29.404704 7.455809-39.137369L383.590422 343.402117c-21.016663 0-38.115086 17.556864-38.115086 39.137369C345.475336 404.119991 362.573759 421.678902 383.590422 421.678902zM593.169671 519.52437c-5.134951-10.248412-10.45205-24.414039-10.45205-39.139415 0-14.724353 5.316076-28.889981 10.45205-39.138392L383.590422 441.246563l-46.523593 0c-21.86396 0-39.651069 17.557888-39.651069 39.138392 0 21.580504 17.786085 39.139415 39.651069 39.139415l71.803349 0L593.169671 519.52437zM610.243535 539.092032 408.870178 539.092032c-21.829168 0-39.584554 17.558911-39.584554 39.139415s17.756409 39.138392 39.584554 39.138392l255.581979 0c-5.086855-10.114358-10.273994-24.113187-10.273994-39.138392 0-15.026228 5.187139-29.024034 10.273994-39.139415L610.243535 539.092032zM510.282892 64.072271c-220.568535 0-399.37492 178.806385-399.37492 399.375943s178.805362 399.375943 399.37492 399.375943 399.376966-178.806385 399.376966-399.375943S730.851427 64.072271 510.282892 64.072271zM689.22947 621.09979l12.248975 15.836687L408.870178 636.936477c-32.42755 0-58.810431-26.333762-58.810431-58.706053 0-15.044648 5.745864-28.739555 15.10093-39.139415l-28.094872 0c-32.464389 0-58.874899-26.332738-58.874899-58.707077 0-32.372292 26.41051-58.706053 58.874899-58.706053l3.908006 0c-9.119705-10.398838-14.72333-24.093744-14.72333-39.139415 0-32.372292 25.723871-58.706053 57.338916-58.706053L665.531745 323.83241l-9.109472 14.944364c-0.103354 0.166799-11.5695 19.497053-11.5695 43.76169 0 24.266683 11.466146 43.595914 11.58178 43.787272l8.970302 14.896268-17.151635 0.023536-32.939203 0c-4.516874 7.173376-13.372565 23.257703-13.372565 39.138392 0 15.878642 8.852622 31.961946 13.374612 39.139415l86.161359 0-12.248975 15.836687c-0.145309 0.191358-15.827477 20.897959-15.827477 42.87039C673.40097 600.025822 689.068811 620.895129 689.22947 621.09979z" p-id="1765" fill="#ff7b7b"></path></svg>