<?xml version="1.0" standalone="no"?><!DOCTYPE svg PUBLIC "-//W3C//DTD SVG 1.1//EN" "http://www.w3.org/Graphics/SVG/1.1/DTD/svg11.dtd"><svg t="1533631787154" class="icon" style="" viewBox="0 0 1792 1024" version="1.1" xmlns="http://www.w3.org/2000/svg" p-id="3932" xmlns:xlink="http://www.w3.org/1999/xlink" width="350" height="200"><defs><style type="text/css"></style></defs><path d="M1433.42933333 160.768H345.42933333c-70.656 0-128 57.856-128 128v448c0 70.656 57.856 128 128 128h1088c70.656 0 128-57.856 128-128V288.768c0-70.656-57.856-128-128-128zM622.93333333 685.056c0 17.92-9.728 34.304-23.552 40.448-3.584 1.536-7.68 2.56-11.264 2.56-10.24 0-20.992-6.656-28.16-17.92L413.52533333 470.016v215.04c0 23.552-15.36 43.008-34.816 43.008s-34.816-19.968-34.816-43.008V341.504c0-17.92 9.728-34.304 23.552-40.448 14.848-6.144 30.208 0 38.912 15.36l146.944 239.104V341.504c0-23.552 15.36-42.496 34.816-42.496s34.816 18.944 34.816 42.496v343.552z m244.736-216.064c19.456 0 34.816 18.944 34.816 43.008s-15.36 43.008-34.816 43.008h-104.96v86.528h104.96c19.456 0 34.816 18.944 34.816 43.008s-15.36 43.008-34.816 43.008H727.89333333c-19.456 0-34.816-18.944-34.816-43.008V339.968c0-24.064 15.36-43.008 34.816-43.008h139.776c19.456 0 34.816 18.944 34.816 43.008s-15.36 43.008-34.816 43.008h-104.96v86.528h104.96z m582.144-117.76l-103.424 338.432c-5.12 16.384-17.408 27.648-32.256 27.648-13.824 0-27.136-11.264-32.256-27.648l-71.168-232.96-71.168 232.96c-9.728 32.768-54.272 32.768-64.512 0l-103.424-338.432c-6.144-21.504 2.048-45.568 20.48-54.272s37.888 2.56 44.032 25.088l71.168 232.96L1178.45333333 322.048c9.728-32.768 54.272-32.768 64.512 0l71.168 232.96 71.168-232.96c6.144-22.528 26.624-32.768 44.032-25.088 18.432 7.168 27.648 31.744 20.48 54.272z" fill="#ff9c4a" p-id="3933"></path></svg>