<?xml version="1.0" encoding="utf-8"?>
<!-- Generator: Adobe Illustrator 16.0.0, SVG Export Plug-In . SVG Version: 6.00 Build 0)  -->
<!DOCTYPE svg PUBLIC "-//W3C//DTD SVG 1.1//EN" "http://www.w3.org/Graphics/SVG/1.1/DTD/svg11.dtd">
<svg version="1.1" id="图层_1" xmlns="http://www.w3.org/2000/svg" xmlns:xlink="http://www.w3.org/1999/xlink" x="0px" y="0px"
	 width="200px" height="200px" viewBox="0 0 200 200" enable-background="new 0 0 200 200" xml:space="preserve">
<g>
	<g>
		<path fill-rule="evenodd" clip-rule="evenodd" fill="#F78E27" d="M201,87c0,11,0,22,0,33c-1.006,4.261-2.015,8.521-3.02,12.783
			c-5.389,22.869-15.588,42.766-37.442,53.74c-10.243,5.145-21.698,7.962-32.743,11.388c-5.094,1.581-10.52,2.093-15.795,3.089
			c-8.334,0-16.667,0-25,0c-0.851-0.355-1.673-0.903-2.558-1.037c-14.693-2.233-29.133-5.423-42.341-12.535
			C20.252,175.662,9.31,156.166,3.984,132.806C3.01,128.532,1.996,124.269,1,120c0-11.667,0-23.333,0-35
			c1.331-5.89,2.541-11.81,4.012-17.664c6.131-24.404,17.612-44.933,42.158-55.041c8.677-3.573,17.96-5.702,27.018-8.313
			C78.395,2.77,82.725,1.98,87,1c9.333,0,18.666,0,28,0c4.433,0.99,8.846,2.081,13.301,2.953c15.828,3.1,30.847,8.201,43.473,18.605
			c14.109,11.626,20.994,27.506,25.172,44.772C198.519,73.834,199.661,80.44,201,87z M77.906,41.247
			C61.14,41,45.728,54.051,43.827,70.78c-1.339,11.785-0.884,24.138,6.881,33.447c14.496,17.379,30.129,33.829,45.681,50.295
			c8.119,8.596,19.234,8.648,28.204,0.824c9.037-7.884,17.957-15.909,26.726-24.091c10.74-10.021,11.089-21.085,1.232-31.943
			c-12.092-13.321-24.71-26.201-36.206-40.017C106.121,47.011,93.235,41.897,77.906,41.247z"/>
		<path fill-rule="evenodd" clip-rule="evenodd" fill="none" d="M201,87c-1.339-6.56-2.481-13.166-4.055-19.669
			c-4.178-17.267-11.063-33.146-25.172-44.772c-12.626-10.404-27.645-15.506-43.473-18.605C123.846,3.081,119.433,1.99,115,1
			c28.666,0,57.334,0,86,0C201,29.667,201,58.333,201,87z"/>
		<path fill-rule="evenodd" clip-rule="evenodd" fill="none" d="M87,1c-4.275,0.98-8.605,1.77-12.813,2.982
			c-9.058,2.61-18.341,4.739-27.018,8.313C22.624,22.403,11.143,42.932,5.012,67.336C3.541,73.19,2.331,79.11,1,85
			C1,57.082,1,29.164,1,1C29.666,1,58.333,1,87,1z"/>
		<path fill-rule="evenodd" clip-rule="evenodd" fill="none" d="M112,201c5.275-0.996,10.701-1.508,15.795-3.089
			c11.045-3.426,22.5-6.243,32.743-11.388c21.854-10.975,32.054-30.871,37.442-53.74c1.005-4.262,2.014-8.522,3.02-12.783
			c0,27,0,54,0,81C171.334,201,141.666,201,112,201z"/>
		<path fill-rule="evenodd" clip-rule="evenodd" fill="none" d="M1,120c0.996,4.269,2.01,8.532,2.984,12.806
			c5.326,23.36,16.268,42.856,38.117,54.622c13.208,7.112,27.647,10.302,42.341,12.535c0.885,0.134,1.707,0.682,2.558,1.037
			c-28.581,0-57.162,0-86,0C1,174.001,1,147,1,120z"/>
		<path fill-rule="evenodd" clip-rule="evenodd" fill="none" d="M77.908,41.242c15.327,0.655,28.213,5.769,38.437,18.054
			c11.496,13.815,24.114,26.695,36.206,40.017c9.856,10.858,9.508,21.922-1.232,31.943c-8.769,8.182-17.688,16.207-26.726,24.091
			c-8.97,7.824-20.085,7.771-28.204-0.824c-15.552-16.466-31.186-32.916-45.681-50.295c-7.766-9.31-8.221-21.662-6.881-33.447
			C45.728,54.051,61.14,41,77.908,41.242z M70.419,82.412c8.192-0.043,14.858-6.887,14.72-15.111
			c-0.133-7.936-6.833-14.32-15.004-14.299c-8.122,0.021-14.728,6.607-14.626,14.582C55.617,76.133,61.977,82.457,70.419,82.412z
			 M117.599,122.3c-5.419,0.099-11.125,5.803-11.016,11.01c0.096,4.561,4.532,8.848,9.172,8.862
			c5.329,0.016,11.319-5.643,11.357-10.729C127.146,126.889,122.283,122.214,117.599,122.3z M115.07,110.827
			c5.354-0.123,11.303-5.985,11.102-10.939c-0.188-4.633-5.018-8.97-9.793-8.796c-5.404,0.196-10.678,5.473-10.641,10.646
			C105.772,106.72,110.106,110.94,115.07,110.827z M139.802,114.465c0.112-0.708,0.225-1.416,0.337-2.124
			c-1.832-0.317-3.725-1.1-5.484-0.869c-6.42,0.839-12.803,1.975-19.188,3.078c-7.771,1.343-15.529,2.766-23.292,4.153
			c-0.079,0.586-0.157,1.172-0.235,1.758c1.586,0.463,3.163,1.252,4.762,1.301c1.787,0.054,3.59-0.583,5.392-0.89
			C114.662,118.732,127.232,116.6,139.802,114.465z M94.68,101.01c0.117-2.099,0.737-3.769,0.16-4.526
			c-2.188-2.87-4.682-5.527-7.259-8.063c-0.542-0.533-1.925-0.21-2.92-0.281c-0.007,1.014-0.441,2.379,0.053,2.98
			c2.296,2.794,4.835,5.389,7.323,8.021C92.46,99.589,93.056,99.875,94.68,101.01z"/>
		<path fill-rule="evenodd" clip-rule="evenodd" fill="#F7912C" d="M70.419,82.412c-8.442,0.045-14.802-6.279-14.911-14.828
			c-0.102-7.975,6.504-14.561,14.626-14.582c8.172-0.021,14.871,6.363,15.004,14.299C85.277,75.525,78.611,82.369,70.419,82.412z"/>
		<path fill-rule="evenodd" clip-rule="evenodd" fill="#F79330" d="M117.599,122.3c4.685-0.086,9.548,4.589,9.514,9.144
			c-0.038,5.086-6.028,10.744-11.357,10.729c-4.64-0.015-9.076-4.302-9.172-8.862C106.474,128.103,112.18,122.398,117.599,122.3z"/>
		<path fill-rule="evenodd" clip-rule="evenodd" fill="#F79330" d="M115.07,110.827c-4.964,0.113-9.298-4.107-9.332-9.09
			c-0.037-5.173,5.236-10.449,10.641-10.646c4.775-0.174,9.605,4.163,9.793,8.796C126.373,104.842,120.424,110.704,115.07,110.827z"
			/>
		<path fill-rule="evenodd" clip-rule="evenodd" fill="#F8A04A" d="M139.802,114.465c-12.569,2.135-25.14,4.268-37.709,6.407
			c-1.802,0.307-3.605,0.943-5.392,0.89c-1.599-0.049-3.175-0.838-4.762-1.301c0.079-0.586,0.157-1.172,0.235-1.758
			c7.764-1.388,15.521-2.811,23.292-4.153c6.385-1.104,12.768-2.239,19.188-3.078c1.76-0.23,3.652,0.552,5.484,0.869
			C140.026,113.049,139.914,113.757,139.802,114.465z"/>
		<path fill-rule="evenodd" clip-rule="evenodd" fill="#F89E45" d="M94.68,101.01c-1.624-1.135-2.219-1.421-2.643-1.869
			c-2.488-2.632-5.027-5.227-7.323-8.021c-0.495-0.602-0.06-1.967-0.053-2.98c0.995,0.071,2.378-0.252,2.92,0.281
			c2.578,2.535,5.072,5.192,7.259,8.063C95.417,97.241,94.797,98.911,94.68,101.01z"/>
	</g>
</g>
</svg>
