<?xml version="1.0" standalone="no"?><!DOCTYPE svg PUBLIC "-//W3C//DTD SVG 1.1//EN" "http://www.w3.org/Graphics/SVG/1.1/DTD/svg11.dtd"><svg t="1532079384058" class="icon" style="" viewBox="0 0 1024 1024" version="1.1" xmlns="http://www.w3.org/2000/svg" p-id="1853" xmlns:xlink="http://www.w3.org/1999/xlink" width="200" height="200"><defs><style type="text/css"></style></defs><path d="M874.497076 148.77639C674.578801-48.817253 349.130447-48.817253 149.212172 148.77639-48.381471 348.694665-48.381471 674.143019 149.212172 874.061294c199.918275 199.918275 523.041998 199.918275 722.960273 0 199.918275-199.918275 199.918275-525.366629 2.324631-725.284904z m-34.869467 690.415437c-181.321226 181.321226-476.549376 181.321226-657.870601 0C0.435782 657.870602 0.435782 364.967083 184.081639 183.645857 365.402865 0 658.306383 0 839.627609 183.645857c183.645857 181.321226 183.645857 474.224745 0 655.54597zM511.854624 209.216799C344.481185 209.216799 209.652581 344.045403 209.652581 511.418842s134.828604 302.202043 302.202043 302.202043 302.202043-134.828604 302.202043-302.202043S679.228063 209.216799 511.854624 209.216799z" fill="#ff9b49" p-id="1854"></path></svg>