<?xml version="1.0" standalone="no"?><!DOCTYPE svg PUBLIC "-//W3C//DTD SVG 1.1//EN" "http://www.w3.org/Graphics/SVG/1.1/DTD/svg11.dtd"><svg t="1537331739660" class="icon" style="" viewBox="0 0 1024 1024" version="1.1" xmlns="http://www.w3.org/2000/svg" p-id="5890" xmlns:xlink="http://www.w3.org/1999/xlink" width="200" height="200"><defs><style type="text/css"></style></defs><path d="M550.448 803.653c0 13.312 10.782 24.099 24.098 24.099h366.369c13.309 0 24.098-10.788 24.098-24.099 0-13.31-10.789-24.099-24.098-24.099h-366.369c-13.315 0-24.098 10.789-24.098 24.099zM940.915 910.151h-540.486c-13.314 0-24.099 10.789-24.099 24.099 0 13.312 10.785 24.099 24.099 24.099h540.486c13.309 0 24.098-10.788 24.098-24.099 0-13.31-10.789-24.099-24.098-24.099zM418.463 821.679c0.278-0.291 0.483-0.63 0.753-0.932 0.607-0.565 1.293-1.121 1.841-1.685l386.594-386.587c0.012 0 0.020-0.007 0.029-0.018 0.012-0.007 0.012-0.019 0.020-0.029l72.101-72.095c30.236-30.242 46.895-70.449 46.895-113.213s-16.668-82.969-46.895-113.21l-21.374-21.372c-30.242-30.25-70.462-46.897-113.207-46.897-42.758 0-82.964 16.657-113.213 46.897l-458.74 458.749c-0.55 0.542-1.079 1.228-1.619 1.804-0.31 0.284-0.666 0.49-0.973 0.79-0.993 0.983-1.803 2.061-2.595 3.163-0.086 0.103-0.174 0.212-0.259 0.32-0.085 0.132-0.202 0.244-0.277 0.387-54.397 67.489-102.624 310.011-108.121 338.356-1.563 8.067 1.090 16.369 7.037 22.037 4.53 4.313 10.499 6.638 16.619 6.638 1.91 0 3.828-0.217 5.729-0.678 27.289-6.684 262.203-65.333 327.020-120.291 0.907-0.668 1.822-1.316 2.641-2.137zM221.803 590.93l355.143-355.14 179.617 179.638-355.133 355.138-179.629-179.634zM666.082 146.63c21.139-21.13 49.239-32.774 79.137-32.774 29.888 0 57.987 11.646 79.118 32.774l21.382 21.38c21.131 21.132 32.775 49.232 32.775 79.123 0 29.893-11.646 57.996-32.775 79.123l-55.089 55.092-179.621-179.639 55.071-55.084zM191.678 628.969l172.138 172.153c-52.402 29.108-164.204 64.098-249.411 86.701 18.983-88.622 49.597-205.1 77.274-258.853z" p-id="5891" fill="#ffffff"></path></svg>