<?xml version="1.0" encoding="utf-8"?>
<!-- Generator: Adobe Illustrator 16.0.0, SVG Export Plug-In . SVG Version: 6.00 Build 0)  -->
<!DOCTYPE svg PUBLIC "-//W3C//DTD SVG 1.1//EN" "http://www.w3.org/Graphics/SVG/1.1/DTD/svg11.dtd">
<svg version="1.1" id="图层_1" xmlns="http://www.w3.org/2000/svg" xmlns:xlink="http://www.w3.org/1999/xlink" x="0px" y="0px"
	 width="200px" height="200px" viewBox="0 0 200 200" enable-background="new 0 0 200 200" xml:space="preserve">
<path fill="#FF9B49" d="M20.833,37.5c-2.301,0-4.167,1.865-4.167,4.167s1.866,4.167,4.167,4.167H37.5
	c2.301,0,4.167-1.866,4.167-4.167S39.801,37.5,37.5,37.5H20.833z M20.833,95.833c-2.301,0.001-4.166,1.868-4.165,4.169
	c0.001,2.299,1.865,4.163,4.165,4.164H37.5c2.301-0.001,4.166-1.867,4.164-4.168c-0.001-2.299-1.865-4.163-4.164-4.164H20.833z
	 M20.833,154.166c-2.301,0-4.167,1.866-4.167,4.168c0,2.301,1.866,4.166,4.167,4.166H37.5c2.301,0,4.167-1.865,4.167-4.166
	c0-2.302-1.865-4.168-4.167-4.168l0,0H20.833z M62.5,37.5c-2.301,0-4.167,1.865-4.167,4.167s1.865,4.167,4.167,4.167h116.666
	c2.302,0,4.168-1.866,4.168-4.167s-1.866-4.167-4.168-4.167H62.5z M62.5,95.833c-2.301,0.001-4.166,1.868-4.164,4.169
	c0.001,2.299,1.865,4.163,4.164,4.164h116.666c2.302-0.001,4.166-1.867,4.165-4.168c-0.001-2.299-1.865-4.163-4.165-4.164H62.5z
	 M62.5,154.166c-2.301,0-4.167,1.866-4.167,4.168c0,2.301,1.865,4.166,4.167,4.166h116.666c2.302,0,4.168-1.865,4.168-4.166
	c0-2.302-1.866-4.168-4.168-4.168H62.5z"/>
</svg>
