<?xml version="1.0" encoding="utf-8"?>
<!-- Generator: Adobe Illustrator 16.0.0, SVG Export Plug-In . SVG Version: 6.00 Build 0)  -->
<!DOCTYPE svg PUBLIC "-//W3C//DTD SVG 1.1//EN" "http://www.w3.org/Graphics/SVG/1.1/DTD/svg11.dtd">
<svg version="1.1" id="图层_1" xmlns="http://www.w3.org/2000/svg" xmlns:xlink="http://www.w3.org/1999/xlink" x="0px" y="0px"
	 width="586px" height="587px" viewBox="0 0 586 587" enable-background="new 0 0 586 587" xml:space="preserve">
<g>
	<path fill-rule="evenodd" clip-rule="evenodd" fill="#FE9A01" d="M340,588c-30.667,0-61.333,0-92,0
		c-0.515-0.344-0.986-0.87-1.55-1.004c-17.739-4.203-29.123-20.643-29.702-35.772c-0.402-10.488-0.196-20.961-0.291-31.439
		c-0.025-2.809-0.61-4.488-3.541-5.567c-24.428-8.988-46.265-22.43-66.111-39.157c-2.332-1.965-3.955-1.862-6.467-0.375
		c-14,8.287-27.997,16.596-42.23,24.472c-19.613,10.853-41.67,5.643-52.747-13.734C30.172,458.851,13.079,433.295,1,405
		c0-5,0-10,0-15c1.486-0.488,1.084-1.941,1.39-2.95c3.131-10.337,9.347-18.203,18.671-23.623
		c13.054-7.588,25.998-15.375,39.236-22.627c4.459-2.443,5.427-5.144,4.472-9.87c-2.607-12.902-3.477-26.044-3.25-39.16
		c0.203-11.77,1.102-23.563,3.538-35.141c0.731-3.472-0.391-5.266-3.515-7.021c-13.161-7.388-26.078-15.209-39.189-22.688
		c-7.897-4.505-14.09-10.511-17.867-18.821C3.145,205.148,2.152,202.038,1,199c0-5,0-10,0-15c1.938-4.324,3.544-8.836,5.868-12.941
		c12.184-21.522,24.47-42.987,36.874-64.383c12.725-21.948,34.702-27.769,56.589-15.118c13.227,7.645,26.464,15.277,39.561,23.142
		c2.911,1.748,4.791,1.629,7.37-0.549c19.708-16.648,41.497-29.852,65.698-38.925c2.535-0.95,3.583-2.246,3.523-5.073
		c-0.187-8.821-0.108-17.649-0.058-26.475c0.103-18.108,7.588-31.634,24.448-39.383C244.14,2.793,247.944,3.066,251,1
		c28.667,0,57.333,0,86,0c0.388,0.931,1.233,0.907,2.052,1.066c20.05,3.9,32.768,19.345,32.769,39.768
		c0,9.488,0.064,18.977-0.051,28.463c-0.03,2.473,0.596,3.86,3.115,4.784c24.58,9.013,46.583,22.482,66.583,39.247
		c2.617,2.194,4.261,1.942,6.903,0.376c13.995-8.298,28.033-16.527,42.196-24.532c18.455-10.432,41.275-5.194,51.876,13.028
		c15.314,26.328,31.753,52.06,44.557,79.8c0,6,0,12,0,18c-0.321,0.344-0.827,0.638-0.937,1.039
		c-3.103,11.414-10.283,19.364-20.476,25.104c-13.301,7.49-26.367,15.396-39.604,22.999c-2.309,1.326-3.404,2.635-2.854,5.484
		c5.035,26.07,5.015,52.17,0.036,78.246c-0.519,2.721,0.234,4.119,2.693,5.473c8.138,4.48,16.101,9.277,24.14,13.938
		C565.277,362.141,581.995,369.502,587,389c0,6,0,12,0,18c-1.478,3.27-2.706,6.68-4.472,9.785
		c-12.972,22.813-25.777,45.728-39.181,68.286c-11.798,19.859-34.577,25.142-54.436,13.413
		c-13.295-7.852-26.746-15.441-39.953-23.436c-3.267-1.978-5.294-1.724-8.145,0.667c-19.622,16.454-41.26,29.577-65.322,38.51
		c-2.771,1.028-3.798,2.425-3.74,5.429c0.192,9.986,0.308,19.986,0.016,29.969c-0.34,11.677-4.937,21.44-13.841,29.26
		C352.66,583.508,346.192,585.397,340,588z M294.382,40.839c-5.667,0-11.333-0.018-17,0.004
		c-14.379,0.055-21.709,7.378-21.791,21.858c-0.056,10-0.002,20-0.001,30c0,10.217,0.02,10.301-9.716,12.856
		c-36.69,9.632-67.781,28.558-93.438,56.404c-2.549,2.766-4.292,2.793-7.384,0.954c-16.136-9.598-32.389-19.003-48.672-28.352
		c-10.707-6.147-21.643-3.347-27.891,7.236c-6.336,10.732-12.512,21.564-18.512,32.488c-6.099,11.105-2.973,21.547,8.106,28.011
		c16.217,9.463,32.394,18.996,48.725,28.258c3.323,1.884,3.749,3.666,2.61,7.109c-4.556,13.781-7.33,28.006-8.359,42.446
		c-1.743,24.447,0.86,48.506,8.399,71.902c1.105,3.43,0.489,5.131-2.732,6.956c-16.194,9.177-32.24,18.616-48.308,28.015
		c-11.719,6.854-14.634,17.494-7.982,29.252c5.649,9.985,11.368,19.933,17.158,29.838c7.538,12.896,17.704,15.459,30.595,7.916
		c15.778-9.232,31.633-18.333,47.347-27.672c2.895-1.721,4.379-1.287,6.63,1.134c27.221,29.281,60.099,48.948,99.247,57.778
		c2.933,0.662,4.332,1.872,4.27,5.287c-0.23,12.662-0.259,25.334-0.025,37.997c0.234,12.687,8.193,20.288,20.908,20.354
		c11.5,0.06,23,0.036,34.5,0.006c13.996-0.036,21.924-7.978,21.97-22.028c0.039-12,0.134-24.002-0.075-35.999
		c-0.059-3.354,0.715-4.883,4.233-5.685c39.116-8.907,72.074-28.48,99.177-57.961c2.188-2.379,3.711-2.614,6.578-0.903
		c16.266,9.707,32.636,19.242,49.083,28.64c11.061,6.319,21.712,3.363,28.137-7.613c6.045-10.326,11.958-20.729,17.88-31.126
		c1.395-2.447,2.66-4.97,3.037-7.839c1.218-9.274-2.251-16.244-10.294-20.938c-15.646-9.13-31.216-18.398-47.023-27.24
		c-4.599-2.572-6.17-4.764-4.288-10.285c5.443-15.975,7.799-32.624,8.346-49.463c0.681-20.942-2.023-41.509-8.572-61.429
		c-1.584-4.817-0.35-6.887,3.806-9.218c15.795-8.865,31.405-18.062,47.018-27.249c11.527-6.784,14.479-17.218,8.056-28.887
		c-5.773-10.485-11.771-20.851-17.834-31.171c-6.729-11.457-17.305-14.197-28.864-7.525c-16.118,9.303-32.184,18.698-48.246,28.099
		c-2.416,1.414-4.039,2.324-6.646-0.533c-26.986-29.563-60.048-49.012-99.022-58.148c-3.896-0.914-4.596-2.401-4.546-5.895
		c0.176-12.331,0.16-24.666,0.043-36.999c-0.12-12.593-8.146-20.54-20.633-20.633C306.382,40.803,300.382,40.84,294.382,40.839z"/>
	<path fill-rule="evenodd" clip-rule="evenodd" fill="none" d="M251,1c-3.056,2.066-6.86,1.793-10.127,3.295
		c-16.86,7.749-24.345,21.274-24.448,39.383c-0.05,8.825-0.128,17.653,0.058,26.475c0.06,2.827-0.988,4.123-3.523,5.073
		c-24.202,9.073-45.991,22.276-65.698,38.925c-2.579,2.178-4.458,2.297-7.37,0.549c-13.097-7.864-26.333-15.497-39.561-23.142
		c-21.888-12.65-43.865-6.83-56.589,15.118c-12.404,21.396-24.69,42.86-36.874,64.383C4.544,175.164,2.938,179.676,1,184
		C1,124.402,1.045,64.804,0.893,5.207C0.883,1.497,1.787,0.905,5.284,0.91C87.189,1.026,169.095,1,251,1z"/>
	<path fill-rule="evenodd" clip-rule="evenodd" fill="none" d="M587,183c-12.804-27.74-29.242-53.472-44.557-79.8
		c-10.601-18.223-33.421-23.46-51.876-13.028c-14.163,8.005-28.201,16.234-42.196,24.532c-2.643,1.566-4.286,1.818-6.903-0.376
		c-20-16.765-42.003-30.234-66.583-39.247c-2.52-0.924-3.146-2.312-3.115-4.784c0.115-9.486,0.051-18.975,0.051-28.463
		c-0.001-20.423-12.719-35.867-32.769-39.768C338.233,1.907,337.388,1.931,337,1c82,0,164,0.027,246-0.096
		c3.424-0.006,4.104,0.671,4.097,4.096C586.962,64.333,587,123.667,587,183z"/>
	<path fill-rule="evenodd" clip-rule="evenodd" fill="none" d="M1,405c12.079,28.295,29.172,53.851,44.361,80.422
		c11.077,19.377,33.134,24.587,52.747,13.734c14.233-7.876,28.229-16.185,42.23-24.472c2.512-1.487,4.135-1.59,6.467,0.375
		c19.846,16.728,41.684,30.169,66.111,39.157c2.931,1.079,3.515,2.759,3.541,5.567c0.094,10.479-0.111,20.951,0.291,31.439
		c0.58,15.13,11.963,31.569,29.702,35.772c0.564,0.134,1.036,0.66,1.55,1.004c-81,0-162-0.027-243,0.096
		c-3.424,0.006-4.104-0.671-4.097-4.096C1.038,524.333,1,464.667,1,405z"/>
	<path fill-rule="evenodd" clip-rule="evenodd" fill="none" d="M340,588c6.192-2.603,12.66-4.492,17.927-9.117
		c8.904-7.819,13.501-17.583,13.841-29.26c0.292-9.982,0.177-19.982-0.016-29.969c-0.058-3.004,0.969-4.4,3.74-5.429
		c24.063-8.933,45.7-22.056,65.322-38.51c2.851-2.391,4.878-2.645,8.145-0.667c13.207,7.994,26.658,15.584,39.953,23.436
		c19.858,11.729,42.638,6.446,54.436-13.413c13.403-22.559,26.209-45.474,39.181-68.286c1.766-3.105,2.994-6.516,4.472-9.785
		c0,59-0.038,118,0.097,177c0.008,3.425-0.673,4.102-4.097,4.096C502,587.973,421,588,340,588z"/>
	<path fill-rule="evenodd" clip-rule="evenodd" fill="none" d="M1,199c1.152,3.038,2.145,6.148,3.486,9.1
		c3.776,8.311,9.969,14.316,17.867,18.821c13.111,7.479,26.028,15.3,39.189,22.688c3.124,1.755,4.246,3.549,3.515,7.021
		C62.62,268.206,61.721,280,61.518,291.77c-0.226,13.116,0.643,26.258,3.25,39.16c0.955,4.727-0.012,7.427-4.472,9.87
		c-13.238,7.252-26.183,15.039-39.236,22.627c-9.324,5.42-15.54,13.286-18.671,23.623C2.084,388.059,2.486,389.512,1,390
		C1,326.333,1,262.667,1,199z"/>
	<path fill-rule="evenodd" clip-rule="evenodd" fill="none" d="M587,389c-5.005-19.498-21.723-26.859-37.001-35.716
		c-8.039-4.661-16.002-9.458-24.14-13.938c-2.459-1.354-3.212-2.752-2.693-5.473c4.979-26.076,4.999-52.176-0.036-78.246
		c-0.551-2.85,0.545-4.158,2.854-5.484c13.237-7.604,26.304-15.509,39.604-22.999c10.192-5.74,17.373-13.69,20.476-25.104
		c0.109-0.401,0.615-0.695,0.937-1.039C587,263.667,587,326.333,587,389z"/>
	<path fill-rule="evenodd" clip-rule="evenodd" fill="none" d="M294.382,40.84c6,0,12-0.037,18,0.008
		c12.486,0.093,20.513,8.04,20.633,20.633c0.117,12.333,0.133,24.668-0.043,36.999c-0.05,3.493,0.649,4.98,4.546,5.895
		c38.975,9.137,72.036,28.586,99.022,58.148c2.607,2.857,4.23,1.947,6.646,0.533c16.063-9.4,32.128-18.796,48.246-28.099
		c11.56-6.672,22.135-3.932,28.864,7.525c6.063,10.32,12.061,20.686,17.834,31.171c6.424,11.669,3.472,22.103-8.056,28.887
		c-15.612,9.188-31.223,18.384-47.018,27.249c-4.155,2.331-5.39,4.4-3.806,9.218c6.549,19.92,9.253,40.486,8.572,61.429
		c-0.547,16.839-2.902,33.488-8.346,49.463c-1.882,5.521-0.311,7.713,4.288,10.285c15.808,8.842,31.377,18.11,47.023,27.24
		c8.043,4.694,11.512,11.664,10.294,20.938c-0.377,2.869-1.643,5.392-3.037,7.839c-5.922,10.396-11.835,20.8-17.88,31.126
		c-6.425,10.977-17.076,13.933-28.137,7.613c-16.447-9.397-32.817-18.933-49.083-28.64c-2.867-1.711-4.39-1.476-6.578,0.903
		c-27.103,29.48-60.061,49.054-99.177,57.961c-3.519,0.802-4.292,2.33-4.233,5.685c0.209,11.997,0.114,23.999,0.075,35.999
		c-0.046,14.051-7.974,21.992-21.97,22.028c-11.5,0.03-23,0.054-34.5-0.006c-12.714-0.066-20.673-7.668-20.908-20.354
		c-0.234-12.663-0.205-25.335,0.025-37.997c0.062-3.415-1.336-4.625-4.27-5.287c-39.148-8.83-72.026-28.497-99.247-57.778
		c-2.251-2.421-3.735-2.854-6.63-1.134c-15.714,9.339-31.569,18.439-47.347,27.672c-12.891,7.543-23.057,4.98-30.595-7.916
		c-5.79-9.905-11.508-19.853-17.158-29.838c-6.652-11.758-3.737-22.397,7.982-29.252c16.068-9.398,32.114-18.838,48.308-28.015
		c3.221-1.825,3.838-3.526,2.732-6.956c-7.539-23.396-10.142-47.455-8.399-71.902c1.029-14.44,3.804-28.665,8.359-42.446
		c1.138-3.443,0.712-5.226-2.61-7.109c-16.331-9.262-32.508-18.795-48.725-28.258c-11.079-6.464-14.205-16.905-8.106-28.011
		c6-10.924,12.176-21.756,18.512-32.488c6.248-10.583,17.184-13.384,27.891-7.236c16.283,9.349,32.536,18.754,48.672,28.352
		c3.091,1.839,4.835,1.812,7.384-0.954c25.656-27.847,56.747-46.772,93.438-56.404c9.736-2.556,9.716-2.64,9.716-12.856
		c0-10-0.055-20,0.001-30c0.082-14.48,7.412-21.804,21.791-21.858C283.049,40.821,288.715,40.839,294.382,40.84z M197.655,294.412
		c-0.052,53.231,42.889,97.688,94.45,97.785c55.227,0.104,98.766-42.813,98.959-97.541c0.187-52.828-43.788-97.331-96.242-97.4
		C241.135,197.185,197.708,240.606,197.655,294.412z"/>
	<path fill-rule="evenodd" clip-rule="evenodd" fill="#FE9A01" d="M197.655,294.412c0.053-53.806,43.479-97.228,97.167-97.156
		c52.454,0.069,96.429,44.572,96.242,97.4c-0.193,54.729-43.732,97.645-98.959,97.541
		C240.544,392.1,197.604,347.644,197.655,294.412z M352.174,294.698c0.013-32.371-26.137-58.707-58.15-58.564
		c-32.048,0.143-57.854,26.439-57.893,58.992c-0.038,31.742,26.002,57.994,57.565,58.034
		C326.563,353.202,352.161,327.61,352.174,294.698z"/>
	<path fill-rule="evenodd" clip-rule="evenodd" fill="none" d="M352.174,294.698c-0.013,32.912-25.611,58.504-58.478,58.462
		c-31.563-0.04-57.603-26.292-57.565-58.034c0.038-32.553,25.845-58.85,57.893-58.992
		C326.037,235.991,352.187,262.327,352.174,294.698z"/>
</g>
</svg>
