<?xml version="1.0" encoding="utf-8"?>
<!-- Generator: Adobe Illustrator 16.0.0, SVG Export Plug-In . SVG Version: 6.00 Build 0)  -->
<!DOCTYPE svg PUBLIC "-//W3C//DTD SVG 1.1//EN" "http://www.w3.org/Graphics/SVG/1.1/DTD/svg11.dtd">
<svg version="1.1" id="图层_1" xmlns="http://www.w3.org/2000/svg" xmlns:xlink="http://www.w3.org/1999/xlink" x="0px" y="0px"
	 width="200px" height="200px" viewBox="0 0 200 200" enable-background="new 0 0 200 200" xml:space="preserve">
<path fill="#282828" d="M64.384,99.709l77.222-77.222c2.342-2.342,2.342-6.138,0-8.479c-2.342-2.342-6.139-2.342-8.479,0
	L51.672,95.462c-0.003,0.002-0.005,0.005-0.008,0.008c-2.341,2.341-2.341,6.138,0,8.479h0l0,0l0,0l81.461,81.461
	c1.171,1.171,2.705,1.756,4.239,1.756c1.535,0,3.069-0.585,4.24-1.756c2.342-2.342,2.342-6.138,0-8.479L64.384,99.709z"/>
</svg>
