<?xml version="1.0" encoding="utf-8"?>
<!-- Generator: Adobe Illustrator 16.0.0, SVG Export Plug-In . SVG Version: 6.00 Build 0)  -->
<!DOCTYPE svg PUBLIC "-//W3C//DTD SVG 1.1//EN" "http://www.w3.org/Graphics/SVG/1.1/DTD/svg11.dtd">
<svg version="1.1" id="图层_1" xmlns="http://www.w3.org/2000/svg" xmlns:xlink="http://www.w3.org/1999/xlink" x="0px" y="0px"
	 width="128px" height="128px" viewBox="0 0 128 128" enable-background="new 0 0 128 128" xml:space="preserve">
<path fill="#FF4975" d="M112.466,8.002H15.461c-4.122,0-7.463,3.342-7.463,7.463v97.005c0,4.121,3.342,7.463,7.463,7.463h97.005
	c4.122,0,7.463-3.342,7.463-7.463V15.466C119.929,11.344,116.588,8.002,112.466,8.002z M111.934,108.696
	c0,1.79-1.451,3.242-3.242,3.242H19.235c-1.791,0-3.242-1.452-3.242-3.242V19.24c0-1.791,1.452-3.242,3.242-3.242h89.457
	c1.791,0,3.242,1.452,3.242,3.242V108.696z"/>
<path fill="#FF4975" d="M102.885,36.019l-1.105-1.105c-1.266-1.266-3.172-1.413-4.258-0.328L54.26,77.848L30.024,53.613
	c-1.015-1.015-2.865-0.812-4.131,0.455l-1.105,1.105c-1.266,1.266-1.47,3.115-0.455,4.13l28.051,28.051
	c0.558,0.558,1.368,0.746,2.194,0.594c0.633-0.032,1.229-0.268,1.683-0.721l46.951-46.951
	C104.297,39.191,104.15,37.285,102.885,36.019z"/>
</svg>
