<?xml version="1.0" encoding="utf-8"?>
<!-- Generator: Adobe Illustrator 16.0.0, SVG Export Plug-In . SVG Version: 6.00 Build 0)  -->
<!DOCTYPE svg PUBLIC "-//W3C//DTD SVG 1.1//EN" "http://www.w3.org/Graphics/SVG/1.1/DTD/svg11.dtd">
<svg version="1.1" id="图层_1" xmlns="http://www.w3.org/2000/svg" xmlns:xlink="http://www.w3.org/1999/xlink" x="0px" y="0px"
	 width="200px" height="200px" viewBox="0 0 200 200" enable-background="new 0 0 200 200" xml:space="preserve">
<path fill="#989898" d="M183.334,83.333V66.667c0-9.167-7.5-16.667-16.668-16.667H25c-9.167,0-16.667,7.5-16.667,16.667v66.667
	C8.333,142.5,15.833,150,25,150h141.666c9.168,0,16.668-7.5,16.668-16.666v-16.668c4.582,0,8.332-3.75,8.332-8.332V91.667
	C191.666,87.083,187.916,83.333,183.334,83.333z M175,91.667v16.667v25c0,4.582-3.75,8.332-8.334,8.332H25
	c-4.583,0-8.333-3.75-8.333-8.332V66.667c0-4.583,3.75-8.333,8.333-8.333h141.666c4.584,0,8.334,3.75,8.334,8.333V91.667z"/>
</svg>
