<?xml version="1.0" encoding="utf-8"?>
<!-- Generator: Adobe Illustrator 16.0.0, SVG Export Plug-In . SVG Version: 6.00 Build 0)  -->
<!DOCTYPE svg PUBLIC "-//W3C//DTD SVG 1.1//EN" "http://www.w3.org/Graphics/SVG/1.1/DTD/svg11.dtd">
<svg version="1.1" id="图层_1" xmlns="http://www.w3.org/2000/svg" xmlns:xlink="http://www.w3.org/1999/xlink" x="0px" y="0px"
	 width="512px" height="512px" viewBox="0 0 512 512" enable-background="new 0 0 512 512" xml:space="preserve">
<g>
	<path fill="none" d="M210.463,64.9c77.884,0,155.768,0.016,233.652-0.072c2.557-0.003,3.061,0.502,3.057,3.058
		c-0.086,77.387-0.071,154.772-0.071,232.159c-2.126-1.697-3.23-4.388-6.247-5.304c-4.792-1.455-8.61,0.88-12.406,2.772
		c-12.396,6.184-25.422,10.694-38.934,13.249c-16.479,3.115-33.139,3.276-49.882,1.02c-17.307-2.33-33.743-7.256-49.374-14.812
		c-12.486-6.038-23.989-13.655-34.516-22.815c-10.046-8.739-19.074-18.315-26.774-29.155c-5.267-7.414-9.828-15.224-13.837-23.411
		c-4.69-9.58-8.343-19.49-11.01-29.785c-2.813-10.854-4.413-21.869-4.988-33.089c-0.579-11.288-0.033-22.521,1.852-33.581
		c2.745-16.106,8.604-31.28,15.756-45.939c1.653-3.388,1.574-6.365-0.411-9.756C214.861,66.931,212.054,66.839,210.463,64.9z"/>
	<path fill="#282828" d="M210.463,64.9c1.591,1.939,4.397,2.031,5.864,4.537c1.985,3.391,2.065,6.368,0.412,9.756
		c-7.152,14.659-13.012,29.832-15.757,45.939c-1.884,11.06-2.43,22.292-1.852,33.58c0.575,11.22,2.176,22.236,4.987,33.089
		c2.668,10.296,6.319,20.206,11.011,29.786c4.009,8.188,8.57,15.999,13.836,23.41c7.7,10.842,16.729,20.416,26.774,29.155
		c10.529,9.162,22.029,16.779,34.517,22.816c15.63,7.557,32.066,12.48,49.374,14.812c16.742,2.255,33.401,2.095,49.879-1.02
		c13.515-2.555,26.537-7.065,38.937-13.249c3.795-1.894,7.613-4.229,12.406-2.772c3.016,0.917,4.122,3.606,6.246,5.304
		c0,2.487,0,4.977,0,7.464c-2.795,6.253-4.692,12.84-7.253,19.195c-7.013,17.395-16.452,33.306-28.15,47.852
		c-15.725,19.553-34.364,35.727-56.407,47.975c-19.639,10.909-40.308,18.518-62.556,22.025c-5.271,0.83-10.724,0.712-15.833,2.549
		c-10.451,0-20.903,0-31.353,0c-3.856-1.387-7.959-1.177-11.936-1.778c-12.141-1.841-24-4.609-35.688-8.494
		c-13.557-4.508-26.286-10.551-38.492-17.873c-11.161-6.697-21.39-14.552-31.063-23.271c-16.008-14.436-29.011-31.2-39.475-49.919
		c-7.239-12.947-12.929-26.624-16.757-41.011c-2.157-8.106-4.034-16.251-5.179-24.602c-0.554-4.056-0.268-8.337-2.059-12.21
		c0-10.948,0-21.896,0-32.845c0.568-0.161,0.694-0.589,0.733-1.117c1.743-23.234,7.954-45.29,18.021-66.224
		c6.292-13.085,14.238-25.149,23.37-36.507c10.93-13.595,23.349-25.522,37.417-35.763c12.918-9.403,26.663-17.358,41.595-23.146
		c6.617-2.565,13.298-4.968,19.951-7.443C207.477,64.9,208.97,64.9,210.463,64.9z M419.971,322.978
		c-70.62,20.984-134.348,8.728-186.97-43.878c-52.718-52.702-64.933-116.447-43.736-187.066
		c-37.648,16.458-66.82,43.073-85.888,79.897c-18.904,36.507-23.599,75.345-15.363,115.734
		c13.911,68.226,73.873,134.744,163.886,139.933C326.196,431.878,393.544,386.926,419.971,322.978z"/>
	<path fill="none" d="M64.897,267.945c1.791,3.873,1.505,8.154,2.061,12.21c1.145,8.351,3.021,16.495,5.179,24.602
		c3.827,14.386,9.518,28.063,16.757,41.011c10.463,18.719,23.467,35.483,39.475,49.919c9.673,8.72,19.903,16.574,31.063,23.271
		c12.206,7.322,24.934,13.365,38.491,17.873c11.689,3.885,23.547,6.653,35.688,8.494c3.977,0.602,8.08,0.39,11.937,1.778
		c-59.161,0-118.321-0.021-177.481,0.073c-2.688,0.005-3.248-0.549-3.243-3.241C64.92,385.272,64.897,326.609,64.897,267.945z"/>
	<path fill="none" d="M205.984,64.9c-6.653,2.475-13.334,4.877-19.952,7.442c-14.931,5.789-28.677,13.744-41.594,23.147
		c-14.068,10.24-26.487,22.168-37.418,35.763c-9.132,11.358-17.077,23.422-23.369,36.507c-10.067,20.934-16.276,42.99-18.021,66.224
		c-0.039,0.527-0.165,0.956-0.733,1.117c0-55.671,0.022-111.342-0.069-167.013c-0.005-2.643,0.483-3.271,3.221-3.265
		C114.027,64.932,160.006,64.9,205.984,64.9z"/>
	<path fill="none" d="M276.901,447.104c5.109-1.837,10.563-1.719,15.833-2.549c22.247-3.508,42.916-11.116,62.556-22.025
		c22.043-12.246,40.682-28.42,56.407-47.974c11.697-14.546,21.138-30.456,28.15-47.853c2.561-6.356,4.46-12.942,7.253-19.195
		c0,45.537-0.027,91.073,0.073,136.608c0.007,2.557-0.502,3.063-3.059,3.059C388.377,447.082,332.64,447.104,276.901,447.104z"/>
	<path fill="none" d="M419.971,322.978c-26.427,63.948-93.774,108.9-168.07,104.619c-90.014-5.188-149.976-71.707-163.886-139.932
		c-8.235-40.39-3.541-79.228,15.363-115.735c19.068-36.824,48.241-63.439,85.888-79.896
		c-21.196,70.619-8.981,134.365,43.736,187.066C285.623,331.705,349.353,343.962,419.971,322.978z"/>
</g>
</svg>
