<?xml version="1.0" encoding="utf-8"?>
<!-- Generator: Adobe Illustrator 16.0.0, SVG Export Plug-In . SVG Version: 6.00 Build 0)  -->
<!DOCTYPE svg PUBLIC "-//W3C//DTD SVG 1.1//EN" "http://www.w3.org/Graphics/SVG/1.1/DTD/svg11.dtd">
<svg version="1.1" id="图层_1" xmlns="http://www.w3.org/2000/svg" xmlns:xlink="http://www.w3.org/1999/xlink" x="0px" y="0px"
	 width="513.094px" height="513.094px" viewBox="0 0 513.094 513.094" enable-background="new 0 0 513.094 513.094"
	 xml:space="preserve">
<g>
	<path fill="none" d="M1,257C1,173,1.027,89,0.904,5C0.899,1.576,1.576,0.903,5,0.905c168,0.108,336,0.108,504,0
		c3.424-0.002,4.096,0.671,4.094,4.095c-0.107,168-0.107,336,0,504c0.002,3.424-0.67,4.096-4.094,4.094c-168-0.107-336-0.107-504,0
		c-3.424,0.002-4.101-0.67-4.096-4.094C1.027,425,1,341,1,257z M125,257.518c0.329,73.605,59.487,129.882,128.604,131.234
		c78.338,1.535,132.729-58.373,135.145-125.438c2.873-79.863-58.666-135.44-125.886-138.242
		C185.334,121.842,124.118,185.641,125,257.518z M138.595,475.024c5.959,0.096,10.384-2.881,13.256-7.705
		c6.762-11.359,13.24-22.891,19.686-34.434c3.398-6.086,7.329-11.84,9.802-18.494c2.982-8.025-5.201-18.046-12.463-17.491
		c-7.185,0.55-11.721,4.214-14.924,10.261c-1.815,3.426-3.921,6.697-5.724,10.131c-6.936,13.205-16.087,25.174-21.525,39.232
		C122.911,466.331,128.306,475.016,138.595,475.024z M50.882,243c-8.99,0-17.98,0.044-26.969-0.012
		c-10.399-0.064-13.005,4.103-17.483,12.104c-0.688,1.229-0.512,2.508-0.031,3.827c2.458,6.735,9.288,11.981,16.563,12.035
		c18.645,0.137,37.292,0.188,55.934-0.05c4.938-0.063,9.807-1.815,12.254-6.599c5.469-10.693-0.151-21.107-12.3-21.279
		C69.528,242.895,60.204,243,50.882,243z M271,463.999c0-8.486-0.06-16.973,0.022-25.457c0.043-4.336-0.228-8.146-3.481-11.857
		c-3.744-4.268-9.197-6.994-15.047-5.473c-4.298,1.119-9.417,7.42-9.445,12.324c-0.112,19.967-0.144,39.936,0.011,59.9
		c0.048,6.219,9.285,14.994,14.704,14.521c6.007-0.523,13.178-8.301,13.219-14.508C271.047,483.633,271,473.817,271,463.999z
		 M463.833,243c-8.496,0-16.992,0.03-25.488-0.01c-6.58-0.031-12.184,1.297-15.814,7.787c-2.58,4.606-1.684,11.622,1.965,15.579
		c3.854,4.182,8.703,4.467,13.443,4.537c17.654,0.268,35.316,0.093,52.977,0.117c4.031,0.006,7.705-1.127,10.949-3.438
		c4.848-3.453,6.838-11.276,4.092-15.756c-3.568-5.822-8.422-9.132-15.637-8.889C481.499,243.228,472.663,243,463.833,243z
		 M271,51.224c0-9.317-0.026-18.636,0.012-27.953c0.018-4.222-0.766-8.217-4.031-11.104c-3.396-3.002-6.762-7.199-11.933-5.572
		c-8.255,2.598-11.937,7.861-12.003,16.564c-0.143,18.635-0.129,37.272,0,55.907c0.047,6.889,6.915,13.396,13.068,14.047
		c9.209,0.973,15.054-6.99,14.921-14.935C270.885,69.196,271,60.209,271,51.224z M375.641,39.015
		c-6.26-1.29-12.352,5.883-16.291,12.331c-6.182,10.118-12.08,20.415-17.857,30.771c-3.385,6.066-7.988,11.857-9.213,18.626
		c-1.334,7.38,0.289,11.834,10.795,15.839c5.025,1.915,11.809-1.481,14.926-6.789c9.477-16.124,18.916-32.272,28.117-48.554
		c2.273-4.026,4.787-8.591,1.789-13.336C385.047,43.376,382.36,38.24,375.641,39.015z M39,374.749
		c-0.005,10.797,10.285,17.397,19.178,12.521c17.56-9.63,35.096-19.331,52.277-29.612c7.462-4.466,8.782-12.09,4.483-19.767
		c-3.29-5.877-12.913-7.731-19.24-4.069c-14.998,8.682-30.221,16.993-44.953,26.104C45.193,363.356,37.55,366.193,39,374.749z
		 M117,168.015c0.001-4.583-3.186-9.667-7.516-12.173c-8.788-5.085-17.796-9.837-26.528-14.927
		c-8.832-5.147-17.325-10.836-26.772-14.88c-5.586-2.392-11.961-0.015-15.283,5.108c-4.657,7.18-0.737,16.644,6.166,20.82
		c2.721,1.646,5.827,2.651,8.579,4.254c4.562,2.656,8.938,5.63,13.47,8.338c3.71,2.218,7.455,4.403,11.325,6.319
		c6.756,3.345,12.318,8.804,20.188,10.261C110.262,182.92,116.998,177.859,117,168.015z M475,374.521
		c0.381-2.685-0.674-5.194-2.533-7.778c-3.127-4.346-7.982-6.004-12.188-8.601c-5.332-3.295-11.248-5.654-16.529-9.019
		c-9.336-5.947-18.58-12.074-28.92-16.117c-7.002-2.735-12.152-0.455-16.572,6.334c-2.672,4.105-1.361,11.629,2.504,15.982
		c2.932,3.303,7.063,4.643,10.719,6.512c8.518,4.359,16.18,10.117,24.852,14.252c6.762,3.224,12.686,8.063,19.703,11.045
		C466.225,391.465,475.002,386.006,475,374.521z M138.533,38.839c-1.791,0.192-3.838-0.112-5.33,0.659
		c-8.355,4.319-10.478,13.655-5.512,21.747c4.681,7.628,8.709,15.664,13.528,23.198c6.036,9.437,9.965,20.188,18,28.396
		c3.704,3.784,10.036,5.495,14.524,3.243c6.607-3.315,9.572-8.873,7.724-15.104c-2.697-9.094-8.764-16.486-12.988-24.822
		c-2.441-4.816-5.871-9.303-8.32-14.049c-1.707-3.307-4.357-6.113-5.395-10.039C152.628,43.985,145.766,39.001,138.533,38.839z
		 M475,138.989c1.537-10.146-11.316-16.882-19.875-12.55c-4.055,2.053-8.133,4.191-11.801,6.842
		c-7.627,5.512-16.342,9.108-24.168,14.354c-6.266,4.198-13.236,7.26-18.975,12.478c-3.916,3.562-3.975,7.681-2.682,11.692
		c2.465,7.643,11.316,14.131,23.119,7.005c14.479-8.744,29.193-17.1,43.809-25.62C469.973,149.958,475.692,146.86,475,138.989z
		 M374.842,475c10.473,0.014,15.693-7.557,13.027-17.701c-1.152-4.393-3.938-7.709-5.896-11.422
		c-7.43-14.082-15.613-27.789-24.039-41.312c-2.266-3.636-5.934-6.839-10.725-7.548c-10.521-1.559-19.271,11.221-13.395,20.434
		c1.922,3.01,3.375,6.314,5.174,9.41c7.686,13.215,15.24,26.512,23.234,39.537C364.989,470.905,368.299,475.586,374.842,475z"/>
	<path fill="#656565" d="M125,257.518c-0.882-71.877,60.334-135.676,137.863-132.445c67.22,2.802,128.759,58.379,125.886,138.242
		c-2.414,67.064-56.807,126.973-135.145,125.438C184.487,387.399,125.329,331.124,125,257.518z M355.631,256.89
		c0.99-46.158-37-97.3-97.575-98.562c-48.702-1.015-98.067,37.973-99.671,96.614c-1.372,50.15,38.067,96.896,92.042,100.501
		C304.797,359.072,355.438,316.461,355.631,256.89z"/>
	<path fill="#656565" d="M138.595,475.024c-10.289-0.008-15.684-8.693-11.891-18.5c5.438-14.059,14.589-26.027,21.525-39.232
		c1.803-3.434,3.909-6.705,5.724-10.131c3.203-6.047,7.739-9.711,14.924-10.261c7.262-0.555,15.445,9.466,12.463,17.491
		c-2.474,6.654-6.404,12.408-9.802,18.494c-6.446,11.543-12.924,23.074-19.686,34.434
		C148.979,472.145,144.554,475.12,138.595,475.024z"/>
	<path fill="#656565" d="M50.882,243c9.322,0,18.646-0.105,27.967,0.026c12.148,0.172,17.769,10.586,12.3,21.279
		c-2.447,4.783-7.316,6.535-12.254,6.599c-18.642,0.237-37.29,0.187-55.934,0.05c-7.274-0.054-14.104-5.3-16.563-12.035
		c-0.481-1.318-0.657-2.599,0.031-3.827c4.478-8.001,7.084-12.168,17.483-12.104C32.902,243.044,41.892,243,50.882,243z"/>
	<path fill="#656565" d="M271,463.999c0,9.818,0.047,19.635-0.019,29.453c-0.041,6.207-7.212,13.982-13.219,14.508
		c-5.418,0.471-14.655-8.305-14.704-14.523c-0.155-19.965-0.123-39.934-0.011-59.9c0.027-4.902,5.146-11.205,9.445-12.322
		c5.849-1.522,11.302,1.203,15.046,5.471c3.256,3.713,3.525,7.523,3.482,11.857C270.941,447.026,271,455.512,271,463.999z"/>
	<path fill="#656565" d="M463.833,243c8.83,0,17.666,0.228,26.486-0.071c7.215-0.243,12.066,3.066,15.637,8.889
		c2.744,4.479,0.756,12.302-4.092,15.755c-3.246,2.313-6.92,3.444-10.951,3.438c-17.658-0.023-35.32,0.15-52.977-0.116
		c-4.74-0.071-9.59-0.354-13.443-4.537c-3.646-3.957-4.543-10.973-1.965-15.579c3.633-6.49,9.236-7.818,15.814-7.787
		C446.84,243.03,455.336,243,463.833,243z"/>
	<path fill="#656565" d="M271,51.224c0,8.985-0.115,17.973,0.033,26.955c0.133,7.944-5.712,15.907-14.921,14.935
		c-6.153-0.65-13.021-7.158-13.068-14.047c-0.129-18.635-0.143-37.272,0-55.907c0.066-8.703,3.748-13.967,12.003-16.564
		c5.171-1.627,8.537,2.57,11.933,5.572c3.268,2.887,4.049,6.882,4.031,11.104C270.974,32.588,271,41.906,271,51.224z"/>
	<path fill="#656565" d="M375.641,39.015c6.719-0.774,9.406,4.361,12.266,8.888c2.998,4.745,0.484,9.31-1.789,13.336
		c-9.201,16.281-18.641,32.43-28.117,48.554c-3.117,5.308-9.9,8.704-14.926,6.789c-10.506-4.005-12.129-8.459-10.795-15.839
		c1.225-6.769,5.828-12.56,9.213-18.626c5.777-10.355,11.678-20.652,17.857-30.771C363.29,44.897,369.381,37.725,375.641,39.015z"/>
	<path fill="#656565" d="M39,374.749c-1.451-8.556,6.192-11.393,11.746-14.826c14.731-9.108,29.955-17.422,44.953-26.103
		c6.328-3.661,15.95-1.808,19.24,4.069c4.298,7.677,2.979,15.301-4.483,19.767c-17.181,10.281-34.717,19.982-52.277,29.612
		C49.285,392.146,38.996,385.545,39,374.749z"/>
	<path fill="#656565" d="M117,168.015c-0.002,9.845-6.738,14.905-16.372,13.121c-7.87-1.457-13.432-6.916-20.188-10.261
		c-3.87-1.916-7.615-4.102-11.325-6.319c-4.532-2.708-8.908-5.682-13.47-8.338c-2.752-1.603-5.858-2.607-8.579-4.254
		c-6.902-4.177-10.822-13.641-6.166-20.82c3.322-5.123,9.697-7.5,15.283-5.108c9.447,4.044,17.94,9.732,26.772,14.88
		c8.732,5.09,17.741,9.842,26.528,14.927C113.814,158.348,117.001,163.432,117,168.015z"/>
	<path fill="#656565" d="M475,374.521c0.002,11.483-8.775,16.942-18.967,12.61c-7.018-2.982-12.941-7.821-19.701-11.045
		c-8.672-4.135-16.334-9.893-24.854-14.252c-3.654-1.869-7.785-3.209-10.719-6.512c-3.863-4.354-5.176-11.877-2.502-15.982
		c4.42-6.789,9.57-9.069,16.57-6.334c10.34,4.043,19.584,10.17,28.922,16.117c5.281,3.363,11.197,5.724,16.529,9.019
		c4.203,2.597,9.061,4.255,12.186,8.601C474.327,369.327,475.381,371.838,475,374.521z"/>
	<path fill="#656565" d="M138.533,38.839c7.233,0.162,14.095,5.146,16.233,13.23c1.038,3.926,3.688,6.732,5.395,10.039
		c2.449,4.746,5.879,9.232,8.32,14.049c4.224,8.336,10.291,15.729,12.988,24.822c1.848,6.23-1.117,11.788-7.724,15.104
		c-4.488,2.252-10.82,0.541-14.524-3.243c-8.035-8.209-11.964-18.96-18-28.396c-4.819-7.534-8.847-15.57-13.528-23.198
		c-4.965-8.092-2.843-17.428,5.512-21.747C134.694,38.727,136.742,39.031,138.533,38.839z"/>
	<path fill="#656565" d="M475,138.989c0.691,7.871-5.027,10.969-10.57,14.2c-14.615,8.521-29.33,16.876-43.811,25.62
		c-11.803,7.126-20.654,0.638-23.117-7.005c-1.293-4.012-1.236-8.131,2.682-11.692c5.736-5.218,12.707-8.279,18.973-12.478
		c7.826-5.245,16.541-8.842,24.168-14.354c3.67-2.65,7.748-4.789,11.801-6.842C463.684,122.107,476.538,128.845,475,138.989z"/>
	<path fill="#656565" d="M374.844,475c-6.545,0.586-9.855-4.096-12.619-8.602c-7.994-13.025-15.551-26.322-23.234-39.537
		c-1.799-3.096-3.252-6.4-5.174-9.41c-5.877-9.213,2.873-21.99,13.395-20.434c4.791,0.709,8.459,3.912,10.727,7.548
		c8.424,13.522,16.607,27.229,24.037,41.312c1.959,3.713,4.742,7.029,5.896,11.422C390.536,467.444,385.313,475.014,374.844,475z"/>
	<path fill="none" d="M355.631,256.89c-0.195,59.571-50.834,102.183-105.205,98.554c-53.976-3.604-93.414-50.352-92.042-100.501
		c1.604-58.642,50.969-97.629,99.671-96.614C318.631,159.59,356.622,210.731,355.631,256.89z"/>
</g>
</svg>
