<?xml version="1.0" standalone="no"?><!DOCTYPE svg PUBLIC "-//W3C//DTD SVG 1.1//EN" "http://www.w3.org/Graphics/SVG/1.1/DTD/svg11.dtd"><svg t="1531904241442" class="icon" style="" viewBox="0 0 1024 1024" version="1.1" xmlns="http://www.w3.org/2000/svg" p-id="4411" xmlns:xlink="http://www.w3.org/1999/xlink" width="200" height="200"><defs><style type="text/css"></style></defs><path d="M512 0C229.696 0 0 229.696 0 512c0 282.282667 229.696 512 512 512 282.282667 0 512-229.717333 512-512C1024 229.696 794.282667 0 512 0zM512 981.269333C253.269333 981.269333 42.730667 770.730667 42.730667 512S253.269333 42.730667 512 42.730667 981.269333 253.269333 981.269333 512 770.730667 981.269333 512 981.269333z" p-id="4412" fill="#ff9b49"></path><path d="M766.741333 227.050667l-204.650667 204.629333c-14.592-9.130667-31.658667-14.656-50.112-14.656-18.453333 0-35.541333 5.504-50.133333 14.656l-94.250667-94.250667c-8.362667-8.362667-21.845333-8.362667-30.208 0s-8.362667 21.866667 0 30.229333l94.250667 94.250667c-9.130667 14.570667-14.634667 31.658667-14.634667 50.090667 0 52.352 42.581333 94.933333 94.954667 94.933333 52.330667 0 94.933333-42.581333 94.933333-94.933333 0-18.432-5.504-35.52-14.634667-50.090667l204.650667-204.650667c8.384-8.362667 8.384-21.845333 0-30.208S775.125333 218.688 766.741333 227.050667zM512 564.202667c-28.778667 0-52.224-23.424-52.224-52.202667 0-28.778667 23.424-52.224 52.224-52.224 28.8 0 52.202667 23.445333 52.202667 52.224C564.202667 540.8 540.8 564.202667 512 564.202667z" p-id="4413" fill="#ff9b49"></path></svg>