<?xml version="1.0" standalone="no"?><!DOCTYPE svg PUBLIC "-//W3C//DTD SVG 1.1//EN" "http://www.w3.org/Graphics/SVG/1.1/DTD/svg11.dtd"><svg t="1533629029241" class="icon" style="" viewBox="0 0 1024 1024" version="1.1" xmlns="http://www.w3.org/2000/svg" p-id="2467" xmlns:xlink="http://www.w3.org/1999/xlink" width="200" height="200"><defs><style type="text/css"></style></defs><path d="M806.875914 709.23306c0.054235 0.077771 0.127913 0.190335 0.127913 0.190335S651.310859 830.052776 512.795109 934.849564c-49.061392 37.141922-112.060215 30.837332-112.060215-14.022365L400.734894 765.247818c-185.688119 0-336.229764-156.75823-336.229764-350.135472 0-193.365986 150.541645-350.144682 336.229764-350.144682l224.164433 0c185.698353 0 336.229764 156.778696 336.229764 350.144682C961.130114 538.593681 899.578246 646.917806 806.875914 709.23306M610.872868 121.145128 414.752142 121.145128c-162.484651 0-294.196439 131.692345-294.196439 294.1596s131.706671 294.157553 294.196439 294.157553l42.033325 0 0 142.476969c0 31.145347 28.004821 25.600051 28.004821 25.600051l280.180214-210.143091-3.046383 0c85.697801-51.349505 143.156444-144.926764 143.156444-252.092505 0-162.466232-131.697461-294.1596-294.202579-294.1596L610.872868 121.144104 610.872868 121.145128zM610.872868 121.145128" p-id="2468" fill="#989898"></path><path d="M288.343127 416.250262m-62.930261 0a61.497 61.497 0 1 0 125.860523 0 61.497 61.497 0 1 0-125.860523 0Z" p-id="2469" fill="#989898"></path><path d="M512.461511 416.250262m-62.930261 0a61.497 61.497 0 1 0 125.860523 0 61.497 61.497 0 1 0-125.860523 0Z" p-id="2470" fill="#989898"></path><path d="M738.626507 416.250262m-62.930261 0a61.497 61.497 0 1 0 125.860523 0 61.497 61.497 0 1 0-125.860523 0Z" p-id="2471" fill="#989898"></path></svg>