<?xml version="1.0" standalone="no"?><!DOCTYPE svg PUBLIC "-//W3C//DTD SVG 1.1//EN" "http://www.w3.org/Graphics/SVG/1.1/DTD/svg11.dtd"><svg t="1533552252165" class="icon" style="" viewBox="0 0 1024 1024" version="1.1" xmlns="http://www.w3.org/2000/svg" p-id="1214" xmlns:xlink="http://www.w3.org/1999/xlink" width="200" height="200"><defs><style type="text/css"></style></defs><path d="M585.424725 530.261333h437.418667v36.522667H128.208725a18.2784 18.2784 0 0 1-18.261333-18.261333V321.194667c0-47.104 46.592-83.456 102.058667-83.456h710.144c55.637333 0 102.058667 36.181333 102.058666 83.456v227.328h-36.522666V321.194667c0-24.746667-28.501333-46.933333-65.536-46.933334H212.006059c-37.034667 0-65.536 22.186667-65.536 46.933334v227.328L128.208725 530.261333h420.522667v-256h36.693333v256z m347.306667 36.522667V907.946667c0 44.885333-25.941333 79.530667-54.954667 79.530666H256.379392c-29.013333 0-54.954667-34.816-54.954667-79.530666V566.784H164.731392V907.946667c0 62.976 39.765333 116.053333 91.648 116.053333h621.397333c51.882667 0 91.648-52.906667 91.648-116.053333V566.784h-36.693333z m-384 0v420.693333h36.693333V566.784h-36.693333z m109.738667-347.306667a91.392 91.392 0 1 0-182.784 0 18.261333 18.261333 0 0 0 36.522666 0 54.869333 54.869333 0 1 1 109.738667 0 18.261333 18.261333 0 1 0 36.522667 0z m26.965333-7.68c27.648-10.24 51.882667-9.386667 101.205333-0.170666 81.749333 15.36 115.2 10.752 148.650667-41.472 32.256-50.005333 13.824-96.768-38.4-129.536A293.7344 293.7344 0 0 0 754.896725 0c-84.650667 0-114.688 40.448-114.688 141.482667a18.261333 18.261333 0 0 0 36.522667 0c0-82.773333 16.384-104.96 78.165333-104.96a257.450667 257.450667 0 0 1 122.538667 34.986666c36.693333 23.04 46.762667 48.469333 27.136 79.018667-22.698667 35.157333-42.837333 38.058667-111.274667 25.258667-55.466667-10.410667-84.821333-11.605333-120.490666 1.536a18.363733 18.363733 0 1 0 12.629333 34.474666z m-224.085333-34.474666c-35.84-13.141333-65.024-11.946667-120.661334-1.536-68.266667 12.8-88.405333 9.898667-111.104-25.258667-19.626667-30.549333-9.557333-55.978667 27.136-79.018667a257.450667 257.450667 0 0 1 122.538667-34.986666c61.781333 0 78.165333 22.186667 78.165333 104.96a18.261333 18.261333 0 0 0 36.522667 0c0-101.034667-30.037333-141.482667-114.688-141.482667a293.2224 293.2224 0 0 0-141.994667 40.618667c-52.224 32.768-70.656 79.530667-38.4 129.536 33.450667 52.224 66.730667 56.832 148.650667 41.472 49.322667-9.216 73.557333-10.069333 101.205333 0.170666a18.363733 18.363733 0 0 0 12.629334-34.474666zM169.168725 146.773333c-2.56-0.512-6.656-1.365333-12.458666-2.218666a238.045867 238.045867 0 0 0-74.069334 2.048 145.698133 145.698133 0 0 0-50.346666 19.626666 114.7904 114.7904 0 0 0-27.989334 23.381334 18.261333 18.261333 0 1 0 28.330667 23.04 78.626133 78.626133 0 0 1 18.944-15.36 105.813333 105.813333 0 0 1 37.888-14.677334 193.706667 193.706667 0 0 1 62.293333-1.706666c4.437333 0.512 7.338667 1.194667 8.704 1.365333A18.2784 18.2784 0 0 0 169.168725 146.773333z" p-id="1215" fill="#ff9a49"></path></svg>