<?xml version="1.0" standalone="no"?><!DOCTYPE svg PUBLIC "-//W3C//DTD SVG 1.1//EN" "http://www.w3.org/Graphics/SVG/1.1/DTD/svg11.dtd"><svg t="1532413425415" class="icon" style="" viewBox="0 0 1024 1024" version="1.1" xmlns="http://www.w3.org/2000/svg" p-id="10085" xmlns:xlink="http://www.w3.org/1999/xlink" width="200" height="200"><defs><style type="text/css"></style></defs><path d="M597.333333 832c0 47.04-38.272 85.333333-85.333333 85.333333s-85.333333-38.293333-85.333333-85.333333 38.272-85.333333 85.333333-85.333333S597.333333 784.96 597.333333 832zM597.333333 512c0 47.04-38.272 85.333333-85.333333 85.333333s-85.333333-38.293333-85.333333-85.333333 38.272-85.333333 85.333333-85.333333S597.333333 464.96 597.333333 512zM597.333333 192c0 47.04-38.272 85.333333-85.333333 85.333333s-85.333333-38.293333-85.333333-85.333333 38.272-85.333333 85.333333-85.333333S597.333333 144.96 597.333333 192z" p-id="10086"></path></svg>