<?xml version="1.0" encoding="utf-8"?>
<!-- Generator: Adobe Illustrator 16.0.0, SVG Export Plug-In . SVG Version: 6.00 Build 0)  -->
<!DOCTYPE svg PUBLIC "-//W3C//DTD SVG 1.1//EN" "http://www.w3.org/Graphics/SVG/1.1/DTD/svg11.dtd">
<svg version="1.1" id="图层_1" xmlns="http://www.w3.org/2000/svg" xmlns:xlink="http://www.w3.org/1999/xlink" x="0px" y="0px"
	 width="200px" height="200px" viewBox="0 0 200 200" enable-background="new 0 0 200 200" xml:space="preserve">
<path fill="#989898" d="M100,159.091c-7.727,0-13.636-5.909-13.636-13.636c0-7.728,5.909-13.637,13.636-13.637
	c7.727,0,13.637,5.909,13.637,13.637C113.637,153.182,107.727,159.091,100,159.091z M100,113.637
	c-7.727,0-13.636-5.909-13.636-13.637S92.273,86.364,100,86.364c7.727,0,13.637,5.909,13.637,13.636S107.727,113.637,100,113.637z
	 M100,68.182c-7.727,0-13.636-5.909-13.636-13.636S92.273,40.909,100,40.909c7.727,0,13.637,5.909,13.637,13.636
	S107.727,68.182,100,68.182z"/>
</svg>
