<?xml version="1.0" encoding="utf-8"?>
<!-- Generator: Adobe Illustrator 16.0.0, SVG Export Plug-In . SVG Version: 6.00 Build 0)  -->
<!DOCTYPE svg PUBLIC "-//W3C//DTD SVG 1.1//EN" "http://www.w3.org/Graphics/SVG/1.1/DTD/svg11.dtd">
<svg version="1.1" id="图层_1" xmlns="http://www.w3.org/2000/svg" xmlns:xlink="http://www.w3.org/1999/xlink" x="0px" y="0px"
	 width="513.095px" height="513.095px" viewBox="0 0 513.095 513.095" enable-background="new 0 0 513.095 513.095"
	 xml:space="preserve">
<g>
	<path fill-rule="evenodd" clip-rule="evenodd" fill="none" d="M1,257C1,173,1.027,89,0.904,5C0.899,1.576,1.576,0.903,5,0.905
		c168,0.108,336,0.108,504,0c3.424-0.002,4.097,0.671,4.095,4.095c-0.108,168-0.108,336,0,504c0.002,3.424-0.671,4.097-4.095,4.095
		c-168-0.108-336-0.108-504,0c-3.424,0.002-4.101-0.671-4.096-4.095C1.027,425,1,341,1,257z M125,257.518
		c0.329,73.605,59.487,129.882,128.604,131.235c78.338,1.534,132.729-58.374,135.144-125.438
		c2.874-79.863-58.665-135.44-125.885-138.242C185.334,121.842,124.118,185.641,125,257.518z M138.595,475.024
		c5.959,0.096,10.384-2.88,13.256-7.705c6.762-11.359,13.24-22.89,19.686-34.434c3.398-6.085,7.329-11.839,9.802-18.494
		c2.982-8.025-5.201-18.046-12.463-17.491c-7.185,0.549-11.721,4.214-14.924,10.261c-1.815,3.426-3.921,6.697-5.724,10.13
		c-6.936,13.206-16.087,25.175-21.525,39.232C122.911,466.33,128.306,475.017,138.595,475.024z M50.882,243
		c-8.99,0-17.98,0.044-26.969-0.012c-10.399-0.064-13.005,4.103-17.483,12.104c-0.688,1.229-0.512,2.508-0.031,3.826
		c2.458,6.736,9.288,11.982,16.563,12.035c18.645,0.138,37.292,0.188,55.934-0.049c4.938-0.063,9.807-1.815,12.254-6.599
		c5.469-10.693-0.151-21.107-12.3-21.279C69.528,242.895,60.204,243,50.882,243z M271,463.999c0-8.486-0.059-16.973,0.023-25.458
		c0.043-4.335-0.227-8.146-3.482-11.857c-3.744-4.268-9.197-6.994-15.047-5.472c-4.298,1.118-9.417,7.42-9.445,12.323
		c-0.112,19.967-0.144,39.936,0.011,59.901c0.048,6.218,9.285,14.994,14.704,14.522c6.007-0.523,13.178-8.301,13.219-14.508
		C271.047,483.634,271,473.816,271,463.999z M463.832,243c-8.496,0-16.992,0.03-25.488-0.01c-6.579-0.031-12.184,1.297-15.815,7.787
		c-2.579,4.606-1.682,11.622,1.965,15.579c3.854,4.182,8.703,4.466,13.444,4.537c17.655,0.267,35.316,0.093,52.976,0.117
		c4.031,0.006,7.705-1.127,10.95-3.438c4.848-3.453,6.837-11.275,4.092-15.755c-3.569-5.822-8.422-9.132-15.637-8.889
		C481.499,243.228,472.662,243,463.832,243z M271,51.224c0-9.317-0.026-18.636,0.012-27.953c0.018-4.222-0.765-8.217-4.031-11.104
		c-3.396-3.002-6.762-7.199-11.933-5.572c-8.255,2.598-11.937,7.861-12.003,16.564c-0.143,18.635-0.129,37.272,0,55.907
		c0.047,6.889,6.915,13.396,13.068,14.047c9.209,0.973,15.053-6.99,14.921-14.935C270.886,69.196,271,60.209,271,51.224z
		 M375.642,39.015c-6.26-1.29-12.352,5.883-16.291,12.331c-6.182,10.118-12.081,20.415-17.859,30.771
		c-3.385,6.066-7.988,11.857-9.212,18.626c-1.334,7.38,0.288,11.834,10.795,15.839c5.025,1.915,11.808-1.481,14.926-6.789
		c9.477-16.124,18.915-32.272,28.116-48.554c2.274-4.026,4.787-8.591,1.79-13.336C385.048,43.376,382.359,38.24,375.642,39.015z
		 M39,374.748c-0.005,10.798,10.285,17.398,19.178,12.521c17.56-9.63,35.096-19.331,52.277-29.612
		c7.462-4.466,8.782-12.09,4.483-19.767c-3.29-5.877-12.913-7.731-19.24-4.069c-14.998,8.681-30.221,16.993-44.953,26.103
		C45.193,363.356,37.55,366.193,39,374.748z M117,168.015c0.001-4.583-3.186-9.667-7.516-12.173
		c-8.788-5.085-17.796-9.837-26.528-14.927c-8.832-5.147-17.325-10.836-26.772-14.88c-5.586-2.392-11.961-0.015-15.283,5.108
		c-4.657,7.18-0.737,16.644,6.166,20.82c2.721,1.646,5.827,2.651,8.579,4.254c4.562,2.656,8.938,5.63,13.47,8.338
		c3.71,2.218,7.455,4.403,11.325,6.319c6.756,3.345,12.318,8.804,20.188,10.261C110.262,182.92,116.998,177.859,117,168.015z
		 M475,374.521c0.382-2.684-0.674-5.194-2.533-7.778c-3.126-4.346-7.982-6.004-12.187-8.601c-5.332-3.295-11.248-5.654-16.529-9.019
		c-9.337-5.947-18.581-12.074-28.921-16.116c-7.001-2.736-12.151-0.456-16.571,6.333c-2.673,4.106-1.362,11.63,2.503,15.983
		c2.932,3.303,7.063,4.643,10.718,6.512c8.519,4.359,16.181,10.117,24.853,14.251c6.761,3.224,12.686,8.063,19.702,11.046
		C466.226,391.465,475.003,386.006,475,374.521z M138.533,38.839c-1.791,0.192-3.838-0.112-5.33,0.659
		c-8.355,4.319-10.478,13.655-5.512,21.747c4.681,7.628,8.709,15.664,13.528,23.198c6.036,9.437,9.965,20.188,18,28.396
		c3.704,3.784,10.036,5.495,14.524,3.243c6.607-3.315,9.572-8.873,7.724-15.104c-2.697-9.094-8.764-16.486-12.988-24.822
		c-2.441-4.816-5.871-9.303-8.32-14.049c-1.707-3.307-4.357-6.113-5.395-10.039C152.628,43.985,145.766,39.001,138.533,38.839z
		 M475,138.989c1.537-10.145-11.316-16.882-19.875-12.55c-4.054,2.053-8.132,4.191-11.801,6.842
		c-7.627,5.512-16.342,9.108-24.168,14.354c-6.265,4.198-13.235,7.26-18.973,12.478c-3.917,3.562-3.975,7.681-2.682,11.692
		c2.464,7.643,11.315,14.131,23.118,7.005c14.48-8.744,29.194-17.1,43.81-25.62C469.974,149.958,475.691,146.86,475,138.989z
		 M374.843,475c10.471,0.014,15.693-7.556,13.027-17.7c-1.153-4.394-3.937-7.709-5.896-11.422
		c-7.43-14.083-15.614-27.789-24.039-41.312c-2.266-3.636-5.934-6.839-10.726-7.548c-10.521-1.558-19.271,11.221-13.394,20.433
		c1.921,3.011,3.374,6.316,5.173,9.41c7.686,13.215,15.241,26.512,23.235,39.538C364.988,470.904,368.299,475.586,374.843,475z"/>
	<path fill-rule="evenodd" clip-rule="evenodd" fill="#FE9A01" d="M125,257.518c-0.882-71.877,60.334-135.676,137.863-132.445
		c67.22,2.802,128.759,58.379,125.885,138.242c-2.414,67.064-56.806,126.973-135.144,125.438
		C184.487,387.399,125.329,331.123,125,257.518z M355.632,256.89c0.99-46.158-37-97.3-97.576-98.562
		c-48.702-1.015-98.067,37.973-99.671,96.614c-1.372,50.15,38.067,96.897,92.042,100.501
		C304.797,359.072,355.437,316.462,355.632,256.89z"/>
	<path fill-rule="evenodd" clip-rule="evenodd" fill="#FE9A01" d="M138.595,475.024c-10.289-0.008-15.684-8.694-11.891-18.501
		c5.438-14.058,14.589-26.026,21.525-39.232c1.803-3.433,3.909-6.704,5.724-10.13c3.203-6.047,7.739-9.712,14.924-10.261
		c7.262-0.555,15.445,9.466,12.463,17.491c-2.474,6.655-6.404,12.409-9.802,18.494c-6.446,11.544-12.924,23.074-19.686,34.434
		C148.979,472.145,144.554,475.12,138.595,475.024z"/>
	<path fill-rule="evenodd" clip-rule="evenodd" fill="#FE9A01" d="M50.882,243c9.322,0,18.646-0.105,27.967,0.026
		c12.148,0.172,17.769,10.586,12.3,21.279c-2.447,4.783-7.316,6.535-12.254,6.599c-18.642,0.237-37.29,0.187-55.934,0.049
		c-7.274-0.053-14.104-5.299-16.563-12.035c-0.481-1.318-0.657-2.598,0.031-3.826c4.478-8.001,7.084-12.168,17.483-12.104
		C32.902,243.044,41.892,243,50.882,243z"/>
	<path fill-rule="evenodd" clip-rule="evenodd" fill="#FE9A01" d="M271,463.999c0,9.817,0.047,19.635-0.018,29.452
		c-0.041,6.207-7.212,13.984-13.219,14.508c-5.418,0.472-14.655-8.305-14.704-14.522c-0.155-19.966-0.123-39.935-0.011-59.901
		c0.027-4.903,5.146-11.205,9.445-12.323c5.85-1.522,11.303,1.204,15.047,5.472c3.256,3.712,3.525,7.522,3.482,11.857
		C270.941,447.026,271,455.513,271,463.999z"/>
	<path fill-rule="evenodd" clip-rule="evenodd" fill="#FE9A01" d="M463.832,243c8.83,0,17.667,0.228,26.486-0.071
		c7.215-0.243,12.067,3.066,15.637,8.889c2.745,4.479,0.756,12.302-4.092,15.755c-3.245,2.312-6.919,3.444-10.95,3.438
		c-17.659-0.024-35.32,0.149-52.976-0.117c-4.741-0.071-9.59-0.355-13.444-4.537c-3.646-3.957-4.544-10.973-1.965-15.579
		c3.632-6.49,9.236-7.818,15.815-7.787C446.84,243.03,455.336,243,463.832,243z"/>
	<path fill-rule="evenodd" clip-rule="evenodd" fill="#FE9A01" d="M271,51.224c0,8.985-0.114,17.973,0.034,26.955
		c0.132,7.944-5.712,15.907-14.921,14.935c-6.153-0.65-13.021-7.158-13.068-14.047c-0.129-18.635-0.143-37.272,0-55.907
		c0.066-8.703,3.748-13.967,12.003-16.564c5.171-1.627,8.537,2.57,11.933,5.572c3.267,2.887,4.049,6.882,4.031,11.104
		C270.974,32.588,271,41.906,271,51.224z"/>
	<path fill-rule="evenodd" clip-rule="evenodd" fill="#FE9A01" d="M375.642,39.015c6.718-0.774,9.406,4.361,12.265,8.888
		c2.997,4.745,0.484,9.31-1.79,13.336c-9.201,16.281-18.64,32.43-28.116,48.554c-3.118,5.308-9.9,8.704-14.926,6.789
		c-10.507-4.005-12.129-8.459-10.795-15.839c1.224-6.769,5.827-12.56,9.212-18.626c5.778-10.355,11.678-20.652,17.859-30.771
		C363.29,44.897,369.382,37.725,375.642,39.015z"/>
	<path fill-rule="evenodd" clip-rule="evenodd" fill="#FE9A01" d="M39,374.748c-1.451-8.555,6.192-11.392,11.746-14.825
		c14.731-9.109,29.955-17.422,44.953-26.103c6.328-3.662,15.95-1.808,19.24,4.069c4.298,7.677,2.979,15.301-4.483,19.767
		c-17.181,10.281-34.717,19.982-52.277,29.612C49.285,392.146,38.996,385.546,39,374.748z"/>
	<path fill-rule="evenodd" clip-rule="evenodd" fill="#FE9A01" d="M117,168.015c-0.002,9.845-6.738,14.905-16.372,13.121
		c-7.87-1.457-13.432-6.916-20.188-10.261c-3.87-1.916-7.615-4.102-11.325-6.319c-4.532-2.708-8.908-5.682-13.47-8.338
		c-2.752-1.603-5.858-2.607-8.579-4.254c-6.902-4.177-10.822-13.641-6.166-20.82c3.322-5.123,9.697-7.5,15.283-5.108
		c9.447,4.044,17.94,9.732,26.772,14.88c8.732,5.09,17.741,9.842,26.528,14.927C113.814,158.348,117.001,163.432,117,168.015z"/>
	<path fill-rule="evenodd" clip-rule="evenodd" fill="#FE9A01" d="M475,374.521c0.003,11.484-8.774,16.943-18.966,12.611
		c-7.017-2.983-12.941-7.822-19.702-11.046c-8.672-4.134-16.334-9.892-24.853-14.251c-3.654-1.869-7.786-3.209-10.718-6.512
		c-3.865-4.354-5.176-11.877-2.503-15.983c4.42-6.789,9.57-9.069,16.571-6.333c10.34,4.042,19.584,10.169,28.921,16.116
		c5.281,3.364,11.197,5.724,16.529,9.019c4.204,2.597,9.061,4.255,12.187,8.601C474.326,369.327,475.382,371.838,475,374.521z"/>
	<path fill-rule="evenodd" clip-rule="evenodd" fill="#FE9A01" d="M138.533,38.839c7.233,0.162,14.095,5.146,16.233,13.23
		c1.038,3.926,3.688,6.732,5.395,10.039c2.449,4.746,5.879,9.232,8.32,14.049c4.224,8.336,10.291,15.729,12.988,24.822
		c1.848,6.23-1.117,11.788-7.724,15.104c-4.488,2.252-10.82,0.541-14.524-3.243c-8.035-8.209-11.964-18.96-18-28.396
		c-4.819-7.534-8.847-15.57-13.528-23.198c-4.965-8.092-2.843-17.428,5.512-21.747C134.694,38.727,136.742,39.031,138.533,38.839z"
		/>
	<path fill-rule="evenodd" clip-rule="evenodd" fill="#FE9A01" d="M475,138.989c0.691,7.871-5.026,10.969-10.57,14.2
		c-14.615,8.521-29.329,16.876-43.81,25.62c-11.803,7.126-20.654,0.638-23.118-7.005c-1.293-4.012-1.235-8.131,2.682-11.692
		c5.737-5.218,12.708-8.279,18.973-12.478c7.826-5.245,16.541-8.842,24.168-14.354c3.669-2.65,7.747-4.789,11.801-6.842
		C463.684,122.107,476.537,128.845,475,138.989z"/>
	<path fill-rule="evenodd" clip-rule="evenodd" fill="#FE9A01" d="M374.844,475c-6.545,0.586-9.855-4.096-12.619-8.601
		c-7.994-13.026-15.55-26.323-23.235-39.538c-1.799-3.094-3.252-6.399-5.173-9.41c-5.878-9.212,2.872-21.99,13.394-20.433
		c4.792,0.709,8.46,3.912,10.726,7.548c8.425,13.522,16.609,27.229,24.039,41.312c1.959,3.713,4.742,7.028,5.896,11.422
		C390.536,467.444,385.313,475.014,374.844,475z"/>
	<path fill-rule="evenodd" clip-rule="evenodd" fill="none" d="M355.632,256.89c-0.195,59.572-50.835,102.183-105.205,98.554
		c-53.976-3.604-93.414-50.351-92.042-100.501c1.604-58.642,50.969-97.629,99.671-96.614
		C318.632,159.59,356.622,210.731,355.632,256.89z"/>
</g>
</svg>
