<?xml version="1.0" standalone="no"?><!DOCTYPE svg PUBLIC "-//W3C//DTD SVG 1.1//EN" "http://www.w3.org/Graphics/SVG/1.1/DTD/svg11.dtd"><svg t="1535694608312" class="icon" style="" viewBox="0 0 1024 1024" version="1.1" xmlns="http://www.w3.org/2000/svg" p-id="1140" xmlns:xlink="http://www.w3.org/1999/xlink" width="200" height="200"><defs><style type="text/css"></style></defs><path d="M989.184 391.488l-79.168 46.144c4.48 24.256 7.36 48.96 7.36 74.496 0 25.536-2.88 50.24-7.36 74.496l79.168 46.08c32.32 18.88 43.392 60.608 24.704 93.248l-67.584 118.144a67.2 67.2 0 0 1-92.288 24.96l-80-46.592a404.288 404.288 0 0 1-126.976 75.2v57.92c0 37.696-30.208 68.224-67.584 68.224H444.288a67.904 67.904 0 0 1-67.584-68.224v-57.92a404.096 404.096 0 0 1-126.976-75.2l-80 46.592c-32.32 18.88-73.6 7.68-92.352-24.96L9.856 725.952A68.48 68.48 0 0 1 34.56 632.768l79.168-46.144a413.056 413.056 0 0 1-7.36-74.496c0-25.536 2.88-50.24 7.36-74.496L34.56 391.552A68.48 68.48 0 0 1 9.856 298.24l67.52-118.144c18.752-32.64 60.032-43.84 92.352-24.96l80 46.528a404.032 404.032 0 0 1 126.976-75.136v-57.92c0-37.696 30.272-68.224 67.584-68.224h135.168c37.376 0 67.584 30.528 67.584 68.224v57.92a404.224 404.224 0 0 1 127.04 75.136l79.936-46.528a67.2 67.2 0 0 1 92.288 24.96l67.584 118.144a68.48 68.48 0 0 1-24.704 93.184z m-50.688-88.576l-33.792-59.136a33.664 33.664 0 0 0-46.208-12.48l-93.824 54.72a336.576 336.576 0 0 0-185.216-108.16V102.784a33.92 33.92 0 0 0-33.792-34.112H478.08a33.92 33.92 0 0 0-33.792 34.112v75.072A336.32 336.32 0 0 0 259.2 286.08l-93.888-54.72a33.664 33.664 0 0 0-46.208 12.48l-33.792 59.136a34.304 34.304 0 0 0 12.416 46.592l94.272 54.912a342.08 342.08 0 0 0-17.92 107.712c0 37.76 6.656 73.792 17.92 107.712l-94.272 54.912a34.304 34.304 0 0 0-12.416 46.592l33.792 59.136a33.6 33.6 0 0 0 46.208 12.48l93.824-54.72a336.704 336.704 0 0 0 185.216 108.16v75.072a33.92 33.92 0 0 0 33.792 34.112h67.584a33.92 33.92 0 0 0 33.792-34.112v-75.072a336.768 336.768 0 0 0 185.216-108.16l93.824 54.72c16.192 9.408 36.928 3.84 46.208-12.48l33.792-59.136a34.304 34.304 0 0 0-12.352-46.592l-94.336-54.912c11.264-33.92 17.984-69.952 17.984-107.712 0-37.76-6.72-73.728-17.92-107.712l94.272-54.912a34.368 34.368 0 0 0 12.352-46.592z m-426.624 379.776c-93.312 0-168.96-76.352-168.96-170.56s75.648-170.56 168.96-170.56c93.312 0 168.96 76.352 168.96 170.56s-75.648 170.56-168.96 170.56z m0-272.896c-56 0-101.376 45.824-101.376 102.336s45.44 102.4 101.376 102.4c56 0 101.376-45.888 101.376-102.4 0-56.512-45.376-102.336-101.376-102.336z" p-id="1141" fill="#ffffff"></path></svg>