<?xml version="1.0" encoding="utf-8"?>
<!-- Generator: Adobe Illustrator 16.0.0, SVG Export Plug-In . SVG Version: 6.00 Build 0)  -->
<!DOCTYPE svg PUBLIC "-//W3C//DTD SVG 1.1//EN" "http://www.w3.org/Graphics/SVG/1.1/DTD/svg11.dtd">
<svg version="1.1" id="图层_1" xmlns="http://www.w3.org/2000/svg" xmlns:xlink="http://www.w3.org/1999/xlink" x="0px" y="0px"
	 width="200px" height="200px" viewBox="0 0 200 200" enable-background="new 0 0 200 200" xml:space="preserve">
<g>
	<g>
		<path fill-rule="evenodd" clip-rule="evenodd" fill="#FE4A75" d="M112,201c-8.334,0-16.667,0-25,0
			c-0.854-0.356-1.679-0.904-2.567-1.04c-14.682-2.237-29.112-5.423-42.313-12.524C20.281,175.688,9.33,156.21,4.006,132.869
			C2.954,128.258,2,123.624,1,119c0-11.333,0-22.667,0-34c1.331-5.892,2.543-11.813,4.015-17.67
			c6.131-24.399,17.616-44.922,42.151-55.033c8.675-3.575,17.957-5.703,27.013-8.313C78.39,2.77,82.723,1.981,87,1
			c9.333,0,18.666,0,28,0c4.436,0.991,8.852,2.077,13.31,2.956c15.985,3.152,31.179,8.265,43.833,18.94
			c15.251,12.868,21.947,30.391,25.867,49.287c1.023,4.934,1.994,9.877,2.99,14.816c0,11,0,22,0,33
			c-1.008,4.264-2.016,8.527-3.021,12.792c-5.393,22.862-15.588,42.755-37.438,53.727c-10.243,5.144-21.695,7.965-32.736,11.392
			C122.707,199.492,117.278,200.003,112,201z M120.729,126.477c2.905-0.154,5.405-0.213,7.892-0.43
			c18.222-1.586,31.14-18.84,27.558-36.771c-4.605-23.049-24.034-40.452-47.955-42.954c-25.388-2.655-47.029,9.552-57.147,32.235
			c-16.228,36.378,8.791,77.641,47.479,78.332c4.357,0.077,8.612-0.444,10.683-4.814c1.905-4.022,0.716-7.759-1.44-11.755
			c-1.424-2.639-1.412-6.654-0.654-9.708c0.883-3.555,4.316-4.748,8.028-4.429C117.154,126.354,119.148,126.396,120.729,126.477z"/>
		<path fill-rule="evenodd" clip-rule="evenodd" fill="none" d="M87,1c-4.277,0.981-8.61,1.77-12.821,2.983
			c-9.056,2.61-18.338,4.738-27.013,8.313C22.63,22.408,11.146,42.931,5.015,67.33C3.543,73.187,2.331,79.108,1,85
			C1,57.082,1,29.164,1,1C29.666,1,58.333,1,87,1z"/>
		<path fill-rule="evenodd" clip-rule="evenodd" fill="none" d="M201,87c-0.996-4.939-1.967-9.883-2.99-14.816
			c-3.92-18.896-10.616-36.419-25.867-49.287c-12.654-10.676-27.848-15.788-43.833-18.94C123.852,3.077,119.436,1.991,115,1
			c28.666,0,57.334,0,86,0C201,29.667,201,58.333,201,87z"/>
		<path fill-rule="evenodd" clip-rule="evenodd" fill="none" d="M112,201c5.278-0.997,10.707-1.508,15.805-3.09
			c11.041-3.427,22.493-6.248,32.736-11.392c21.85-10.972,32.045-30.864,37.438-53.727c1.006-4.265,2.014-8.528,3.021-12.792
			c0,27,0,54,0,81C171.334,201,141.666,201,112,201z"/>
		<path fill-rule="evenodd" clip-rule="evenodd" fill="none" d="M1,119c1,4.624,1.954,9.258,3.006,13.869
			c5.324,23.341,16.275,42.819,38.113,54.566c13.202,7.102,27.632,10.287,42.313,12.524c0.888,0.136,1.713,0.684,2.567,1.04
			c-28.582,0-57.163,0-86,0C1,173.667,1,146.334,1,119z"/>
		<path fill-rule="evenodd" clip-rule="evenodd" fill="none" d="M120.729,126.477c-1.58-0.08-3.574-0.122-5.558-0.293
			c-3.712-0.319-7.146,0.874-8.028,4.429c-0.758,3.054-0.77,7.069,0.654,9.708c2.156,3.996,3.346,7.732,1.44,11.755
			c-2.07,4.37-6.325,4.892-10.683,4.814c-38.689-0.691-63.708-41.954-47.479-78.332c10.119-22.684,31.76-34.891,57.147-32.235
			c23.921,2.502,43.35,19.905,47.955,42.954c3.582,17.931-9.336,35.185-27.558,36.771
			C126.134,126.264,123.634,126.322,120.729,126.477z M144.807,91.929c0.021-5.136-4.324-9.647-9.428-9.785
			c-5.418-0.146-9.859,4.289-9.801,9.785c0.055,5.224,4.398,9.556,9.557,9.534C140.255,101.442,144.785,96.977,144.807,91.929z
			 M95.369,68.23c0.088-5.244-4.071-9.739-9.215-9.96c-5.234-0.226-10.011,4.42-9.995,9.719c0.016,5.103,4.45,9.619,9.519,9.694
			C90.8,77.76,95.283,73.388,95.369,68.23z M67.677,82.145c-5.166-0.026-9.561,4.279-9.658,9.463
			c-0.102,5.424,4.39,9.955,9.764,9.849c5.175-0.103,9.444-4.522,9.383-9.714C77.104,86.441,72.881,82.171,67.677,82.145z
			 M126.262,67.963c-0.047-5.28-4.294-9.647-9.434-9.701c-5.284-0.056-9.887,4.679-9.713,9.992c0.167,5.133,4.716,9.521,9.771,9.428
			C122.085,77.585,126.309,73.207,126.262,67.963z"/>
		<path fill-rule="evenodd" clip-rule="evenodd" fill="#FE4E78" d="M144.807,91.929c-0.021,5.048-4.552,9.514-9.672,9.534
			c-5.158,0.021-9.502-4.311-9.557-9.534c-0.059-5.496,4.383-9.931,9.801-9.785C140.482,82.281,144.828,86.793,144.807,91.929z"/>
		<path fill-rule="evenodd" clip-rule="evenodd" fill="#FE4E78" d="M95.369,68.23c-0.086,5.157-4.569,9.529-9.691,9.453
			c-5.068-0.075-9.502-4.592-9.519-9.694c-0.017-5.299,4.76-9.944,9.995-9.719C91.298,58.491,95.458,62.986,95.369,68.23z"/>
		<path fill-rule="evenodd" clip-rule="evenodd" fill="#FE4E78" d="M67.677,82.145c5.205,0.026,9.427,4.297,9.489,9.598
			c0.062,5.191-4.208,9.611-9.383,9.714c-5.374,0.106-9.866-4.425-9.764-9.849C58.116,86.424,62.511,82.118,67.677,82.145z"/>
		<path fill-rule="evenodd" clip-rule="evenodd" fill="#FE4E79" d="M126.262,67.963c0.047,5.244-4.177,9.622-9.375,9.719
			c-5.056,0.094-9.604-4.295-9.771-9.428c-0.174-5.313,4.429-10.048,9.713-9.992C121.968,58.315,126.215,62.683,126.262,67.963z"/>
	</g>
</g>
</svg>
