<?xml version="1.0" standalone="no"?><!DOCTYPE svg PUBLIC "-//W3C//DTD SVG 1.1//EN" "http://www.w3.org/Graphics/SVG/1.1/DTD/svg11.dtd"><svg t="1537331634567" class="icon" style="" viewBox="0 0 1024 1024" version="1.1" xmlns="http://www.w3.org/2000/svg" p-id="4542" xmlns:xlink="http://www.w3.org/1999/xlink" width="200" height="200"><defs><style type="text/css"></style></defs><path d="M512 961.877333C238.933333 961.877333 17.066667 795.306667 17.066667 534.528S238.933333 62.122667 512 62.122667 1006.933333 228.693333 1006.933333 489.472C1006.933333 620.202667 827.050667 648.533333 648.533333 648.533333c-45.056 0 90.112 315.050667-136.533333 315.050667z m-2.048-37.205333c181.930667-7.850667 46.762667-322.901333 91.818667-322.901333 90.112 0 360.106667 10.922667 360.106666-108.544 0-238.933333-198.314667-386.389333-448.170666-386.389334S62.122667 300.032 62.122667 538.282667s224.938667 378.538667 447.829333 386.389333zM242.005333 512a90.112 90.112 0 1 1 90.112-90.112A90.112 90.112 0 0 1 242.005333 512z m0-45.056a45.056 45.056 0 1 0-45.056-45.056 45.056 45.056 0 0 0 45.056 45.056z m45.056 315.050667A90.112 90.112 0 1 1 375.466667 691.882667a90.112 90.112 0 0 1-90.112 90.112z m0-45.056a45.056 45.056 0 1 0-45.056-45.056 45.056 45.056 0 0 0 45.056 45.056z m179.882667-404.821334a90.112 90.112 0 1 1 90.112-90.112 90.112 90.112 0 0 1-90.112 90.112z m0-45.056a45.056 45.056 0 1 0-45.056-45.056 45.056 45.056 0 0 0 45.056 45.056z m269.994667 136.533334a90.112 90.112 0 1 1 90.112-90.112 90.112 90.112 0 0 1-90.112 90.112z m0-45.056a45.056 45.056 0 1 0-45.056-45.056A45.056 45.056 0 0 0 736.938667 375.466667z m0 0" p-id="4543" fill="#ff4676"></path></svg>