<?xml version="1.0" standalone="no"?><!DOCTYPE svg PUBLIC "-//W3C//DTD SVG 1.1//EN" "http://www.w3.org/Graphics/SVG/1.1/DTD/svg11.dtd"><svg t="1546929211452" class="icon" style="" viewBox="0 0 1024 1024" version="1.1" xmlns="http://www.w3.org/2000/svg" p-id="2352" xmlns:xlink="http://www.w3.org/1999/xlink" width="32" height="32"><defs><style type="text/css"></style></defs><path d="M634.645333 803.221333 168.554667 803.221333C75.605333 803.221333 0 727.594667 0 634.666667L0 168.554667C0 75.605333 75.605333 0 168.554667 0l466.090667 0c92.970667 0 168.576 75.605333 168.576 168.554667L803.221333 634.666667C803.221333 727.594667 727.616 803.221333 634.645333 803.221333zM168.554667 42.730667c-69.376 0-125.824 56.448-125.824 125.824L42.730667 634.666667c0 69.376 56.448 125.802667 125.824 125.802667l466.090667 0c69.397333 0 125.824-56.448 125.824-125.802667L760.469333 168.554667c0-69.354667-56.448-125.824-125.824-125.824L168.554667 42.730667z" p-id="2353"></path><path d="M855.445333 1024 389.333333 1024c-92.949333 0-168.554667-75.626667-168.554667-168.554667l0-73.578667c0-11.818667 9.557333-21.376 21.354667-21.376s21.354667 9.557333 21.354667 21.376l0 73.578667c0 69.376 56.448 125.824 125.824 125.824l466.090667 0c69.376 0 125.824-56.448 125.824-125.824L981.226667 389.333333c0-69.376-56.448-125.824-125.824-125.824l-73.578667 0c-11.84 0-21.376-9.578667-21.376-21.354667 0-11.797333 9.536-21.354667 21.376-21.354667l73.578667 0c92.928 0 168.554667 75.605333 168.554667 168.554667l0 466.112C1024 948.373333 948.373333 1024 855.445333 1024z" p-id="2354"></path></svg>