<?xml version="1.0" standalone="no"?><!DOCTYPE svg PUBLIC "-//W3C//DTD SVG 1.1//EN" "http://www.w3.org/Graphics/SVG/1.1/DTD/svg11.dtd"><svg t="1537333566891" class="icon" style="" viewBox="0 0 1024 1024" version="1.1" xmlns="http://www.w3.org/2000/svg" p-id="6282" xmlns:xlink="http://www.w3.org/1999/xlink" width="200" height="200"><defs><style type="text/css"></style></defs><path d="M531.314 266.657c-10.617-12.364-28.021-12.364-38.643 0L174.795 637.639c-10.617 12.365-5.975 22.521 10.395 22.521h118.838c16.361 0 29.707 13.346 29.707 29.717v238.721c0 16.365 13.351 29.716 29.712 29.716h297.099c16.371 0 29.707-13.351 29.707-29.716V689.876c0-16.371 13.348-29.717 29.719-29.717h118.834c16.361 0 21.01-10.155 10.389-22.521L531.314 266.657z m0 0M214.897 182.705h594.2c32.844 0 59.424-26.583 59.424-59.427 0-32.854-26.58-59.433-59.424-59.433h-594.2c-32.839 0-59.418 26.58-59.418 59.433 0 32.844 26.575 59.427 59.418 59.427z m0 0" fill="#ffffff" p-id="6283"></path></svg>