<?xml version="1.0" standalone="no"?><!DOCTYPE svg PUBLIC "-//W3C//DTD SVG 1.1//EN" "http://www.w3.org/Graphics/SVG/1.1/DTD/svg11.dtd"><svg t="1532072626216" class="icon" style="" viewBox="0 0 1024 1024" version="1.1" xmlns="http://www.w3.org/2000/svg" p-id="1274" xmlns:xlink="http://www.w3.org/1999/xlink" width="200" height="200"><defs><style type="text/css"></style></defs><path d="M954.854886 512C954.854886 267.418001 756.581999 69.145114 512 69.145114 267.418001 69.145114 69.145114 267.418001 69.145114 512 69.145114 756.581999 267.418001 954.854886 512 954.854886 756.581999 954.854886 954.854886 756.581999 954.854886 512ZM97.716397 512C97.716397 283.197484 283.197484 97.716397 512 97.716397 740.802516 97.716397 926.283603 283.197484 926.283603 512 926.283603 740.802516 740.802516 926.283603 512 926.283603 283.197484 926.283603 97.716397 740.802516 97.716397 512Z" p-id="1275" fill="#ffffff"></path><path d="M437.763438 686.669033C452.286479 705.335114 479.468285 705.62405 494.339774 687.157359L724.074654 401.883775C733.971792 389.593991 732.03217 371.607938 719.742386 361.7108 707.452603 351.813663 689.466549 353.753285 679.569412 366.04307L449.834532 651.316653C458.122119 641.02553 474.789691 641.202702 482.863219 651.579397L367.816205 503.712509C358.126469 491.258549 340.175457 489.017701 327.721497 498.707437 315.267536 508.397171 313.026689 526.348185 322.716424 538.802145L437.763438 686.669033Z" p-id="1276" fill="#ffffff"></path></svg>