<?xml version="1.0" standalone="no"?><!DOCTYPE svg PUBLIC "-//W3C//DTD SVG 1.1//EN" "http://www.w3.org/Graphics/SVG/1.1/DTD/svg11.dtd"><svg t="1534401746323" class="icon" style="" viewBox="0 0 1024 1024" version="1.1" xmlns="http://www.w3.org/2000/svg" p-id="15413" xmlns:xlink="http://www.w3.org/1999/xlink" width="200" height="200"><defs><style type="text/css"></style></defs><path d="M361.089509 772.891848l-152.955088-150.443309-96.209961 256.579522L361.089509 772.891848 361.089509 772.891848zM852.065564 291.764569 694.164395 128.985497 236.47367 580.521512l164.105464 170.193545 451.48643-458.94429L852.065564 291.764569zM982.127981 167.392005c29.701281-31.802436-15.930659-82.451735-15.930659-82.451735s-25.869307-34.168559-73.947946-69.324165c-48.131322-35.135462-85.157204 0-85.157204 0l-81.39186 81.410454L891.014406 261.730141c0 0 69.692952-70.291068 91.119773-94.338135L982.127981 167.392005zM982.127981 167.392005" fill="#989898" p-id="15414"></path><path d="M31.828003 942.752246l919.594606 0 0 81.247754L31.828003 1024 31.828003 942.752246 31.828003 942.752246zM31.828003 942.752246" fill="#989898" p-id="15415"></path></svg>